
<svg xmlns="http://www.w3.org/2000/svg" version="1.1" xmlns:xlink="http://www.w3.org/1999/xlink" preserveAspectRatio="none" x="0px" y="0px" width="64px" height="64px" viewBox="0 0 64 64">
<defs>
<g id="pin_0_Layer1_0_FILL">
<path fill="#FFFFFF" stroke="none" d="
M 35 47
L 27 47 27 59 31 64 35 59 35 47
M 44 5
L 48 5 48 0 14 0 14 5 18 5 14 38 4 38 4 43 58 43 58 38 48 38 44 5
M 23 5
L 32 5 32 38 20 38 23 5 Z"/>
</g>

<g id="pin_0_Layer0_0_FILL">
<path fill="#FFFFFF" fill-opacity="0" stroke="none" d="
M 64 0
L 0 0 0 64 64 64 64 0 Z"/>
</g>
</defs>

<g transform="matrix( 1, 0, 0, 1, 0,0) ">
<g transform="matrix( 1, 0, 0, 1, 0,0) ">
<use xlink:href="#pin_0_Layer1_0_FILL"/>
</g>

<g transform="matrix( 1, 0, 0, 1, 0,0) ">
<use xlink:href="#pin_0_Layer0_0_FILL"/>
</g>
</g>
</svg>
