
<svg xmlns="http://www.w3.org/2000/svg" version="1.1" xmlns:xlink="http://www.w3.org/1999/xlink" preserveAspectRatio="none" x="0px" y="0px" width="25px" height="25px" viewBox="0 0 25 25">
<defs>
<g id="icon_sourcecode_0_Layer1_0_FILL">
<path fill="#FFFFFF" stroke="none" d="
M 9.95 5.1
Q 9.85 4.9 9.7 5.1
L 2.25 11.25
Q 2.2 11.25 2.15 11.4 2.1 11.45 2.1 11.6 2.05 11.75 2.05 11.9 2 12.15 2 12.4 2 12.95 2.1 13.25 2.15 13.6 2.25 13.7
L 9.7 19.85
Q 9.8 19.9 9.85 20 9.9 20 9.95 19.9 10 19.75 10 19.5 10 19.25 10 18.9 10 18.5 10 18.15 10 17.9 9.95 17.75 9.9 17.6 9.85 17.5 9.8 17.4 9.7 17.3
L 3.65 12.5 9.75 7.55
Q 9.85 7.45 9.85 7.35 9.95 7.3 9.95 7.1 10 6.95 10 6.7 10 6.45 10 5.95 10 5.25 9.95 5.1
M 23 12.5
Q 23 11.9 23 11.65 22.9 11.4 22.8 11.3
L 15.4 5.1
Q 15.25 5 15.2 5 15.1 5 15.05 5.1 15.05 5.15 15 5.4 15 5.6 15 6 15 6.5 15 6.75 15 6.95 15.05 7.1 15.1 7.35 15.15 7.45 15.25 7.55 15.35 7.6
L 21.4 12.4 15.3 17.4
Q 15.2 17.4 15.15 17.5 15.05 17.65 15.05 17.8 15 18 15 18.25 15 18.5 15 18.95 15 19.25 15 19.5 15.05 19.75 15.05 19.85 15.1 20 15.2 20 15.25 19.9 15.4 19.85
L 22.8 13.7
Q 22.85 13.7 22.9 13.6 22.95 13.45 23 13.25 23 13.1 23 12.95 23 12.75 23 12.5 Z"/>
</g>

<g id="icon_sourcecode_0_Layer0_0_FILL">
<path fill="#FFFFFF" fill-opacity="0" stroke="none" d="
M 0 17.15
L 25 17.15 25 0 0 0 0 17.15
M 25 17.15
L 0 17.15 0 25 25 25 25 17.15 Z"/>
</g>
</defs>

<g transform="matrix( 1, 0, 0, 1, 0,0) ">
<g transform="matrix( 1, 0, 0, 1, 0,0) ">
<use xlink:href="#icon_sourcecode_0_Layer1_0_FILL"/>
</g>

<g transform="matrix( 1, 0, 0, 1, 0,0) ">
<use xlink:href="#icon_sourcecode_0_Layer0_0_FILL"/>
</g>
</g>
</svg>
