
<svg xmlns="http://www.w3.org/2000/svg" version="1.1" xmlns:xlink="http://www.w3.org/1999/xlink" preserveAspectRatio="none" x="0px" y="0px" width="64px" height="64px" viewBox="0 0 64 64">
<defs>
<g id="partial_0_Layer1_0_FILL">
<path fill="#FFFFFF" stroke="none" d="
M 9 50.45
L 9 59
Q 9 64 14 64
L 51 64
Q 56 64 56 59
L 56 50.6 49.4 48 40.9 51.45 32.25 48 23.7 51.45 15.05 48 9 50.45
M 56 18.95
L 41.85 18.95
Q 35.95 18.95 35.95 13.05
L 35.95 0 14 0
Q 9 0 9 5
L 9 31.45 15.05 28.85 23.7 32.55 32.25 28.85 40.9 32.55 49.4 28.85 56 31.65 56 18.95
M 44 16
L 56 16 39 0 39 11
Q 39 16 44 16 Z"/>
</g>

<g id="partial_0_Layer0_0_FILL">
<path fill="#FFFFFF" fill-opacity="0" stroke="none" d="
M 0 0
L 0 64 64 64 64 0 0 0 Z"/>
</g>
</defs>

<g transform="matrix( 1, 0, 0, 1, 0,0) ">
<g transform="matrix( 1, 0, 0, 1, 0,0) ">
<use xlink:href="#partial_0_Layer1_0_FILL"/>
</g>

<g transform="matrix( 1, 0, 0, 1, 0,0) ">
<use xlink:href="#partial_0_Layer0_0_FILL"/>
</g>
</g>
</svg>
