
<svg xmlns="http://www.w3.org/2000/svg" version="1.1" xmlns:xlink="http://www.w3.org/1999/xlink" preserveAspectRatio="none" x="0px" y="0px" width="64px" height="64px" viewBox="0 0 64 64">
<defs>
<g id="form_fields_0_Layer1_0_FILL">
<path fill="#FFFFFF" stroke="none" d="
M 64 48
L 64 12
Q 47.958984375 2.084375 31 12 15.9541015625 1.9193359375 0 12
L 0 48
Q 15.95 37.9 31 48 47.95 38.1 64 48
M 0 56
Q 15.95 45.9 31 56 47.95 46.1 64 56
L 64 51
Q 47.95 41.1 31 51 15.95 40.9 0 51
L 0 56 Z"/>
</g>

<g id="form_fields_0_Layer0_0_FILL">
<path fill="#FFFFFF" fill-opacity="0" stroke="none" d="
M 0 0
L 0 64 64 64 64 0 0 0 Z"/>
</g>
</defs>

<g transform="matrix( 1, 0, 0, 1, 0,0) ">
<g transform="matrix( 1, 0, 0, 1, 0,0) ">
<use xlink:href="#form_fields_0_Layer1_0_FILL"/>
</g>

<g transform="matrix( 1, 0, 0, 1, 0,0) ">
<use xlink:href="#form_fields_0_Layer0_0_FILL"/>
</g>
</g>
</svg>
