
<svg xmlns="http://www.w3.org/2000/svg" version="1.1" xmlns:xlink="http://www.w3.org/1999/xlink" preserveAspectRatio="none" x="0px" y="0px" width="32px" height="32px" viewBox="0 0 32 32">
<defs>
<g id="icon_bell_0_Layer1_0_FILL">
<path fill="#FFFFFF" stroke="none" d="
M 26.6 11.7
L 26.6 11.65
Q 26.6 11.35 26.6 10.95 26.6 6.65 23.5 3.55 20.45 0.5 16.15 0.5 11.8 0.5 8.7 3.55 5.65 6.65 5.65 10.95 5.65 11.15 5.65 11.35
L 5.65 11.4
Q 6.1 23.2 2.45 26.05 2.1 26.25 2.05 26.7 1.95 27.05 2.2 27.4 2.4 27.75 2.8 27.85 7.55 28.8 12.3 29.1 12.55 29.9 13.2 30.5 14.4 31.7 16.05 31.7 17.7 31.7 18.85 30.55 18.85 30.5 18.9 30.5 19.5 29.85 19.85 29.1 24.6 28.8 29.35 27.85 29.7 27.75 29.95 27.45 30.2 27.1 30.15 26.75 30.1 26.35 29.8 26.1 26 22.55 26.6 11.7 Z"/>
</g>

<g id="icon_bell_0_Layer0_0_FILL">
<path fill="#FFFFFF" fill-opacity="0" stroke="none" d="
M 32 0
L 0 0 0 32 32 32 32 0 Z"/>
</g>
</defs>

<g transform="matrix( 1, 0, 0, 1, 0,0) ">
<g transform="matrix( 1, 0, 0, 1, 0,0) ">
<use xlink:href="#icon_bell_0_Layer1_0_FILL"/>
</g>

<g transform="matrix( 1, 0, 0, 1, 0,0) ">
<use xlink:href="#icon_bell_0_Layer0_0_FILL"/>
</g>
</g>
</svg>
