
<svg xmlns="http://www.w3.org/2000/svg" version="1.1" xmlns:xlink="http://www.w3.org/1999/xlink" preserveAspectRatio="none" x="0px" y="0px" width="64px" height="64px" viewBox="0 0 64 64">
<defs>
<g id="folder_0_Layer1_0_FILL">
<path fill="#FFFFFF" stroke="none" d="
M 64 49
L 64 21
Q 64 16 59 16
L 29 16 24 8 5 8 0 16 0 49
Q 0 54 5 54
L 59 54
Q 64 54 64 49 Z"/>
</g>

<g id="folder_0_Layer0_0_FILL">
<path fill="#FFFFFF" fill-opacity="0" stroke="none" d="
M 64 0
L 0 0 0 64 64 64 64 0 Z"/>
</g>
</defs>

<g transform="matrix( 1, 0, 0, 1, 0,0) ">
<g transform="matrix( 1, 0, 0, 1, 0,0) ">
<use xlink:href="#folder_0_Layer1_0_FILL"/>
</g>

<g transform="matrix( 1, 0, 0, 1, 0,0) ">
<use xlink:href="#folder_0_Layer0_0_FILL"/>
</g>
</g>
</svg>
