
<svg xmlns="http://www.w3.org/2000/svg" version="1.1" xmlns:xlink="http://www.w3.org/1999/xlink" preserveAspectRatio="none" x="0px" y="0px" width="64px" height="64px" viewBox="0 0 64 64">
<defs>
<g id="iconHide_0_Layer1_0_FILL">
<path fill="#FFFFFF" stroke="none" d="
M 54.4 53.4
Q 55.016015625 53.3947265625 55.45 52.95 55.8947265625 52.516015625 55.9 51.9 55.8947265625 51.283984375 55.45 50.85 55.016015625 50.4052734375 54.4 50.4
L 48.4 50.4
Q 47.783984375 50.4052734375 47.35 50.85 46.9052734375 51.283984375 46.9 51.9 46.9052734375 52.516015625 47.35 52.95 47.783984375 53.3947265625 48.4 53.4
L 54.4 53.4
M 18.4 53.4
Q 19.016015625 53.3947265625 19.45 52.95 19.8947265625 52.516015625 19.9 51.9 19.8947265625 51.283984375 19.45 50.85 19.016015625 50.4052734375 18.4 50.4
L 12.4 50.4
Q 11.783984375 50.4052734375 11.35 50.85 10.9052734375 51.283984375 10.9 51.9 10.9052734375 52.516015625 11.35 52.95 11.783984375 53.3947265625 12.4 53.4
L 18.4 53.4
M 36.4 50.4
L 30.4 50.4
Q 29.783984375 50.4052734375 29.35 50.85 28.9052734375 51.283984375 28.9 51.9 28.9052734375 52.516015625 29.35 52.95 29.783984375 53.3947265625 30.4 53.4
L 36.4 53.4
Q 37.016015625 53.3947265625 37.45 52.95 37.8947265625 52.516015625 37.9 51.9 37.8947265625 51.283984375 37.45 50.85 37.016015625 50.4052734375 36.4 50.4
M 3.3 44.5
Q 3.2947265625 43.883984375 2.85 43.45 2.416015625 43.0052734375 1.8 43 1.183984375 43.0052734375 0.75 43.45 0.3052734375 43.883984375 0.3 44.5
L 0.3 50.5
Q 0.3052734375 51.116015625 0.75 51.55 1.183984375 51.9947265625 1.8 52 2.416015625 51.9947265625 2.85 51.55 3.2947265625 51.116015625 3.3 50.5
L 3.3 44.5
M 3.3 26.5
Q 3.2947265625 25.883984375 2.85 25.45 2.416015625 25.0052734375 1.8 25 1.183984375 25.0052734375 0.75 25.45 0.3052734375 25.883984375 0.3 26.5
L 0.3 32.5
Q 0.3052734375 33.116015625 0.75 33.55 1.183984375 33.9947265625 1.8 34 2.416015625 33.9947265625 2.85 33.55 3.2947265625 33.116015625 3.3 32.5
L 3.3 26.5
M 8.85 11.15
Q 8.416015625 10.7052734375 7.8 10.7
L 1.8 10.7
Q 1.183984375 10.7052734375 0.75 11.15 0.3052734375 11.583984375 0.3 12.2
L 0.3 14.5
Q 0.3052734375 15.116015625 0.75 15.55 1.183984375 15.9947265625 1.8 16 2.416015625 15.9947265625 2.85 15.55 3.2947265625 15.116015625 3.3 14.5
L 3.3 13.7 7.8 13.7
Q 8.416015625 13.6947265625 8.85 13.25 9.2947265625 12.816015625 9.3 12.2 9.2947265625 11.583984375 8.85 11.15
M 26.85 11.15
Q 26.416015625 10.7052734375 25.8 10.7
L 19.8 10.7
Q 19.183984375 10.7052734375 18.75 11.15 18.3052734375 11.583984375 18.3 12.2 18.3052734375 12.816015625 18.75 13.25 19.183984375 13.6947265625 19.8 13.7
L 25.8 13.7
Q 26.416015625 13.6947265625 26.85 13.25 27.2947265625 12.816015625 27.3 12.2 27.2947265625 11.583984375 26.85 11.15
M 63.75 41.8
Q 63.7447265625 41.183984375 63.3 40.75 62.866015625 40.3052734375 62.25 40.3 61.633984375 40.3052734375 61.2 40.75 60.7552734375 41.183984375 60.75 41.8
L 60.75 47.8
Q 60.7552734375 48.416015625 61.2 48.85 61.633984375 49.2947265625 62.25 49.3 62.866015625 49.2947265625 63.3 48.85 63.7447265625 48.416015625 63.75 47.8
L 63.75 41.8
M 43.8 13.7
Q 44.416015625 13.6947265625 44.85 13.25 45.2947265625 12.816015625 45.3 12.2 45.2947265625 11.583984375 44.85 11.15 44.416015625 10.7052734375 43.8 10.7
L 37.8 10.7
Q 37.183984375 10.7052734375 36.75 11.15 36.3052734375 11.583984375 36.3 12.2 36.3052734375 12.816015625 36.75 13.25 37.183984375 13.6947265625 37.8 13.7
L 43.8 13.7
M 63.75 23.8
Q 63.7447265625 23.183984375 63.3 22.75 62.866015625 22.3052734375 62.25 22.3 61.633984375 22.3052734375 61.2 22.75 60.7552734375 23.183984375 60.75 23.8
L 60.75 29.8
Q 60.7552734375 30.416015625 61.2 30.85 61.633984375 31.2947265625 62.25 31.3 62.866015625 31.2947265625 63.3 30.85 63.7447265625 30.416015625 63.75 29.8
L 63.75 23.8
M 62.85 11.15
Q 62.416015625 10.7052734375 61.8 10.7
L 55.8 10.7
Q 55.183984375 10.7052734375 54.75 11.15 54.3052734375 11.583984375 54.3 12.2 54.3052734375 12.816015625 54.75 13.25 55.183984375 13.6947265625 55.8 13.7
L 61.8 13.7
Q 62.416015625 13.6947265625 62.85 13.25 63.2947265625 12.816015625 63.3 12.2 63.2947265625 11.583984375 62.85 11.15 Z"/>
</g>

<g id="iconHide_0_Layer0_0_FILL">
<path fill="#FFFFFF" fill-opacity="0" stroke="none" d="
M 64 0
L 0 0 0 64 64 64 64 0 Z"/>
</g>
</defs>

<g transform="matrix( 1, 0, 0, 1, 0,0) ">
<g transform="matrix( 1, 0, 0, 1, 0,0) ">
<use xlink:href="#iconHide_0_Layer1_0_FILL"/>
</g>

<g transform="matrix( 1, 0, 0, 1, 0,0) ">
<use xlink:href="#iconHide_0_Layer0_0_FILL"/>
</g>
</g>
</svg>
