
<svg xmlns="http://www.w3.org/2000/svg" version="1.1" xmlns:xlink="http://www.w3.org/1999/xlink" preserveAspectRatio="none" x="0px" y="0px" width="64px" height="128px" viewBox="0 0 64 128">
<defs>
<g id="sword_0_Layer0_0_FILL">
<path fill="#0099FF" stroke="none" d="
M 44.7 103.75
Q 42.45 85.25 35.3 81.7 34.8810546875 227.778515625 92.2 273.9 50.99296875 210.8341796875 53.6 81.75 46.5373046875 85.3240234375 44.7 103.75
M 33.45 0
L 22.2 0
Q 19 0 16.7 2.25 14.45 4.6 14.45 7.8 14.45 10.95 16.7 13.25 19 15.55 22.2 15.55 23.4 15.55 24.55 15.2 25.1 15 25.7 14.75
L 25.8 14.7
Q 31.15 11.9 34.35 13.1 38.8 14.6 37.85 23.05
L 35.8 60.3
Q 43.0236328125 54.766796875 44.5 44.25 46.028515625 54.7662109375 53.15 60.3
L 51.15 23.05
Q 50.05 1.4 33.45 0
M 83.25 65.7
Q 82.75 65.75 82.25 65.95 81.35 66.3 80.6 67.1 80.3 67.35 80.1 67.55 65.1 71.55 53.4 64.3 46.05 58.65 44.6 53 43 58.65 35.6 64.3 23.95 71.55 8.9 67.55 8.7 67.35 8.45 67.1 7.65 66.3 6.8 65.95 6.25 65.75 5.8 65.7 5.4 65.65 4.95 65.65 4.55 65.65 4.2 65.7 2.6 65.9 1.5 67.1 0 68.5 0 70.6 0 72.65 1.5 74.05 2.9 75.5 4.95 75.5 6.75 75.5 8.05 74.45 22.6 69.7 35.35 77.7 42.45 81.25 44.6 92.65 46.55 81.25 53.7 77.7 66.45 69.7 80.95 74.45 82.3 75.5 84.1 75.5 86.15 75.5 87.55 74.05 89 72.65 89 70.6 89 68.5 87.55 67.1 86.4 65.9 84.85 65.7 84.5 65.65 84.1 65.65 83.65 65.65 83.25 65.7 Z"/>
</g>
</defs>

<g transform="matrix( 0.3900909423828125, 0.2862548828125, -0.2862548828125, 0.3900909423828125, 47.6,-5.2) ">
<g transform="matrix( 1, 0, 0, 1, 0,0) ">
<use xlink:href="#sword_0_Layer0_0_FILL"/>
</g>
</g>
</svg>
