
<svg xmlns="http://www.w3.org/2000/svg" version="1.1" xmlns:xlink="http://www.w3.org/1999/xlink" preserveAspectRatio="none" x="0px" y="0px" width="64px" height="64px" viewBox="0 0 64 64">
<defs>
<g id="iconSecurity_0_Layer1_0_FILL">
<path fill="#FFFFFF" fill-opacity="0.9882352941176471" stroke="none" d="
M 30.05 1.5
Q 21.85 8.6 8.15 15.25 6 56.7 32.1 63.45 58.3 56.7 56.15 15.25 42.45 8.6 34.25 1.5 32.05 -0.3 30.05 1.5
M 45 20.85
L 48.85 24.7 28.2 45.35 16.55 33.7 20.35 29.95 28.15 37.75 45 20.85 Z"/>
</g>

<g id="iconSecurity_0_Layer0_0_FILL">
<path fill="#FFFFFF" fill-opacity="0" stroke="none" d="
M 64 0
L 0 0 0 64 64 64 64 0 Z"/>
</g>
</defs>

<g transform="matrix( 1, 0, 0, 1, 0,0) ">
<g transform="matrix( 1, 0, 0, 1, 0,0) ">
<use xlink:href="#iconSecurity_0_Layer1_0_FILL"/>
</g>

<g transform="matrix( 1, 0, 0, 1, 0,0) ">
<use xlink:href="#iconSecurity_0_Layer0_0_FILL"/>
</g>
</g>
</svg>
