
<svg xmlns="http://www.w3.org/2000/svg" version="1.1" xmlns:xlink="http://www.w3.org/1999/xlink" preserveAspectRatio="none" x="0px" y="0px" width="64px" height="64px" viewBox="0 0 64 64">
<defs>
<g id="Layer1_0_FILL">
<path fill="#000000" fill-opacity="0.32941176470588235" stroke="none" d="
M 28 3
L 28 0 0 0 0 3 28 3
M 28 24
L 28 21 0 21 0 24 28 24
M 0 42
L 0 45 28 45 28 42 0 42 Z"/>

<path fill="#FFFFFF" stroke="none" d="
M 64 48
L 0 48 0 64 64 64 64 48
M 64 36
L 64 27 0 27 0 36 64 36
M 64 15
L 64 6 0 6 0 15 64 15 Z"/>
</g>

<g id="Layer0_0_FILL">
<path fill="#FFFFFF" fill-opacity="0" stroke="none" d="
M 64 0
L 0 0 0 64 64 64 64 0 Z"/>
</g>
</defs>

<g transform="matrix( 1, 0, 0, 1, 0,0) ">
<use xlink:href="#Layer1_0_FILL"/>
</g>

<g transform="matrix( 1, 0, 0, 1, 0,0) ">
<use xlink:href="#Layer0_0_FILL"/>
</g>
</svg>
