
<svg xmlns="http://www.w3.org/2000/svg" version="1.1" xmlns:xlink="http://www.w3.org/1999/xlink" preserveAspectRatio="none" x="0px" y="0px" width="64px" height="64px" viewBox="0 0 64 64">
<defs>
<g id="iconPublicApi_0_Layer1_0_FILL">
<path fill="#FFFFFF" stroke="none" d="
M 63.85 45
L 63.85 29 0 29 0 45 30.5 45 30.5 52.7
Q 29.170703125 53.066796875 28.1 54.05
L 28.1 54.05 28.05 54.1
Q 27.05078125 55.1697265625 26.7 56.5
L 6.5 56.5 6.5 59.5 26.7 59.5
Q 27.0640625 60.82109375 28.1 61.85 29.7400390625 63.50078125 32 63.5 34.266796875 63.5078125 35.85 61.85
L 35.85 61.85
Q 36.9375 60.819921875 37.3 59.5
L 57.5 59.5 57.5 56.5 37.3 56.5
Q 36.9255859375 55.1685546875 35.85 54.1 34.82109375 53.0640625 33.5 52.7
L 33.5 45 63.85 45
M 32 55.5
L 32 55.5
Q 33.0375 55.498046875 33.75 56.2 34.4990234375 56.959765625 34.5 58 34.4921875 59.0154296875 33.75 59.7
L 33.75 59.75 33.7 59.75
Q 33.0154296875 60.4921875 32 60.5 30.959765625 60.4990234375 30.2 59.75 29.49140625 59.0306640625 29.5 58 29.4974609375 56.9923828125 30.15 56.25 30.200390625 56.2255859375 30.2 56.2 30.8498046875 55.6447265625 31.65 55.55
L 31.75 55.5 31.8 55.5
Q 31.9 55.50234375 32 55.5
M 11 35
L 15 35 15 39 11 39 11 35
M 18 39
L 18 35 22 35 22 39 18 39
M 4 35
L 8 35 8 39 4 39 4 35
M 63.85 24
L 63.85 8 0 8 0 24 63.85 24
M 22 14
L 22 18 18 18 18 14 22 14
M 15 14
L 15 18 11 18 11 14 15 14
M 4 18
L 4 14 8 14 8 18 4 18 Z"/>
</g>

<g id="iconPublicApi_0_Layer0_0_FILL">
<path fill="#FFFFFF" fill-opacity="0" stroke="none" d="
M 64 0
L 0 0 0 64 64 64 64 0 Z"/>
</g>
</defs>

<g transform="matrix( 1, 0, 0, 1, 0,0) ">
<g transform="matrix( 1, 0, 0, 1, 0,0) ">
<use xlink:href="#iconPublicApi_0_Layer1_0_FILL"/>
</g>

<g transform="matrix( 1, 0, 0, 1, 0,0) ">
<use xlink:href="#iconPublicApi_0_Layer0_0_FILL"/>
</g>
</g>
</svg>
