
<svg xmlns="http://www.w3.org/2000/svg" version="1.1" xmlns:xlink="http://www.w3.org/1999/xlink" preserveAspectRatio="none" x="0px" y="0px" width="64px" height="64px" viewBox="0 0 64 64">
<defs>
<g id="iconUsers_0_Layer1_0_FILL">
<path fill="#FFFFFF" stroke="none" d="
M 15 32.2
Q 11.5 33.35 8.5 35.6 4.25 38.9 2.3 43.5 0.25 48.1 0.05 53.1 -0.15 58.15 0.75 59.35
L 45.45 59.35
Q 46.4 58.15 46.1 53.1 45.9 48.1 43.95 43.5 42 38.9 37.65 35.6 34.9 33.5 31.65 32.35 29.15 31.45 26.35 31.1 25.5 31 24.65 30.95 23.9 30.9 23.1 30.9 21.85 30.9 20.65 31.05 17.7 31.3 15 32.2
M 31.45 10.35
Q 31.2 10.05 30.95 9.8 28.15 7 24.45 6.55 23.7 6.45 22.9 6.45 18.2 6.45 14.85 9.8 11.5 13.2 11.5 17.9 11.5 22.6 14.85 25.95 18.2 29.3 22.9 29.3 23 29.3 23.1 29.3 23.8 29.3 24.45 29.2 28.15 28.7 30.95 25.95 31.2 25.7 31.45 25.45 34.3 22.25 34.3 17.9 34.3 13.55 31.45 10.35
M 48.05 25.95
Q 51.4 22.6 51.4 17.9 51.4 13.2 48.05 9.8 44.7 6.45 40 6.45 36.25 6.45 33.4 8.55 37.2 12.5 37.2 17.95 37.2 23.3 33.45 27.2 36.3 29.3 40 29.3 40.1 29.3 40.2 29.3 44.75 29.2 48.05 25.95
M 40.75 34.3
Q 45.1 37.6 47.05 42.2 49 46.8 49.2 51.8 49.45 55.65 49 59.35
L 62.55 59.35
Q 63.5 58.15 63.2 53.1 63 48.1 61.05 43.5 59.1 38.9 54.75 35.6 48.6 30.95 40.2 30.9 37.75 30.9 35.5 31.35 38.3 32.45 40.75 34.3 Z"/>
</g>

<g id="iconUsers_0_Layer0_0_FILL">
<path fill="#FFFFFF" fill-opacity="0.00784313725490196" stroke="none" d="
M 64 0
L 0 0 0 64 64 64 64 0 Z"/>
</g>
</defs>

<g transform="matrix( 1, 0, 0, 1, 0,0) ">
<g transform="matrix( 1, 0, 0, 1, 0,0) ">
<use xlink:href="#iconUsers_0_Layer1_0_FILL"/>
</g>

<g transform="matrix( 1, 0, 0, 1, 0,0) ">
<use xlink:href="#iconUsers_0_Layer0_0_FILL"/>
</g>
</g>
</svg>
