
<svg xmlns="http://www.w3.org/2000/svg" version="1.1" xmlns:xlink="http://www.w3.org/1999/xlink" preserveAspectRatio="none" x="0px" y="0px" width="64px" height="64px" viewBox="0 0 64 64">
<defs>
<g id="newtab_0_Layer1_0_FILL">
<path fill="#FFFFFF" stroke="none" d="
M 49.75 33.2
Q 48 30.55 45.75 30.25
L 12.8 30.25
Q 10.5 30.55 8.8 33.2
L 5.35 40.2
Q 4.15 42.6 1.8 43
L 0 43 0 47 64 47 64 43 56.7 43
Q 54.4 42.6 53.2 40.2
L 49.75 33.2
M 44.15 34.3
L 46.1 32.35 47.5 33.8 45.6 35.75 47.5 37.65 46.1 39.05 44.2 37.15 42.2 39.1 40.8 37.65 42.75 35.7 40.8 33.75 42.2 32.35 44.15 34.3 Z"/>
</g>

<g id="newtab_0_Layer0_0_FILL">
<path fill="#FFFFFF" fill-opacity="0" stroke="none" d="
M 64 0
L 0 0 0 64 64 64 64 0 Z"/>
</g>
</defs>

<g transform="matrix( 1, 0, 0, 1, 0,0) ">
<g transform="matrix( 1, 0, 0, 1, 0,0) ">
<use xlink:href="#newtab_0_Layer1_0_FILL"/>
</g>

<g transform="matrix( 1, 0, 0, 1, 0,0) ">
<use xlink:href="#newtab_0_Layer0_0_FILL"/>
</g>
</g>
</svg>
