
<svg xmlns="http://www.w3.org/2000/svg" version="1.1" xmlns:xlink="http://www.w3.org/1999/xlink" preserveAspectRatio="none" x="0px" y="0px" width="64px" height="64px" viewBox="0 0 64 64">
<defs>
<g id="fileless_0_Layer2_0_FILL">
<path fill="#FFFFFF" stroke="none" d="
M 44 16
L 56 16 39 0 39 11
Q 39 16 44 16
M 56 18.95
L 41.85 18.95
Q 35.95 18.95 35.95 13.05
L 35.95 0 14 0
Q 9 0 9 5
L 9 59
Q 9 64 14 64
L 51 64
Q 56 64 56 59
L 56 18.95
M 51.7 33.9
L 51.7 35.75
Q 50.45 34.9 48.5 34.9 48 34.9 47.45 35 46.9 35.15 46.5 35.4 46.05 35.65 45.8 36.05 45.55 36.45 45.55 37 45.55 37.55 45.75 37.95 45.95 38.35 46.3 38.65 46.7 39 47.3 39.3 47.85 39.6 48.6 39.95 49.35 40.35 50 40.75 50.7 41.15 51.2 41.65 51.7 42.15 52 42.75 52.3 43.35 52.3 44.15 52.3 45.2 51.9 45.9 51.5 46.65 50.8 47.1 50.1 47.55 49.2 47.75 48.3 47.95 47.3 47.95 46.95 47.95 46.5 47.9 46 47.85 45.5 47.75 44.95 47.6 44.5 47.45 44.05 47.3 43.8 47.15
L 43.8 45.2
Q 44.1 45.5 44.6 45.7 45.05 45.95 45.55 46.1 46.1 46.3 46.6 46.35 47.1 46.45 47.55 46.45 49.1 46.45 49.85 45.9 50.6 45.35 50.6 44.25 50.6 43.7 50.35 43.3 50.1 42.85 49.65 42.5 49.2 42.15 48.6 41.85 48 41.55 47.3 41.15 46.55 40.8 45.9 40.4 45.3 40.05 44.8 39.6 44.35 39.1 44.1 38.55 43.8 37.95 43.8 37.15 43.8 36.2 44.25 35.5 44.65 34.8 45.35 34.3 46 33.85 46.9 33.65 47.75 33.4 48.7 33.4 50.75 33.4 51.7 33.9
M 41.05 33.9
L 41.05 35.75
Q 39.8 34.9 37.85 34.9 37.35 34.9 36.8 35 36.25 35.15 35.85 35.4 35.4 35.65 35.15 36.05 34.9 36.45 34.9 37 34.9 37.55 35.1 37.95 35.3 38.35 35.65 38.65 36.05 39 36.65 39.3 37.2 39.6 37.95 39.95 38.7 40.35 39.35 40.75 40.05 41.15 40.55 41.65 41.05 42.15 41.35 42.75 41.65 43.35 41.65 44.15 41.65 45.2 41.25 45.9 40.85 46.65 40.15 47.1 39.45 47.55 38.55 47.75 37.65 47.95 36.65 47.95 36.3 47.95 35.85 47.9 35.35 47.85 34.85 47.75 34.3 47.6 33.85 47.45 33.4 47.3 33.15 47.15
L 33.15 45.2
Q 33.45 45.5 33.95 45.7 34.4 45.95 34.9 46.1 35.45 46.3 35.95 46.35 36.45 46.45 36.9 46.45 38.45 46.45 39.2 45.9 39.95 45.35 39.95 44.25 39.95 43.7 39.7 43.3 39.45 42.85 39 42.5 38.55 42.15 37.95 41.85 37.35 41.55 36.65 41.15 35.9 40.8 35.25 40.4 34.65 40.05 34.15 39.6 33.7 39.1 33.45 38.55 33.15 37.95 33.15 37.15 33.15 36.2 33.6 35.5 34 34.8 34.7 34.3 35.35 33.85 36.25 33.65 37.1 33.4 38.05 33.4 40.1 33.4 41.05 33.9
M 15.8 33.65
L 15.8 46.2 21.45 46.2 21.45 47.7 14.15 47.7 14.15 33.65 15.8 33.65
M 30.75 33.65
L 30.75 35.15 25.25 35.15 25.25 39.8 30.3 39.8 30.3 41.3 25.25 41.3 25.25 46.2 31.05 46.2 31.05 47.7 23.6 47.7 23.6 33.65 30.75 33.65 Z"/>
</g>

<g id="fileless_0_Layer0_0_FILL">
<path fill="#FFFFFF" fill-opacity="0" stroke="none" d="
M 0 0
L 0 64 64 64 64 0 0 0 Z"/>
</g>
</defs>

<g transform="matrix( 1, 0, 0, 1, 0,0) ">
<g transform="matrix( 1, 0, 0, 1, 0,0) ">
<use xlink:href="#fileless_0_Layer2_0_FILL"/>
</g>

<g transform="matrix( 1, 0, 0, 1, 0,0) ">
<use xlink:href="#fileless_0_Layer0_0_FILL"/>
</g>
</g>
</svg>
