
<svg xmlns="http://www.w3.org/2000/svg" version="1.1" xmlns:xlink="http://www.w3.org/1999/xlink" preserveAspectRatio="none" x="0px" y="0px" width="64px" height="64px" viewBox="0 0 64 64">
<defs>
<g id="iconDatasets_0_Layer1_0_FILL">
<path fill="#FFFFFF" stroke="none" d="
M 54.6 42.9
Q 51.7814453125 43.8345703125 48.6 44.45 41.2556640625 46 32 46 22.7443359375 46 15.35 44.45 12.18359375 43.8345703125 9.35 42.9 0.14609375 39.89765625 0 35.6
L 0 53.55
Q 0.0884765625 57.87890625 9.35 60.9 18.75 64 32 64 45.25 64 54.6 60.9 63.9111328125 57.87890625 64 53.55
L 63.95 35.9
Q 63.529296875 40.002734375 54.6 42.9
M 54.6 20.9
Q 50.5814453125 22.232421875 45.85 23 39.5552734375 24 32 24 24.4447265625 24 18.15 23 13.3900390625 22.232421875 9.35 20.9 0.5376953125 18.025390625 0 14
L 0 32.6
Q 0.0240234375 33.328515625 0.3 34 1.66171875 37.3919921875 9.35 39.9 18.1625 42.80625 30.35 43
L 33.65 43
Q 45.834375 42.80625 54.6 39.9 62.3494140625 37.385546875 63.7 34 63.928125 33.41953125 63.95 32.8
L 63.95 31.2
Q 63.976171875 31.065625 63.95 30.9 63.977734375 30.3625 63.95 29.8 63.9802734375 21.896875 63.95 14 63.4591796875 18.025390625 54.6 20.9
M 63.7 12
Q 64 11.269921875 64 10.5 64 6.15 54.6 3.05 45.25 0 32 0 18.75 0 9.35 3.05 0 6.15 0 10.5 0 11.269921875 0.3 12 1.6548828125 15.38984375 9.35 17.9 18.75 21 32 21 45.25 21 54.6 17.9 62.3361328125 15.38984375 63.7 12 Z"/>
</g>

<g id="iconDatasets_0_Layer0_0_FILL">
<path fill="#FFFFFF" fill-opacity="0" stroke="none" d="
M 64 -0.05
L 0 -0.05 0 63.95 64 63.95 64 -0.05 Z"/>
</g>
</defs>

<g transform="matrix( 1, 0, 0, 1, 0,0) ">
<g transform="matrix( 1, 0, 0, 1, 0,0) ">
<use xlink:href="#iconDatasets_0_Layer1_0_FILL"/>
</g>

<g transform="matrix( 1, 0, 0, 1, 0,0) ">
<use xlink:href="#iconDatasets_0_Layer0_0_FILL"/>
</g>
</g>
</svg>
