
<svg xmlns="http://www.w3.org/2000/svg" version="1.1" xmlns:xlink="http://www.w3.org/1999/xlink" preserveAspectRatio="none" x="0px" y="0px" width="64px" height="64px" viewBox="0 0 64 64">
<defs>
<g id="IconKey_0_Layer1_0_FILL">
<path fill="#FFFFFF" stroke="none" d="
M 49.25 38.55
Q 49.32421875 38.5470703125 49.35 38.5 50.65390625 37.86796875 51.9 38.15 51.944140625 38.162109375 51.95 38.15 52.9953125 38.4451171875 54 39.25
L 54 41
Q 53.9982421875 42.24453125 54.85 43.1 55.75546875 44.0017578125 57 44 58.24453125 44.0017578125 59.1 43.1 60.0017578125 42.24453125 60 41
L 60 35 61 35
Q 62.24453125 35.0017578125 63.1 34.1 64.0017578125 33.24453125 64 32 64.0017578125 30.75546875 63.1 29.85 62.24453125 28.9982421875 61 29
L 26.4 29
Q 25.8873046875 23.4052734375 23.05 19.2
L 23.05 19.25
Q 19.1609375 13.3453125 13.5 13.5 7.85 13.341796875 3.9 19.2
L 3.9 19.25
Q 0.50234375 24.3283203125 0.5 31.5 0.50234375 38.671484375 3.9 43.75
L 3.9 43.75
Q 7.85 49.658203125 13.5 49.5 19.1609375 49.6544921875 23.05 43.75
L 23 43.75
Q 25.633984375 39.988671875 26.25 35
L 42 35 42 43
Q 41.9982421875 44.24453125 42.85 45.1 43.75546875 46.0017578125 45 46 46.24453125 46.0017578125 47.1 45.1 48.0017578125 44.24453125 48 43
L 48 39.35
Q 48.639453125 38.8775390625 49.25 38.55
M 8.9 22.55
L 8.9 22.55
Q 10.8515625 19.655859375 13.5 19.5 16.137109375 19.651953125 18.05 22.55
L 18.05 22.55
Q 20.4958984375 26.2859375 20.5 31.5 20.5 31.696875 20.5 31.9
L 20.5 32.05
Q 20.3990234375 36.9255859375 18.05 40.4
L 18.05 40.45
Q 16.137109375 43.3478515625 13.5 43.5 10.8515625 43.344140625 8.9 40.4
L 8.9 40.45
Q 6.4974609375 36.7283203125 6.5 31.5 6.4974609375 26.271484375 8.9 22.55 Z"/>
</g>

<g id="IconKey_0_Layer0_0_FILL">
<path fill="#FFFFFF" fill-opacity="0" stroke="none" d="
M 64 0
L 0 0 0 64 64 64 64 0 Z"/>
</g>
</defs>

<g transform="matrix( 1, 0, 0, 1, 0,0) ">
<g transform="matrix( 1, 0, 0, 1, 0,0) ">
<use xlink:href="#IconKey_0_Layer1_0_FILL"/>
</g>

<g transform="matrix( 1, 0, 0, 1, 0,0) ">
<use xlink:href="#IconKey_0_Layer0_0_FILL"/>
</g>
</g>
</svg>
