
<svg xmlns="http://www.w3.org/2000/svg" version="1.1" xmlns:xlink="http://www.w3.org/1999/xlink" preserveAspectRatio="none" x="0px" y="0px" width="64px" height="64px" viewBox="0 0 64 64">
<defs>
<g id="fullscreen_0_Layer1_0_FILL">
<path fill="#FFFFFF" stroke="none" d="
M 4 39
L 0 39 0 64 25 64 25 60 6 60 12 54 10 52 4 58 4 39
M 25 4
L 25 0 0 0 0 25 4 25 4 6 10 12 12 10 6 4 25 4
M 64 39
L 60 39 60 58 54 52 52 54 58 60 39 60 39 64 64 64 64 39
M 64 25
L 64 0 39 0 39 4 58 4 52 10 54 12 60 6 60 25 64 25 Z"/>
</g>

<g id="fullscreen_0_Layer0_0_FILL">
<path fill="#FFFFFF" fill-opacity="0" stroke="none" d="
M 64 0
L 0 0 0 64 64 64 64 0 Z"/>
</g>
</defs>

<g transform="matrix( 1, 0, 0, 1, 0,0) ">
<g transform="matrix( 1, 0, 0, 1, 0,0) ">
<use xlink:href="#fullscreen_0_Layer1_0_FILL"/>
</g>

<g transform="matrix( 1, 0, 0, 1, 0,0) ">
<use xlink:href="#fullscreen_0_Layer0_0_FILL"/>
</g>
</g>
</svg>
