
<svg xmlns="http://www.w3.org/2000/svg" version="1.1" xmlns:xlink="http://www.w3.org/1999/xlink" preserveAspectRatio="none" x="0px" y="0px" width="64px" height="64px" viewBox="0 0 64 64">
<defs>
<g id="passchars_0_Layer0_0_FILL">
<path fill="#FFFFFF" stroke="none" d="
M 13.1 0
Q 12.3 0 11.75 0.85
L 9.2 5.8 6.6 0.85
Q 6.15 0 5.35 0 4.8 0 4.3 0.4 3.85 0.85 3.85 1.35 3.85 1.85 4.1 2.25
L 7.2 6.95 1.5 6.8
Q 0.75 6.75 0.4 7.15 0 7.6 0 8.15 0 8.75 0.45 9.2 0.85 9.65 1.5 9.6
L 7.2 9.4 4.1 14.1
Q 3.85 14.5 3.85 14.95 3.85 15.55 4.3 15.95 4.8 16.4 5.35 16.4 6.15 16.4 6.6 15.55
L 9.2 10.55 11.75 15.45
Q 12.3 16.3 13.1 16.3 13.6 16.3 14.05 15.95 14.5 15.55 14.5 14.95 14.5 14.5 14.2 14.05
L 11.25 9.4 16.8 9.6
Q 17.55 9.65 18 9.2 18.45 8.75 18.45 8.15 18.45 7.6 18 7.15 17.55 6.75 16.8 6.8
L 11.25 6.95 14.2 2.25
Q 14.5 1.75 14.5 1.3 14.5 0.8 14.1 0.4 13.65 0 13.1 0
M 35.1 2.25
Q 35.4 1.75 35.4 1.3 35.4 0.8 35 0.4 34.55 0 34 0 33.2 0 32.7 0.85
L 30.15 5.8 27.55 0.85
Q 27.1 0 26.3 0 25.7 0 25.2 0.4 24.75 0.85 24.75 1.35 24.75 1.85 25.05 2.25
L 28.1 6.95 22.45 6.8
Q 21.7 6.75 21.3 7.15 20.9 7.6 20.9 8.15 20.9 8.75 21.35 9.2 21.75 9.65 22.45 9.6
L 28.1 9.4 25.05 14.1
Q 24.75 14.5 24.75 14.95 24.75 15.55 25.2 15.95 25.7 16.4 26.3 16.4 27.1 16.4 27.55 15.55
L 30.15 10.55 32.7 15.45
Q 33.2 16.3 34 16.3 34.5 16.3 34.95 15.95 35.4 15.55 35.4 14.95 35.4 14.5 35.1 14.05
L 32.2 9.4 37.75 9.6
Q 38.45 9.65 38.9 9.2 39.4 8.75 39.4 8.15 39.4 7.6 38.9 7.15 38.45 6.75 37.75 6.8
L 32.2 6.95 35.1 2.25
M 56.3 1.3
Q 56.3 0.8 55.95 0.4 55.45 0 54.9 0 54.1 0 53.6 0.85
L 51.05 5.8 48.45 0.85
Q 48 0 47.2 0 46.65 0 46.1 0.4 45.65 0.85 45.65 1.35 45.65 1.85 45.95 2.25
L 49 6.95 43.35 6.8
Q 42.6 6.75 42.2 7.15 41.8 7.6 41.8 8.15 41.8 8.75 42.25 9.2 42.65 9.65 43.35 9.6
L 49 9.4 45.95 14.1
Q 45.65 14.5 45.65 14.95 45.65 15.55 46.1 15.95 46.65 16.4 47.2 16.4 48 16.4 48.45 15.55
L 51.05 10.55 53.6 15.45
Q 54.1 16.3 54.9 16.3 55.4 16.3 55.85 15.95 56.3 15.55 56.3 14.95 56.3 14.5 56.05 14.05
L 53.1 9.4 58.65 9.6
Q 59.4 9.65 59.85 9.2 60.3 8.75 60.3 8.15 60.3 7.6 59.85 7.15 59.4 6.75 58.65 6.8
L 53.1 6.95 56.05 2.25
Q 56.3 1.75 56.3 1.3 Z"/>
</g>
</defs>

<g transform="matrix( 1, 0, 0, 1, 1.9,22.65) ">
<g transform="matrix( 1, 0, 0, 1, 0,0) ">
<use xlink:href="#passchars_0_Layer0_0_FILL"/>
</g>
</g>
</svg>
