
<svg xmlns="http://www.w3.org/2000/svg" version="1.1" xmlns:xlink="http://www.w3.org/1999/xlink" preserveAspectRatio="none" x="0px" y="0px" width="64px" height="64px" viewBox="0 0 64 64">
<defs>
<g id="filejs_0_Layer1_0_FILL">
<path fill="#FFFFFF" stroke="none" d="
M 44 16
L 56 16 39 0 39 11
Q 39 16 44 16
M 56 18.95
L 41.85 18.95
Q 35.95 18.95 35.95 13.05
L 35.95 0 14 0
Q 9 0 9 5
L 9 59
Q 9 64 14 64
L 51 64
Q 56 64 56 59
L 56 18.95
M 44.35 46.4
Q 44.35 44.7 42.95 43.65 41.9 42.85 39 41.55 36 40.25 34.8 39.05 33.1 37.5 33.1 35.15 33.1 32.65 34.8 31.2 36.8 29.4 40.2 29.4 44.1 29.4 45.65 29.9
L 45.3 32.65
Q 42.65 31.75 39.9 31.75 35.6 31.75 35.6 34.6 35.6 36.05 36.8 37 37.55 37.5 40.3 38.7 43.45 40.1 44.75 41.3 46.85 43.15 46.85 45.75 46.85 51.9 38.35 51.9 35.2 51.9 32.85 51.25
L 33.4 48.6
Q 36.1 49.55 38.75 49.55 44.35 49.55 44.35 46.4
M 25.25 29.8
L 28.4 29.8
Q 28.3 32.25 28.3 35.3 28.15 38.4 28.15 42.1 28.15 44.85 27.75 46.55 27.25 48.25 26.3 49.4 25.4 50.7 23.85 51.25 22.4 51.75 20.3 51.75 18.75 51.75 17.4 51.5
L 17.7 49
Q 18.85 49.55 20.05 49.55 21.45 49.55 22.65 49.15 23.7 48.75 24.35 47.95 25 47.05 25.25 45.75 25.55 44.55 25.55 42.45 25.55 34.9 25.25 29.8 Z"/>
</g>

<g id="filejs_0_Layer0_0_FILL">
<path fill="#FFFFFF" fill-opacity="0" stroke="none" d="
M 0 0
L 0 64 64 64 64 0 0 0 Z"/>
</g>
</defs>

<g transform="matrix( 1, 0, 0, 1, 0,0) ">
<g transform="matrix( 1, 0, 0, 1, 0,0) ">
<use xlink:href="#filejs_0_Layer1_0_FILL"/>
</g>

<g transform="matrix( 1, 0, 0, 1, 0,0) ">
<use xlink:href="#filejs_0_Layer0_0_FILL"/>
</g>
</g>
</svg>
