
<svg xmlns="http://www.w3.org/2000/svg" version="1.1" xmlns:xlink="http://www.w3.org/1999/xlink" preserveAspectRatio="none" x="0px" y="0px" width="32px" height="32px" viewBox="0 0 32 32">
<defs>
<g id="icon_power_0_Layer1_0_FILL">
<path fill="#FFFFFF" stroke="none" d="
M 17.4 1.2
Q 16.85 0.5 16 0.5 15.15 0.5 14.55 1.2 14.1 1.85 14.05 2.7 14 2.85 14 3
L 14 12
Q 14 13.05 14.55 13.75 15.15 14.5 16 14.5 16.85 14.5 17.4 13.75 18 13.05 18 12
L 18 3
Q 18 2.85 18 2.7 17.9 1.85 17.4 1.2
M 21.1 7.25
Q 21.15 7.35 21.25 7.45 22.25 8.05 23.1 8.9 26.05 11.85 26.05 16 26.05 20.15 23.1 23.1 21.05 25.15 18.4 25.85
L 18.4 25.8
Q 17.25 26.05 16 26.05 15.3 26.05 14.6 25.95 11.35 25.5 8.9 23.1 6 20.15 6 16 6 11.85 8.9 8.9 9.75 8.05 10.8 7.45 10.85 7.35 10.95 7.25 11 7.15 11 7
L 11 3.65
Q 11 3.5 10.9 3.35 10.8 3.2 10.65 3.2 10.45 3.15 10.3 3.2 8 4.2 6.1 6.1 2 10.2 2 16 2 21.8 6.1 25.9 9.65 29.45 14.45 29.95
L 14.5 29.95
Q 15.25 30 16 30 17.35 30 18.6 29.8 22.75 29.05 25.9 25.9 30 21.8 30 16 30 10.2 25.9 6.1 24 4.2 21.7 3.2 21.55 3.15 21.4 3.2 21.2 3.2 21.1 3.35 21 3.5 21 3.65
L 21 7
Q 21 7.15 21.1 7.25 Z"/>
</g>

<g id="icon_power_0_Layer0_0_FILL">
<path fill="#FFFFFF" fill-opacity="0" stroke="none" d="
M 0 0
L 0 32 32 32 32 0 0 0 Z"/>
</g>
</defs>

<g transform="matrix( 1, 0, 0, 1, 0,0) ">
<g transform="matrix( 1, 0, 0, 1, 0,0) ">
<use xlink:href="#icon_power_0_Layer1_0_FILL"/>
</g>

<g transform="matrix( 1, 0, 0, 1, 0,0) ">
<use xlink:href="#icon_power_0_Layer0_0_FILL"/>
</g>
</g>
</svg>
