
<svg xmlns="http://www.w3.org/2000/svg" version="1.1" xmlns:xlink="http://www.w3.org/1999/xlink" preserveAspectRatio="none" x="0px" y="0px" width="64px" height="64px" viewBox="0 0 64 64">
<defs>
<g id="file_0_Layer2_0_FILL">
<path fill="#FFFFFF" stroke="none" d="
M 56 18.95
L 41.85 18.95
Q 35.95 18.95 35.95 13.05
L 35.95 0 14 0
Q 9 0 9 5
L 9 59
Q 9 64 14 64
L 51 64
Q 56 64 56 59
L 56 18.95
M 22.8 33.1
Q 22.8 28.25 27.6 28.15
L 27.6 30.2
Q 25.1 30.25 25.1 33.3
L 25.1 37.9
Q 25.1 41.2 22.75 41.95
L 22.75 42
Q 25.1 42.7 25.1 46.05
L 25.1 50.55
Q 25.1 52.3 25.7 53.05 26.25 53.8 27.6 53.85
L 27.6 55.8
Q 22.8 55.75 22.8 50.95
L 22.8 46.25
Q 22.8 43.05 20.35 42.9
L 20.35 41.1
Q 22.8 40.95 22.8 37.7
L 22.8 33.1
M 45.8 41.1
L 45.8 42.9
Q 43.35 43.05 43.35 46.25
L 43.35 50.95
Q 43.35 55.75 38.55 55.8
L 38.55 53.85
Q 39.9 53.8 40.5 53.05 41.05 52.3 41.05 50.55
L 41.05 46.05
Q 41.05 42.7 43.4 42
L 43.4 41.95
Q 41.05 41.2 41.05 37.9
L 41.05 33.3
Q 41.05 30.25 38.55 30.2
L 38.55 28.15
Q 43.35 28.25 43.35 33.1
L 43.35 37.7
Q 43.35 40.95 45.8 41.1
M 44 16
L 56 16 39 0 39 11
Q 39 16 44 16 Z"/>
</g>

<g id="file_0_Layer0_0_FILL">
<path fill="#FFFFFF" fill-opacity="0" stroke="none" d="
M 64 0
L 0 0 0 64 64 64 64 0 Z"/>
</g>
</defs>

<g transform="matrix( 1, 0, 0, 1, 0,0) ">
<g transform="matrix( 1, 0, 0, 1, 0,0) ">
<use xlink:href="#file_0_Layer2_0_FILL"/>
</g>

<g transform="matrix( 1, 0, 0, 1, 0,0) ">
<use xlink:href="#file_0_Layer0_0_FILL"/>
</g>
</g>
</svg>
