
<svg xmlns="http://www.w3.org/2000/svg" version="1.1" xmlns:xlink="http://www.w3.org/1999/xlink" preserveAspectRatio="none" x="0px" y="0px" width="64px" height="64px" viewBox="0 0 64 64">
<defs>
<g id="file_exe_0_Layer1_0_FILL">
<path fill="#FFFFFF" stroke="none" d="
M 56 18.95
L 41.85 18.95
Q 35.95 18.95 35.95 13.05
L 35.95 0 14 0
Q 9 0 9 5
L 9 59
Q 9 64 14 64
L 51 64
Q 56 64 56 59
L 56 18.95
M 41.15 33.5
Q 42.8 31.6 45.3 31.6 47.8 31.6 49.2 33.25 50.55 34.85 50.55 37.7
L 50.55 38.8 41.55 38.8
Q 41.6 40.9 42.7 42.1 43.8 43.25 45.7 43.25 47.85 43.25 49.65 41.8
L 49.65 43.75
Q 48 44.95 45.25 44.95 42.55 44.95 41 43.2 39.45 41.5 39.45 38.35 39.45 35.35 41.15 33.5
M 14.45 38.35
Q 14.45 35.35 16.15 33.5 17.8 31.6 20.3 31.6 22.8 31.6 24.2 33.25 25.55 34.85 25.55 37.7
L 25.55 38.8 16.55 38.8
Q 16.6 40.9 17.7 42.1 18.8 43.25 20.7 43.25 22.85 43.25 24.65 41.8
L 24.65 43.75
Q 23 44.95 20.25 44.95 17.55 44.95 16 43.2 14.45 41.5 14.45 38.35
M 35.65 31.9
L 37.9 31.9 33.65 38.35 37.85 44.65 35.45 44.65 32.95 40.5
Q 32.75 40.15 32.4 39.55
L 32.35 39.55
Q 32.3 39.65 31.75 40.5
L 29.2 44.65 26.85 44.65 31.2 38.4 27.05 31.9 29.45 31.9 31.9 36.25
Q 32.15 36.75 32.45 37.25
L 32.5 37.25 35.65 31.9
M 17.85 34.35
Q 16.8 35.4 16.6 37.05
L 23.45 37.05
Q 23.45 35.3 22.6 34.3 21.75 33.35 20.3 33.35 18.85 33.35 17.85 34.35
M 48.45 37.05
Q 48.45 35.3 47.6 34.3 46.75 33.35 45.3 33.35 43.85 33.35 42.85 34.35 41.8 35.4 41.6 37.05
L 48.45 37.05
M 44 16
L 56 16 39 0 39 11
Q 39 16 44 16 Z"/>
</g>

<g id="file_exe_0_Layer0_0_FILL">
<path fill="#FFFFFF" fill-opacity="0" stroke="none" d="
M 0 0
L 0 64 64 64 64 0 0 0 Z"/>
</g>
</defs>

<g transform="matrix( 1, 0, 0, 1, 0,0) ">
<g transform="matrix( 1, 0, 0, 1, 0,0) ">
<use xlink:href="#file_exe_0_Layer1_0_FILL"/>
</g>

<g transform="matrix( 1, 0, 0, 1, 0,0) ">
<use xlink:href="#file_exe_0_Layer0_0_FILL"/>
</g>
</g>
</svg>
