
<svg xmlns="http://www.w3.org/2000/svg" version="1.1" xmlns:xlink="http://www.w3.org/1999/xlink" preserveAspectRatio="none" x="0px" y="0px" width="64px" height="64px" viewBox="0 0 64 64">
<defs>
<g id="iconPlugin_0_Layer1_0_FILL">
<path fill="#FFFFFF" stroke="none" d="
M 57.8 8.95
L 57.75 8.85
Q 57.05 7.8 56.05 6.9 54.6 5.55 52.9 4.75 50.95 3.85 49.3 4 47.65 4.6 47.35 5.4 47.05 6 47.5 7 48.2 8.6 48.25 8.75 48.5 9.8 47.95 10.7 46.8 12.4 44.95 11.8 44.35 11.6 43.8 11.25
L 43.35 10.9 32.85 0.4
Q 31.9 -0.4 31 0.4
L 20.7 10.85
Q 20.05 11.55 19.75 12.45 19.2 14.3 20.9 15.45 21.75 16.05 22.85 15.8 23 15.75 24.6 15.05 25.6 14.6 26.15 14.85 26.95 15.2 27.55 16.85 27.75 18.5 26.85 20.4 26.05 22.1 24.7 23.6 23.8 24.55 22.75 25.25
L 22.65 25.3
Q 21.3 26.4 19.85 26.95 18.25 27.55 16.85 27.4 15.2 26.8 14.85 26 14.6 25.45 15.05 24.45 15.7 22.85 15.75 22.7 16.05 21.6 15.45 20.75 14.3 19.05 12.5 19.6 11.95 19.75 11.35 20.15 10.9 20.5 10.85 20.5
L 0.6 30.75
Q -0.6 31.9 0.6 33.05
L 10.8 43.2 11.25 43.55
Q 11.85 43.95 12.4 44.15 14.25 44.7 15.35 43.05 15.9 42.3 15.75 41.45 15.7 40.85 15.25 39.95 14.8 39 14.7 38.6 14.55 37.9 15 37.35 15.5 36.8 16.75 36.35 18.4 36.2 20.3 37.1 22.05 37.85 23.5 39.25 24.55 40.2 25.2 41.2
L 25.25 41.3
Q 26.3 42.65 26.85 44.1 27.5 45.7 27.35 47.1 26.75 48.75 25.95 49.1 25.35 49.35 24.4 48.95 22.8 48.25 22.65 48.2 21.55 47.9 20.7 48.5 19.4 49.4 19.45 50.7 19.45 51.6 20.1 52.55
L 31.15 63.6
Q 32.1 64.4 33 63.6
L 33.05 63.6 43.4 53.05
Q 44.05 52.4 44.3 51.45 44.9 49.65 43.2 48.5 42.3 47.9 41.25 48.15 41.1 48.2 39.5 48.9 38.5 49.3 37.9 49.05 37.1 48.7 36.55 47.05 36.35 45.4 37.25 43.5 38 41.8 39.4 40.35 40.3 39.35 41.35 38.65
L 41.4 38.6
Q 42.8 37.55 44.25 37 45.85 36.4 47.25 36.5 48.9 37.1 49.25 37.9 49.5 38.5 49.1 39.5 48.4 41.1 48.35 41.25 48.05 42.3 48.65 43.2 49.8 44.9 51.65 44.3 52.55 44 53.25 43.4
L 63.6 33.05
Q 64.4 32.1 63.6 31.2 63.55 31.1 63.5 31.05
L 52.65 20.2
Q 52 19.25 52 18.35 51.95 17.05 53.25 16.15 54.1 15.6 55.2 15.85 55.35 15.9 56.95 16.6 57.95 17.05 58.5 16.8 59.3 16.4 59.9 14.8 60.05 13.4 59.4 11.75 58.85 10.35 57.8 8.95 Z"/>
</g>

<g id="iconPlugin_0_Layer0_0_FILL">
<path fill="#FFFFFF" fill-opacity="0" stroke="none" d="
M 64 0
L 0 0 0 64 64 64 64 0 Z"/>
</g>
</defs>

<g transform="matrix( 1, 0, 0, 1, 0,0) ">
<g transform="matrix( 1, 0, 0, 1, 0,0) ">
<use xlink:href="#iconPlugin_0_Layer1_0_FILL"/>
</g>

<g transform="matrix( 1, 0, 0, 1, 0,0) ">
<use xlink:href="#iconPlugin_0_Layer0_0_FILL"/>
</g>
</g>
</svg>
