
<svg xmlns="http://www.w3.org/2000/svg" version="1.1" xmlns:xlink="http://www.w3.org/1999/xlink" preserveAspectRatio="none" x="0px" y="0px" width="64px" height="64px" viewBox="0 0 64 64">
<defs>
<g id="iconDataset_0_Layer1_0_FILL">
<path fill="#FFFFFF" stroke="none" d="
M 54.6 31.9
Q 50.6 33.25 45.85 34 39.55 35 32 35 24.45 35 18.15 34 13.4 33.25 9.35 31.9 0.55 29.05 0.05 25
L 0 43.65
Q 0 44.35 0.3 45 1.65 48.4 9.35 50.9 18.15 53.8 30.35 54
L 33.65 54
Q 45.85 53.8 54.6 50.9 62.35 48.4 63.7 45 63.95 44.4 64 43.85
L 64 42.2
Q 64 42.05 64 41.95 64 41.35 64 40.8 64 32.9 64 25 63.45 29.05 54.6 31.9
M 63.7 23
Q 64 22.25 64 21.5 64 17.15 54.6 14.05 45.25 11 32 11 18.75 11 9.35 14.05 0 17.15 0 21.5 0 22.25 0.3 23 1.65 26.4 9.35 28.9 18.75 32 32 32 45.25 32 54.6 28.9 62.35 26.4 63.7 23 Z"/>
</g>

<g id="iconDataset_0_Layer0_0_FILL">
<path fill="#FFFFFF" fill-opacity="0" stroke="none" d="
M 64 0
L 0 0 0 64 64 64 64 0 Z"/>
</g>
</defs>

<g transform="matrix( 1, 0, 0, 1, 0,0) ">
<g transform="matrix( 1, 0, 0, 1, 0,0) ">
<use xlink:href="#iconDataset_0_Layer1_0_FILL"/>
</g>

<g transform="matrix( 1, 0, 0, 1, 0,0) ">
<use xlink:href="#iconDataset_0_Layer0_0_FILL"/>
</g>
</g>
</svg>
