
<svg xmlns="http://www.w3.org/2000/svg" version="1.1" xmlns:xlink="http://www.w3.org/1999/xlink" preserveAspectRatio="none" x="0px" y="0px" width="32px" height="32px" viewBox="0 0 32 32">
<defs>
<g id="iconMarket_0_Layer1_0_FILL">
<path fill="#FFFFFF" fill-opacity="0" stroke="none" d="
M 32 0
L 0 0 0 32 32 32 32 0 Z"/>
</g>

<g id="iconMarket_0_Layer0_0_FILL">
<path fill="#FFFFFF" stroke="none" d="
M 31.55 11.65
Q 31.55 11.5 31.55 11.4
L 27.9 0.35
Q 27.85 0.2 27.7 0.1 27.55 0 27.4 0
L 19.8 0
Q 19.7 0 19.65 0
L 4.35 0
Q 4.2 0 4.05 0.1 3.9 0.2 3.9 0.35
L 0.2 11.4
Q 0.15 11.55 0.15 11.65 0 11.8 0 12
L 0 15.85
Q 0 16 0.1 16.15 0.4 16.55 0.8 17
L 0.85 17.05
Q 1.55 17.55 2.45 17.75 2.5 17.75 2.55 17.75
L 2.55 31.2
Q 2.55 31.4 2.7 31.55 2.85 31.7 3.05 31.7
L 28.65 31.7
Q 28.85 31.7 29 31.55 29.15 31.4 29.15 31.2
L 29.15 17.95
Q 29.2 17.95 29.25 17.95 30.2 17.75 30.95 17 31 17 31 16.95 31.3 16.55 31.6 16.15 31.7 16 31.7 15.85
L 31.7 12
Q 31.7 11.8 31.55 11.65
M 20.3 1
L 23.15 1 25.5 11.5 21.45 11.5 21.45 11.45 20.3 1
M 26.6 11.5
Q 26.55 11.5 26.5 11.5 26.5 11.45 26.5 11.4
L 24.2 1 27.05 1 30.5 11.5 26.6 11.5
M 27.2 16.3
L 27.15 16.3
Q 26.85 16 26.6 15.7
L 26.6 12.5 30.7 12.5 30.7 15.7
Q 30.45 16 30.2 16.35 29.7 16.85 29.05 16.95 28.95 16.95 28.9 17.05 28.8 16.95 28.65 16.95 28.55 16.95 28.45 17 28.35 16.95 28.25 16.9 27.6 16.8 27.2 16.3
M 25.7 16.95
Q 25.9 16.8 26.1 16.65 26.25 16.8 26.45 17 27.1 17.7 28.05 17.9 28.1 17.9 28.15 17.9
L 28.15 30.7 13.8 30.7 13.8 21
Q 13.8 20.8 13.65 20.65 13.5 20.5 13.3 20.5
L 6.9 20.5
Q 6.7 20.5 6.55 20.65 6.4 20.8 6.4 21
L 6.4 30.7 3.55 30.7 3.55 17.7
Q 3.6 17.7 3.7 17.7 4.1 17.55 4.5 17.35
L 4.45 17.35
Q 5.1 16.95 5.6 16.55 6.1 17 6.65 17.5 7.75 18.4 9 17.8 9.7 17.45 10.35 16.95
L 10.4 16.95
Q 10.55 16.8 10.7 16.65 11.4 17.4 12.45 17.85 12.5 17.9 12.55 17.9 13.7 18.15 14.8 17.35 15.35 17 15.85 16.55 16.6 17.25 17.7 17.7 18.95 18.05 19.95 17.35 20.45 17 20.95 16.6 21.7 17.4 22.85 17.7
L 22.8 17.7
Q 23.55 17.95 24.3 17.7
L 24.25 17.7
Q 25 17.45 25.7 16.95
M 25.6 12.5
L 25.6 15.7
Q 25.4 15.95 25.1 16.15 24.6 16.55 24 16.75
L 23.95 16.75
Q 23.55 16.85 23.1 16.75 22.1 16.5 21.5 15.7
L 21.5 12.5 25.6 12.5
M 20.5 12.5
L 20.5 15.65
Q 19.95 16.1 19.35 16.55
L 19.4 16.55
Q 18.75 16.95 18 16.75
L 18.05 16.75
Q 17.05 16.35 16.35 15.65
L 16.35 12.5 20.5 12.5
M 16.35 1
L 19.25 1 20.45 11.5 16.35 11.5 16.35 1
M 10.3 11.45
L 10.3 11.5 6.25 11.5 8.6 1 11.45 1 10.3 11.45
M 15.35 11.5
L 11.3 11.5 12.45 1 15.35 1 15.35 11.5
M 5.2 11.5
Q 5.15 11.5 5.1 11.5
L 1.2 11.5 4.7 1 7.6 1 5.2 11.45 5.2 11.5
M 7.3 16.75
Q 6.65 16.2 6.1 15.65
L 6.1 12.5 10.25 12.5 10.25 15.65
Q 10 15.95 9.75 16.15
L 9.75 16.2
Q 9.15 16.6 8.55 16.9 7.85 17.2 7.3 16.75
M 5.1 12.5
L 5.1 15.65
Q 4.6 16.1 3.95 16.5 3.7 16.65 3.45 16.75 3.35 16.75 3.25 16.8 3.15 16.75 3.05 16.75 2.9 16.75 2.8 16.85 2.75 16.75 2.65 16.75 2 16.65 1.5 16.3
L 1.45 16.25
Q 1.2 15.95 1 15.7
L 1 12.5 5.1 12.5
M 15.35 12.5
L 15.35 15.65
Q 14.8 16.1 14.2 16.55 13.5 17.05 12.75 16.9 11.8 16.5 11.25 15.7
L 11.25 12.5 15.35 12.5
M 7.4 21.5
L 12.8 21.5 12.8 30.7 7.4 30.7 7.4 21.5
M 25.3 21
Q 25.3 20.8 25.15 20.65 25 20.5 24.8 20.5
L 17.15 20.5
Q 16.95 20.5 16.8 20.65 16.65 20.8 16.65 21
L 16.65 26.1
Q 16.65 26.3 16.8 26.45 16.95 26.6 17.15 26.6
L 24.8 26.6
Q 25 26.6 25.15 26.45 25.3 26.3 25.3 26.1
L 25.3 21
M 24.3 21.5
L 24.3 25.6 17.65 25.6 17.65 21.5 24.3 21.5 Z"/>
</g>
</defs>

<g transform="matrix( 1, 0, 0, 1, 0.1,0.1) ">
<g transform="matrix( 1, 0, 0, 1, 0,0) ">
<use xlink:href="#iconMarket_0_Layer1_0_FILL"/>
</g>

<g transform="matrix( 1, 0, 0, 1, 0,0) ">
<use xlink:href="#iconMarket_0_Layer0_0_FILL"/>
</g>
</g>
</svg>
