
<svg xmlns="http://www.w3.org/2000/svg" version="1.1" xmlns:xlink="http://www.w3.org/1999/xlink" preserveAspectRatio="none" x="0px" y="0px" width="64px" height="64px" viewBox="0 0 64 64">
<defs>
<g id="filecss_0_Layer2_0_FILL">
<path fill="#FFFFFF" stroke="none" d="
M 44 16
L 56 16 39 0 39 11
Q 39 16 44 16
M 56 18.95
L 41.85 18.95
Q 35.95 18.95 35.95 13.05
L 35.95 0 14 0
Q 9 0 9 5
L 9 59
Q 9 64 14 64
L 51 64
Q 56 64 56 59
L 56 18.95
M 45.95 29.85
Q 48.25 29.85 49.25 30.4
L 49.25 32.4
Q 47.9 31.5 45.75 31.5 45.15 31.5 44.55 31.6 44 31.7 43.5 32 43.05 32.3 42.75 32.75 42.45 33.15 42.45 33.8 42.45 34.4 42.7 34.85 42.9 35.25 43.35 35.6 43.8 35.95 44.4 36.3 45 36.65 45.8 37.05 46.65 37.45 47.4 37.9 48.15 38.35 48.7 38.9 49.25 39.45 49.6 40.1 49.9 40.8 49.9 41.65 49.9 42.8 49.5 43.6 49 44.4 48.25 44.85 47.5 45.35 46.5 45.6 45.5 45.8 44.4 45.8 44.05 45.8 43.5 45.75 43 45.7 42.4 45.6 41.85 45.45 41.35 45.3 40.85 45.15 40.55 44.9
L 40.55 42.8
Q 40.9 43.1 41.45 43.35 41.95 43.65 42.5 43.8 43.1 44 43.65 44.1 44.2 44.2 44.7 44.2 46.35 44.2 47.2 43.55 48 42.95 48 41.8 48 41.15 47.75 40.7 47.45 40.25 47 39.85 46.5 39.45 45.85 39.1 45.2 38.75 44.4 38.35 43.6 37.95 42.9 37.55 42.2 37.1 41.7 36.6 41.15 36.1 40.9 35.45 40.6 34.85 40.6 33.95 40.6 32.9 41.05 32.15 41.5 31.35 42.25 30.85 43 30.35 44 30.1 44.95 29.85 45.95 29.85
M 16.75 38
Q 16.75 40.85 18.3 42.5 19.85 44.2 22.35 44.2 24.7 44.2 26.4 43.15
L 26.4 44.9
Q 24.7 45.8 22.15 45.8 18.85 45.8 16.85 43.7 14.85 41.55 14.85 38.1 14.85 34.4 17.1 32.1 19.3 29.85 22.75 29.85 24.95 29.85 26.4 30.45
L 26.4 32.4
Q 24.75 31.5 22.75 31.5 20.05 31.5 18.4 33.25 16.75 35.05 16.75 38
M 30.5 30.85
Q 31.25 30.35 32.25 30.1 33.2 29.85 34.2 29.85 36.5 29.85 37.5 30.4
L 37.5 32.4
Q 36.15 31.5 34 31.5 33.4 31.5 32.8 31.6 32.25 31.7 31.75 32 31.3 32.3 31 32.75 30.7 33.15 30.7 33.8 30.7 34.4 30.95 34.85 31.15 35.25 31.6 35.6 32.05 35.95 32.65 36.3 33.25 36.65 34.05 37.05 34.9 37.45 35.65 37.9 36.4 38.35 36.95 38.9 37.5 39.45 37.85 40.1 38.15 40.8 38.15 41.65 38.15 42.8 37.75 43.6 37.25 44.4 36.5 44.85 35.75 45.35 34.75 45.6 33.75 45.8 32.65 45.8 32.3 45.8 31.75 45.75 31.25 45.7 30.65 45.6 30.1 45.45 29.6 45.3 29.1 45.15 28.8 44.9
L 28.8 42.8
Q 29.15 43.1 29.7 43.35 30.2 43.65 30.75 43.8 31.35 44 31.9 44.1 32.45 44.2 32.95 44.2 34.6 44.2 35.45 43.55 36.25 42.95 36.25 41.8 36.25 41.15 36 40.7 35.7 40.25 35.25 39.85 34.75 39.45 34.1 39.1 33.45 38.75 32.65 38.35 31.85 37.95 31.15 37.55 30.45 37.1 29.95 36.6 29.4 36.1 29.15 35.45 28.85 34.85 28.85 33.95 28.85 32.9 29.3 32.15 29.75 31.35 30.5 30.85 Z"/>
</g>

<g id="filecss_0_Layer0_0_FILL">
<path fill="#FFFFFF" fill-opacity="0" stroke="none" d="
M 0 0
L 0 64 64 64 64 0 0 0 Z"/>
</g>
</defs>

<g transform="matrix( 1, 0, 0, 1, 0,0) ">
<g transform="matrix( 1, 0, 0, 1, 0,0) ">
<use xlink:href="#filecss_0_Layer2_0_FILL"/>
</g>

<g transform="matrix( 1, 0, 0, 1, 0,0) ">
<use xlink:href="#filecss_0_Layer0_0_FILL"/>
</g>
</g>
</svg>
