
<svg xmlns="http://www.w3.org/2000/svg" version="1.1" xmlns:xlink="http://www.w3.org/1999/xlink" preserveAspectRatio="none" x="0px" y="0px" width="64px" height="64px" viewBox="0 0 64 64">
<defs>
<g id="preview_0_Layer1_0_FILL">
<path fill="#FFFFFF" stroke="none" d="
M 31.1 15
Q 31.05 15 31 15 11.15 14.9 0 31 11.15 47.1 31 47 31.05 47 31.1 47 32.05 47 33 47 52.85 46.95 64 31 52.85 15.05 33 15 32.05 15 31.1 15
M 51.05 23.7
L 54.05 25.7
Q 54.1 36.75 40.05 42.7 52.4 35.15 51.05 23.7
M 32 21
Q 35.75 21 38.35 23.6 41 26.25 41 30 41 33.75 38.35 36.35 35.75 39 32 39 28.25 39 25.6 36.35 23 33.75 23 30 23 26.25 25.6 23.6 28.25 21 32 21
M 12 24
Q 10.65 35.45 23 43 8.95 37.05 9 26
L 12 24 Z"/>
</g>

<g id="preview_0_Layer0_0_FILL">
<path fill="#FFFFFF" fill-opacity="0" stroke="none" d="
M 64 0
L 0 0 0 64 64 64 64 0 Z"/>
</g>
</defs>

<g transform="matrix( 1, 0, 0, 1, 0,0) ">
<g transform="matrix( 1, 0, 0, 1, 0,0) ">
<use xlink:href="#preview_0_Layer1_0_FILL"/>
</g>

<g transform="matrix( 1, 0, 0, 1, 0,0) ">
<use xlink:href="#preview_0_Layer0_0_FILL"/>
</g>
</g>
</svg>
