
<svg xmlns="http://www.w3.org/2000/svg" version="1.1" xmlns:xlink="http://www.w3.org/1999/xlink" preserveAspectRatio="none" x="0px" y="0px" width="64px" height="64px" viewBox="0 0 64 64">
<defs>
<g id="iconDots_0_Layer1_0_FILL">
<path fill="#FFFFFF" stroke="none" d="
M 36.9 36.25
Q 39 34.3 39 31.35 39 28.5 36.9 26.35 34.9 24.35 32 24.35 29.05 24.35 27 26.35 25 28.5 25 31.35 25 34.3 27 36.25 29.05 38.35 32 38.35 34.9 38.35 36.9 36.25
M 2.2 26.35
Q 0.2 28.5 0.2 31.35 0.2 34.3 2.2 36.25 4.25 38.35 7.2 38.35 10.1 38.35 12.1 36.25 14.2 34.3 14.2 31.35 14.2 28.5 12.1 26.35 10.1 24.35 7.2 24.35 4.25 24.35 2.2 26.35
M 61.8 36.25
Q 63.9 34.3 63.9 31.35 63.9 28.5 61.8 26.35 59.8 24.35 56.9 24.35 53.95 24.35 51.9 26.35 49.9 28.5 49.9 31.35 49.9 34.3 51.9 36.25 53.95 38.35 56.9 38.35 59.8 38.35 61.8 36.25 Z"/>
</g>

<g id="iconDots_0_Layer0_0_FILL">
<path fill="#FFFFFF" fill-opacity="0" stroke="none" d="
M 64 0
L 0 0 0 64 64 64 64 0 Z"/>
</g>
</defs>

<g transform="matrix( 1, 0, 0, 1, 0,0) ">
<g transform="matrix( 1, 0, 0, 1, 0,0) ">
<use xlink:href="#iconDots_0_Layer1_0_FILL"/>
</g>

<g transform="matrix( 1, 0, 0, 1, 0,0) ">
<use xlink:href="#iconDots_0_Layer0_0_FILL"/>
</g>
</g>
</svg>
