
<svg xmlns="http://www.w3.org/2000/svg" version="1.1" xmlns:xlink="http://www.w3.org/1999/xlink" preserveAspectRatio="none" x="0px" y="0px" width="64px" height="64px" viewBox="0 0 64 64">
<defs>
<g id="iconGlobe_0_Layer0_0_FILL">
<path fill="#FFFFFF" fill-opacity="0" stroke="none" d="
M 0 0
L 0 5 5 5 5 0 0 0 Z"/>
</g>

<path id="iconGlobe_0_Layer0_0_1_STROKES" stroke="#FFFFFF" stroke-width="2" stroke-linejoin="round" stroke-linecap="round" fill="none" d="
M 51.05 10.8
Q 51.05 10.6 51.05 10.4 50.9 10.3 50.8 10.2
M 51.95 10.85
Q 51.95 11.05 51.95 11.25 51.9 11.4 51.9 11.6 51.35 14.2 47.35 16.25 47.4 16.3 47.45 16.4 51.55 22.35 52.15 30.15 57.85 26.45 58.6 21.75 58.65 21.25 58.65 20.85 58.55 20.65 58.5 20.5
M 47.35 16.25
Q 47.15 16.3 47 16.4 46.5 16.6 46 16.8 43 18.1 39.3 18.7 39.1 18.75 38.9 18.8 41.5 26.6 41.35 34.35 46.35 33.25 50.5 30.95 51.15 30.65 51.9 30.3 52 30.2 52.15 30.15 52.25 31.3 52.25 32.5 52.3 39.85 48.9 45.85 50.55 44.9 52.15 43.7 52.9 43.2 53.6 42.7 59.8 37.45 60.6 30.65 60.65 29.7 60.65 28.9
M 41.35 34.35
L 41.3 34.35
Q 37.05 35.35 32.35 35.4 32.1 35.4 31.9 35.4
L 31.9 49.95
Q 32.6 49.95 33.3 49.95 35.85 49.9 38.25 49.5 41.15 41.95 41.35 34.35 Z
M 35.95 58.1
Q 44.8 52.9 48.9 45.85 45.9 47.5 42.6 48.5 40.5 49.15 38.25 49.5 36.6 53.8 34.05 58.1
M 32.5 5.3
Q 36.6 12.1 38.85 18.7 38.85 18.75 38.9 18.8 36 19.25 32.8 19.3 32.35 19.3 31.9 19.3
L 31.9 35.4
Q 31.35 35.4 30.8 35.4 26.5 35.4 22.75 34.8 22.65 34.8 22.55 34.75 22.75 42.15 25.6 49.55 28.5 49.95 31.7 49.95 31.8 49.95 31.9 49.95
L 31.9 60.1
M 31.3 4.75
Q 21.45 9.35 16.65 16.5 17 16.65 17.35 16.8 20.75 18.2 25 18.85 27.25 12.1 31.6 5.3 31.7 5.15 31.85 5
M 16.65 16.5
Q 16.55 16.65 16.45 16.8 12.3 23.15 11.95 31.4 16.7 33.75 22.55 34.75 22.3 26.9 24.95 18.95 24.95 18.9 25 18.85 25.4 18.9 25.85 18.95 28.6 19.3 31.7 19.3 31.8 19.3 31.9 19.3
L 31.9 5.45
M 10.9 12.5
Q 10.8 12.3 10.75 12.1 10.55 11.45 10.55 10.85
M 16.65 16.5
Q 13 14.85 11.95 12.75
M 11.05 12.75
Q 10.95 12.6 10.9 12.5
M 11.95 31.4
Q 11.9 31.95 11.9 32.5 11.85 40.15 15.6 46.4 19.2 48.2 23.35 49.1 24.45 49.35 25.6 49.55 27.55 54.5 30.65 59.45 20.25 54 15.6 46.4 13.3 45.2 11.2 43.7 5.1 39.3 3.3 33.55
M 31.9 60.1
L 31.9 60.5
M 11.95 31.4
Q 11.5 31.2 11.05 30.95 5.9 28.3 4.1 24.8 3.85 24.3 3.65 23.75
M 34.15 5.3
Q 42.8 9.7 47.35 16.25"/>

<path id="iconGlobe_0_Layer0_0_2_STROKES" stroke="#FFFFFF" stroke-width="5" stroke-linejoin="round" stroke-linecap="round" fill="none" d="
M 51.05 10.4
Q 51.15 10.5 51.25 10.6 51.6 10.95 51.95 11.25
M 58.5 20.5
Q 56.35 15.65 52.35 11.65 52.2 11.5 52.1 11.4 52 11.35 51.95 11.25
M 58.65 20.85
Q 60.25 24.65 60.65 28.9 60.8 30.4 60.8 32 60.8 43.9 52.35 52.35 44.55 60.2 33.8 60.75 33.25 60.8 32.8 60.8 32.75 60.8 32.7 60.8
M 10.9 12.5
Q 11.15 12.2 11.45 11.9 11.55 11.75 11.65 11.65 20.1 3.25 32 3.25 32.25 3.25 32.5 3.25 33 3.25 33.5 3.3 43.4 3.75 50.8 10.2
M 32.7 60.8
Q 32.6 60.8 32.5 60.8 32.45 60.8 32.4 60.8 32.25 60.8 32.1 60.8
M 4.1 24.8
Q 5.8 17.95 10.85 12.55 10.85 12.5 10.9 12.5
M 3.3 33.55
Q 3.8 44.45 11.65 52.35 20.05 60.75 31.9 60.8 31.95 60.8 32 60.8 32.05 60.8 32.1 60.8
M 4.1 24.8
Q 3.25 28.2 3.25 32 3.25 32.8 3.3 33.55"/>

<path id="iconGlobe_0_Layer0_0_3_STROKES" stroke="#FFFFFF" stroke-width="3" stroke-linejoin="round" stroke-linecap="round" fill="none" d="
M 33.5 61.5
Q 33.1 61.15 32.7 60.8
M 32.5 3.5
L 32.5 4.4
Q 33 3.95 33.5 3.55 33 4.2 32.5 4.85
L 32.5 4.9
Q 32.6 4.9 32.75 5 33.05 5.15 33.4 5.3 33.25 5.1 33.1 4.85
M 32 4.65
Q 32.05 4.65 32.2 4.75 32.3 4.8 32.5 4.85
L 32.5 4.4
Q 32.25 4.5 32 4.65 31.75 4.5 31.5 4.4
M 32.5 4.9
L 32.5 5.3
M 31.9 60.1
Q 32.15 60.3 32.4 60.5 32.55 60.65 32.7 60.8
M 32.5 61.5
Q 32.3 61.15 32.1 60.8 32 60.65 31.9 60.5 31.55 60 31.25 59.45 31.55 59.75 31.9 60.1
M 32.8 59.45
Q 34.05 58.8 35.2 58.1 34.5 59.3 33.75 60.45"/>
</defs>

<g transform="matrix( 1, 0, 0, 1, 0,0) ">
<g transform="matrix( 1, 0, 0, 1, 0,0) ">
<use xlink:href="#iconGlobe_0_Layer0_0_FILL"/>

<use xlink:href="#iconGlobe_0_Layer0_0_1_STROKES"/>

<use xlink:href="#iconGlobe_0_Layer0_0_2_STROKES"/>

<use xlink:href="#iconGlobe_0_Layer0_0_3_STROKES"/>
</g>
</g>
</svg>
