
<svg xmlns="http://www.w3.org/2000/svg" version="1.1" xmlns:xlink="http://www.w3.org/1999/xlink" preserveAspectRatio="none" x="0px" y="0px" width="64px" height="64px" viewBox="0 0 64 64">
<defs>
<g id="iconList_0_Layer1_0_FILL">
<path fill="#FFFFFF" stroke="none" d="
M 64 47
Q 64 43 60 43
L 4 43
Q 0 43 0 47
L 0 56
Q 0 60 4 60
L 60 60
Q 64 60 64 56
L 64 47
M 15 46
Q 18 46 18 49
L 18 54
Q 18 57 15 57
L 6 57
Q 3 57 3 54
L 3 49
Q 3 46 6 46
L 15 46
M 64 36
L 64 27
Q 64 23 60 23
L 4 23
Q 0 23 0 27
L 0 36
Q 0 40 4 40
L 60 40
Q 64 40 64 36
M 49 26
L 58 26
Q 61 26 61 29
L 61 34
Q 61 37 58 37
L 49 37
Q 46 37 46 34
L 46 29
Q 46 26 49 26
M 64 16
L 64 7
Q 64 3 60 3
L 4 3
Q 0 3 0 7
L 0 16
Q 0 20 4 20
L 60 20
Q 64 20 64 16
M 15 6
Q 18 6 18 9
L 18 14
Q 18 17 15 17
L 6 17
Q 3 17 3 14
L 3 9
Q 3 6 6 6
L 15 6 Z"/>
</g>

<g id="iconList_0_Layer0_0_FILL">
<path fill="#FFFFFF" fill-opacity="0" stroke="none" d="
M 64 0
L 0 0 0 64 64 64 64 0 Z"/>
</g>
</defs>

<g transform="matrix( 1, 0, 0, 1, 0,0) ">
<g transform="matrix( 1, 0, 0, 1, 0,0) ">
<use xlink:href="#iconList_0_Layer1_0_FILL"/>
</g>

<g transform="matrix( 1, 0, 0, 1, 0,0) ">
<use xlink:href="#iconList_0_Layer0_0_FILL"/>
</g>
</g>
</svg>
