
<svg xmlns="http://www.w3.org/2000/svg" version="1.1" xmlns:xlink="http://www.w3.org/1999/xlink" preserveAspectRatio="none" x="0px" y="0px" width="64px" height="64px" viewBox="0 0 64 64">
<defs>
<g id="partial_0_Layer1_0_FILL">
<path fill="#FFFFFF" stroke="none" d="
M 44 16
L 56 16 39 0 39 11
Q 39 16 44 16
M 56 18.95
L 41.85 18.95
Q 35.95 18.95 35.95 13.05
L 35.95 0 14 0
Q 9 0 9 5
L 9 59
Q 9 64 14 64
L 51 64
Q 56 64 56 59
L 56 18.95
M 14.75 30.05
Q 14.75 26.05 18.75 26.05
L 24.45 26.05
Q 28.45 26.05 28.45 30.05
L 28.45 50.6
Q 28.45 54.6 24.45 54.6
L 18.75 54.6
Q 14.75 54.6 14.75 50.6
L 14.75 30.05 Z"/>
</g>

<g id="partial_0_Layer0_0_FILL">
<path fill="#FFFFFF" fill-opacity="0" stroke="none" d="
M 0 0
L 0 64 64 64 64 0 0 0 Z"/>
</g>
</defs>

<g transform="matrix( 1, 0, 0, 1, 0,0) ">
<g transform="matrix( 1, 0, 0, 1, 0,0) ">
<use xlink:href="#partial_0_Layer1_0_FILL"/>
</g>

<g transform="matrix( 1, 0, 0, 1, 0,0) ">
<use xlink:href="#partial_0_Layer0_0_FILL"/>
</g>
</g>
</svg>
