<svg xmlns="http://www.w3.org/2000/svg">


<style type="text/css">
    path:not(.svg-nocolor){fill:currentColor}
    use:not(.svg-nocolor):visited{color:currentColor}
    use:not(.svg-nocolor):hover{color:currentColor}
    use:not(.svg-nocolor):active{color:currentColor}
</style>


<defs>
<g id="icon_0_Layer1_0_FILL">
<path fill="#FFFFFF" fill-opacity="0.9882352941176471" stroke="none" d="
M 32 4.2
L 27.65 0 15.85 11.8 4.2 0.15 0 4.35 11.65 16 0 27.65 4.2 31.85 15.85 20.2 27.65 32 31.85 27.8 20.2 16.15 32 4.2 Z"/>
</g>

<g id="icon_0_Layer0_0_FILL">
<path fill="#FFFFFF" fill-opacity="0" stroke="none" d="
M 32 0
L 0 0 0 32 32 32 32 0 Z"/>
</g>

<g id="icon_cycle_0_Layer1_0_FILL">
<path fill="#FFFFFF" fill-opacity="0" stroke="none" d="
M 25 0
L 0 0 0 25 25 25 25 0 Z"/>
</g>

<g id="icon_cycle_0_Layer0_0_FILL">
<path fill="#FFFFFF" stroke="none" d="
M 0.05 23
L 2.15 20.9 3.1 20 5 18.15 0 18 0.05 23 Z"/>

<path fill="#FFFFFF" fill-opacity="0.9882352941176471" stroke="none" d="
M 10.55 2
Q 14.85 2 17.9 5.05 21 8.1 21 12.5 21 16.9 17.9 19.95 14.85 23.05 10.55 23.05 6.2 23.05 3.1 20
L 2.15 20.9 1.7 21.4
Q 5.4 25 10.55 25 15.65 25 19.3 21.35 23 17.7 23 12.5 23 7.3 19.3 3.65 15.65 0 10.55 0 5.35 0 1.7 3.65
L 3.1 5.05
Q 6.15 2 10.55 2 Z"/>
</g>

<g id="filecss_0_Layer2_0_FILL">
<path fill="#FFFFFF" stroke="none" d="
M 44 16
L 56 16 39 0 39 11
Q 39 16 44 16
M 56 18.95
L 41.85 18.95
Q 35.95 18.95 35.95 13.05
L 35.95 0 14 0
Q 9 0 9 5
L 9 59
Q 9 64 14 64
L 51 64
Q 56 64 56 59
L 56 18.95
M 45.95 29.85
Q 48.25 29.85 49.25 30.4
L 49.25 32.4
Q 47.9 31.5 45.75 31.5 45.15 31.5 44.55 31.6 44 31.7 43.5 32 43.05 32.3 42.75 32.75 42.45 33.15 42.45 33.8 42.45 34.4 42.7 34.85 42.9 35.25 43.35 35.6 43.8 35.95 44.4 36.3 45 36.65 45.8 37.05 46.65 37.45 47.4 37.9 48.15 38.35 48.7 38.9 49.25 39.45 49.6 40.1 49.9 40.8 49.9 41.65 49.9 42.8 49.5 43.6 49 44.4 48.25 44.85 47.5 45.35 46.5 45.6 45.5 45.8 44.4 45.8 44.05 45.8 43.5 45.75 43 45.7 42.4 45.6 41.85 45.45 41.35 45.3 40.85 45.15 40.55 44.9
L 40.55 42.8
Q 40.9 43.1 41.45 43.35 41.95 43.65 42.5 43.8 43.1 44 43.65 44.1 44.2 44.2 44.7 44.2 46.35 44.2 47.2 43.55 48 42.95 48 41.8 48 41.15 47.75 40.7 47.45 40.25 47 39.85 46.5 39.45 45.85 39.1 45.2 38.75 44.4 38.35 43.6 37.95 42.9 37.55 42.2 37.1 41.7 36.6 41.15 36.1 40.9 35.45 40.6 34.85 40.6 33.95 40.6 32.9 41.05 32.15 41.5 31.35 42.25 30.85 43 30.35 44 30.1 44.95 29.85 45.95 29.85
M 16.75 38
Q 16.75 40.85 18.3 42.5 19.85 44.2 22.35 44.2 24.7 44.2 26.4 43.15
L 26.4 44.9
Q 24.7 45.8 22.15 45.8 18.85 45.8 16.85 43.7 14.85 41.55 14.85 38.1 14.85 34.4 17.1 32.1 19.3 29.85 22.75 29.85 24.95 29.85 26.4 30.45
L 26.4 32.4
Q 24.75 31.5 22.75 31.5 20.05 31.5 18.4 33.25 16.75 35.05 16.75 38
M 30.5 30.85
Q 31.25 30.35 32.25 30.1 33.2 29.85 34.2 29.85 36.5 29.85 37.5 30.4
L 37.5 32.4
Q 36.15 31.5 34 31.5 33.4 31.5 32.8 31.6 32.25 31.7 31.75 32 31.3 32.3 31 32.75 30.7 33.15 30.7 33.8 30.7 34.4 30.95 34.85 31.15 35.25 31.6 35.6 32.05 35.95 32.65 36.3 33.25 36.65 34.05 37.05 34.9 37.45 35.65 37.9 36.4 38.35 36.95 38.9 37.5 39.45 37.85 40.1 38.15 40.8 38.15 41.65 38.15 42.8 37.75 43.6 37.25 44.4 36.5 44.85 35.75 45.35 34.75 45.6 33.75 45.8 32.65 45.8 32.3 45.8 31.75 45.75 31.25 45.7 30.65 45.6 30.1 45.45 29.6 45.3 29.1 45.15 28.8 44.9
L 28.8 42.8
Q 29.15 43.1 29.7 43.35 30.2 43.65 30.75 43.8 31.35 44 31.9 44.1 32.45 44.2 32.95 44.2 34.6 44.2 35.45 43.55 36.25 42.95 36.25 41.8 36.25 41.15 36 40.7 35.7 40.25 35.25 39.85 34.75 39.45 34.1 39.1 33.45 38.75 32.65 38.35 31.85 37.95 31.15 37.55 30.45 37.1 29.95 36.6 29.4 36.1 29.15 35.45 28.85 34.85 28.85 33.95 28.85 32.9 29.3 32.15 29.75 31.35 30.5 30.85 Z"/>
</g>

<g id="filecss_0_Layer0_0_FILL">
<path fill="#FFFFFF" fill-opacity="0" stroke="none" d="
M 0 0
L 0 64 64 64 64 0 0 0 Z"/>
</g>

<g id="filehtml_0_Layer2_0_FILL">
<path fill="#FFFFFF" stroke="none" d="
M 56 18.95
L 41.85 18.95
Q 35.95 18.95 35.95 13.05
L 35.95 0 14 0
Q 9 0 9 5
L 9 59
Q 9 64 14 64
L 51 64
Q 56 64 56 59
L 56 18.95
M 50.65 40
L 50.65 40.95 37.15 47.75 37.15 45.4 47.25 40.5 47.25 40.4 37.15 34.8 37.15 32.45 50.65 40
M 17.5 40.4
L 17.5 40.45 27.6 45.4 27.6 47.75 14.1 40.95 14.1 40 27.6 32.45 27.6 34.8 17.5 40.4
M 44 16
L 56 16 39 0 39 11
Q 39 16 44 16 Z"/>
</g>

<g id="filehtml_0_Layer0_0_FILL">
<path fill="#FFFFFF" fill-opacity="0" stroke="none" d="
M 0 0
L 0 64 64 64 64 0 0 0 Z"/>
</g>

<g id="filejs_0_Layer2_0_FILL">
<path fill="#FFFFFF" stroke="none" d="
M 44 16
L 56 16 39 0 39 11
Q 39 16 44 16
M 56 18.95
L 41.85 18.95
Q 35.95 18.95 35.95 13.05
L 35.95 0 14 0
Q 9 0 9 5
L 9 59
Q 9 64 14 64
L 51 64
Q 56 64 56 59
L 56 18.95
M 45.8 41.1
L 45.8 42.9
Q 43.35 43.05 43.35 46.25
L 43.35 50.95
Q 43.35 55.75 38.55 55.8
L 38.55 53.85
Q 39.9 53.8 40.5 53.05 41.05 52.3 41.05 50.55
L 41.05 46.05
Q 41.05 42.7 43.4 42
L 43.4 41.95
Q 41.05 41.2 41.05 37.9
L 41.05 33.3
Q 41.05 30.25 38.55 30.2
L 38.55 28.15
Q 43.35 28.25 43.35 33.1
L 43.35 37.7
Q 43.35 40.95 45.8 41.1
M 22.8 33.1
Q 22.8 28.25 27.6 28.15
L 27.6 30.2
Q 25.1 30.25 25.1 33.3
L 25.1 37.9
Q 25.1 41.2 22.75 41.95
L 22.75 42
Q 25.1 42.7 25.1 46.05
L 25.1 50.55
Q 25.1 52.3 25.7 53.05 26.25 53.8 27.6 53.85
L 27.6 55.8
Q 22.8 55.75 22.8 50.95
L 22.8 46.25
Q 22.8 43.05 20.35 42.9
L 20.35 41.1
Q 22.8 40.95 22.8 37.7
L 22.8 33.1 Z"/>
</g>

<g id="filejs_0_Layer0_0_FILL">
<path fill="#FFFFFF" fill-opacity="0" stroke="none" d="
M 0 0
L 0 64 64 64 64 0 0 0 Z"/>
</g>

<g id="fileless_0_Layer2_0_FILL">
<path fill="#FFFFFF" stroke="none" d="
M 44 16
L 56 16 39 0 39 11
Q 39 16 44 16
M 56 18.95
L 41.85 18.95
Q 35.95 18.95 35.95 13.05
L 35.95 0 14 0
Q 9 0 9 5
L 9 59
Q 9 64 14 64
L 51 64
Q 56 64 56 59
L 56 18.95
M 51.7 33.9
L 51.7 35.75
Q 50.45 34.9 48.5 34.9 48 34.9 47.45 35 46.9 35.15 46.5 35.4 46.05 35.65 45.8 36.05 45.55 36.45 45.55 37 45.55 37.55 45.75 37.95 45.95 38.35 46.3 38.65 46.7 39 47.3 39.3 47.85 39.6 48.6 39.95 49.35 40.35 50 40.75 50.7 41.15 51.2 41.65 51.7 42.15 52 42.75 52.3 43.35 52.3 44.15 52.3 45.2 51.9 45.9 51.5 46.65 50.8 47.1 50.1 47.55 49.2 47.75 48.3 47.95 47.3 47.95 46.95 47.95 46.5 47.9 46 47.85 45.5 47.75 44.95 47.6 44.5 47.45 44.05 47.3 43.8 47.15
L 43.8 45.2
Q 44.1 45.5 44.6 45.7 45.05 45.95 45.55 46.1 46.1 46.3 46.6 46.35 47.1 46.45 47.55 46.45 49.1 46.45 49.85 45.9 50.6 45.35 50.6 44.25 50.6 43.7 50.35 43.3 50.1 42.85 49.65 42.5 49.2 42.15 48.6 41.85 48 41.55 47.3 41.15 46.55 40.8 45.9 40.4 45.3 40.05 44.8 39.6 44.35 39.1 44.1 38.55 43.8 37.95 43.8 37.15 43.8 36.2 44.25 35.5 44.65 34.8 45.35 34.3 46 33.85 46.9 33.65 47.75 33.4 48.7 33.4 50.75 33.4 51.7 33.9
M 41.05 33.9
L 41.05 35.75
Q 39.8 34.9 37.85 34.9 37.35 34.9 36.8 35 36.25 35.15 35.85 35.4 35.4 35.65 35.15 36.05 34.9 36.45 34.9 37 34.9 37.55 35.1 37.95 35.3 38.35 35.65 38.65 36.05 39 36.65 39.3 37.2 39.6 37.95 39.95 38.7 40.35 39.35 40.75 40.05 41.15 40.55 41.65 41.05 42.15 41.35 42.75 41.65 43.35 41.65 44.15 41.65 45.2 41.25 45.9 40.85 46.65 40.15 47.1 39.45 47.55 38.55 47.75 37.65 47.95 36.65 47.95 36.3 47.95 35.85 47.9 35.35 47.85 34.85 47.75 34.3 47.6 33.85 47.45 33.4 47.3 33.15 47.15
L 33.15 45.2
Q 33.45 45.5 33.95 45.7 34.4 45.95 34.9 46.1 35.45 46.3 35.95 46.35 36.45 46.45 36.9 46.45 38.45 46.45 39.2 45.9 39.95 45.35 39.95 44.25 39.95 43.7 39.7 43.3 39.45 42.85 39 42.5 38.55 42.15 37.95 41.85 37.35 41.55 36.65 41.15 35.9 40.8 35.25 40.4 34.65 40.05 34.15 39.6 33.7 39.1 33.45 38.55 33.15 37.95 33.15 37.15 33.15 36.2 33.6 35.5 34 34.8 34.7 34.3 35.35 33.85 36.25 33.65 37.1 33.4 38.05 33.4 40.1 33.4 41.05 33.9
M 15.8 33.65
L 15.8 46.2 21.45 46.2 21.45 47.7 14.15 47.7 14.15 33.65 15.8 33.65
M 30.75 33.65
L 30.75 35.15 25.25 35.15 25.25 39.8 30.3 39.8 30.3 41.3 25.25 41.3 25.25 46.2 31.05 46.2 31.05 47.7 23.6 47.7 23.6 33.65 30.75 33.65 Z"/>
</g>

<g id="fileless_0_Layer0_0_FILL">
<path fill="#FFFFFF" fill-opacity="0" stroke="none" d="
M 0 0
L 0 64 64 64 64 0 0 0 Z"/>
</g>

<g id="file_0_Layer1_0_FILL">
<path fill="#FFFFFF" stroke="none" d="
M 44 16
L 56 16 39 0 39 11
Q 39 16 44 16
M 56 18.95
L 41.85 18.95
Q 35.95 18.95 35.95 13.05
L 35.95 0 14 0
Q 9 0 9 5
L 9 59
Q 9 64 14 64
L 51 64
Q 56 64 56 59
L 56 18.95 Z"/>
</g>

<g id="file_0_Layer0_0_FILL">
<path fill="#FFFFFF" fill-opacity="0" stroke="none" d="
M 64 0
L 0 0 0 64 64 64 64 0 Z"/>
</g>

<g id="folder_0_Layer1_0_FILL">
<path fill="#FFFFFF" stroke="none" d="
M 64 49
L 64 21
Q 64 16 59 16
L 29 16 24 8 5 8 0 16 0 49
Q 0 54 5 54
L 59 54
Q 64 54 64 49 Z"/>
</g>

<g id="folder_0_Layer0_0_FILL">
<path fill="#FFFFFF" fill-opacity="0" stroke="none" d="
M 64 0
L 0 0 0 64 64 64 64 0 Z"/>
</g>

<g id="icon_logout_0_Layer1_0_FILL">
<path fill="#FFFFFF" fill-opacity="0" stroke="none" d="
M 15 15
L 15 0 0 0 0 15 15 15 Z"/>
</g>

<g id="icon_logout_0_Layer0_0_FILL">
<path fill="#FFFFFF" stroke="none" d="
M 8 0
L 7 0
Q 3.78203125 2.49765625 0 4 2.6984375 13.0283203125 7 15
L 8 15
Q 12.2927734375 13.3693359375 15 4 11.1759765625 2.434375 8 0
M 7 3
L 8 3 8 9 7.5 12.3 7 9 7 3 Z"/>
</g>

<g id="menu_0_Layer1_0_FILL">
<path fill="#FFFFFF" stroke="none" d="
M 62.8 48.15
Q 61.65 47 60 47
L 4 47
Q 2.35 47 1.15 48.15 0 49.35 0 51
L 0 53
Q 0 54.65 1.15 55.8 2.35 57 4 57
L 60 57
Q 61.65 57 62.8 55.8 64 54.65 64 53
L 64 51
Q 64 49.35 62.8 48.15
M 64 31
Q 64 29.35 62.8 28.15 61.65 27 60 27
L 4 27
Q 2.35 27 1.15 28.15 0 29.35 0 31
L 0 33
Q 0 34.65 1.15 35.8 2.35 37 4 37
L 60 37
Q 61.65 37 62.8 35.8 64 34.65 64 33
L 64 31
M 64 11
Q 64 9.35 62.8 8.15 61.65 7 60 7
L 4 7
Q 2.35 7 1.15 8.15 0 9.35 0 11
L 0 13
Q 0 14.65 1.15 15.8 2.35 17 4 17
L 60 17
Q 61.65 17 62.8 15.8 64 14.65 64 13
L 64 11 Z"/>
</g>

<g id="menu_0_Layer0_0_FILL">
<path fill="#FFFFFF" fill-opacity="0" stroke="none" d="
M 64 64
L 64 0 0 0 0 64 64 64 Z"/>
</g>

<g id="icon_photos_0_Layer1_0_FILL">
<path fill="#FFFFFF" fill-opacity="0" stroke="none" d="
M 36 0
L 0 0 0 36 36 36 36 0 Z"/>
</g>

<g id="icon_photos_0_Layer0_0_FILL">
<path fill="#FFFFFF" stroke="none" d="
M 25.05 1.15
Q 23.9 0 22.25 0
L 13.85 0
Q 12.2 0 11 1.15 9.85 2.35 9.85 4 9.85 4.1 9.85 4.2
L 7 4.2
Q 0 4.2 0 11.1
L 0 24.3
Q 0 31.2 7 31.2
L 29 31.2
Q 36 31.2 36 24.3
L 36 11.1
Q 36 4.2 29 4.2
L 26.25 4.2
Q 26.25 4.1 26.25 4 26.25 2.35 25.05 1.15
M 31.5 10.5
Q 30.9 10.5 30.45 10.05 30.05 9.65 30.05 9.05 30.05 8.45 30.45 8 30.9 7.6 31.5 7.6 32.1 7.6 32.5 8 32.95 8.45 32.95 9.05 32.95 9.65 32.5 10.05 32.1 10.5 31.5 10.5
M 27.1 17.25
Q 27.1 21 24.4 23.65 21.75 26.35 18 26.35 14.25 26.35 11.55 23.65 8.9 21 8.9 17.25 8.9 13.5 11.55 10.8 14.25 8.15 18 8.15 21.75 8.15 24.4 10.8 27.1 13.5 27.1 17.25
M 23.15 22.4
Q 25.35 20.3 25.35 17.25 25.35 14.2 23.15 12.05 21.05 9.9 18 9.9 14.95 9.9 12.8 12.05 10.65 14.2 10.65 17.25 10.65 20.3 12.8 22.4 14.95 24.6 18 24.6 21.05 24.6 23.15 22.4
M 22.45 12.75
Q 24.35 14.65 24.35 17.25 24.35 19.85 22.45 21.7 20.6 23.6 18 23.6 15.4 23.6 13.5 21.7 11.65 19.85 11.65 17.25 11.65 14.65 13.5 12.75 15.4 10.9 18 10.9 20.6 10.9 22.45 12.75 Z"/>
</g>

<g id="iconSave_0_Layer0_0_FILL">
<path fill="#FFFFFF" stroke="none" d="
M 8 16
L 8 21 17 21 17 16 8 16
M 9 20
L 9 17 11 17 11 20 9 20
M 18 12
L 18 4 7 4 7 12 18 12
M 21 21
L 21 4 19 4 19 13 6 13 6 4 4 4 4 21 7 21 7 15 18 15 18 21 21 21 Z"/>
</g>

<g id="icon_settings_0_Layer1_0_FILL">
<path fill="#FFFFFF" fill-opacity="0" stroke="none" d="
M 0 0
L 0 36 36 36 36 0 0 0 Z"/>
</g>

<g id="icon_settings_0_Layer0_0_FILL">
<path fill="#FFFFFF" stroke="none" d="
M 33.4 11.85
Q 34.5 11.45 34.05 10.25
L 33.5 8.85
Q 33.05 7.4 31.85 7.8
L 28.6 9.3
Q 28.05 8.6 27.4 7.95 25.7 6.25 23.7 5.3
L 24.8 2.5
Q 25.2 1.4 24.05 0.85
L 22.65 0.25
Q 21.3 -0.45 20.8 0.65
L 19.45 4.1
Q 18.6 4 17.75 4 15.3 4 13.15 4.75
L 11.95 2
Q 11.55 0.9 10.35 1.35
L 8.95 1.9
Q 7.5 2.35 7.9 3.55
L 9.4 6.85
Q 8.7 7.35 8.1 7.95 6.35 9.75 5.35 11.85
L 2.5 10.65
Q 1.4 10.25 0.85 11.4
L 0.25 12.8
Q -0.45 14.15 0.65 14.65
L 4.2 16.05
Q 4.1 16.8 4.1 17.65 4.1 20.1 4.85 22.2
L 2 23.45
Q 0.9 23.85 1.35 25.05
L 1.9 26.45
Q 2.35 27.9 3.55 27.5
L 7 26
Q 7.5 26.6 8.1 27.2 9.85 29 11.95 30
L 10.75 32.9
Q 10.35 34 11.5 34.55
L 12.9 35.15
Q 14.25 35.85 14.75 34.75
L 16.15 31.2
Q 16.95 31.3 17.75 31.3 20.2 31.3 22.4 30.55
L 23.6 33.4
Q 24 34.5 25.2 34.05
L 26.6 33.5
Q 28.05 33.05 27.65 31.85
L 26.15 28.45
Q 26.8 27.9 27.4 27.3
L 27.45 27.2
Q 29.1 25.55 30.1 23.6
L 32.9 24.75
Q 34 25.15 34.55 24
L 35.15 22.6
Q 35.85 21.25 34.75 20.75
L 31.3 19.4
Q 31.4 18.55 31.4 17.65 31.4 15.2 30.65 13.05
L 33.4 11.85
M 25.35 9.95
Q 28.6 13.15 28.6 17.65 28.6 22.1 25.35 25.2 22.3 28.45 17.75 28.45 13.3 28.45 10.15 25.2 6.95 22.1 6.95 17.65 6.95 13.2 10.15 10.05
L 10.2 9.95
Q 13.35 6.8 17.75 6.8 22.3 6.8 25.35 9.95
M 24.45 10.85
L 24.45 10.8
Q 21.765234375 8.051953125 17.75 8.05 13.8408203125 8.0521484375 11.05 10.85 8.2013671875 13.6916015625 8.2 17.65 8.1947265625 21.5587890625 11 24.3
L 11.05 24.3
Q 13.7892578125 27.1529296875 17.75 27.15 21.7845703125 27.140234375 24.45 24.25
L 24.45 24.3
Q 27.305078125 21.5763671875 27.3 17.65 27.298828125 13.64140625 24.45 10.85
M 23 12.25
L 23.05 12.25
Q 25.3013671875 14.4767578125 25.3 17.65 25.2947265625 20.7236328125 23.05 22.85 23.0373046875 22.9013671875 23 22.9 20.9154296875 25.159375 17.75 25.15 14.628515625 25.146875 12.45 22.9
L 12.45 22.85
Q 10.205078125 20.7236328125 10.2 17.65 10.1986328125 14.5083984375 12.45 12.25 14.6591796875 10.0478515625 17.75 10.05 20.9162109375 10.0478515625 23 12.25 Z"/>

<path fill="#FFFFFF" fill-opacity="0" stroke="none" d="
M 28.6 17.65
Q 28.6 13.15 25.35 9.95 22.3 6.8 17.75 6.8 13.35 6.8 10.2 9.95
L 10.15 10.05
Q 6.95 13.2 6.95 17.65 6.95 22.1 10.15 25.2 13.3 28.45 17.75 28.45 22.3 28.45 25.35 25.2 28.6 22.1 28.6 17.65
M 24.45 10.8
L 24.45 10.85
Q 27.298828125 13.64140625 27.3 17.65 27.305078125 21.5763671875 24.45 24.3
L 24.45 24.25
Q 21.7845703125 27.140234375 17.75 27.15 13.7892578125 27.1529296875 11.05 24.3
L 11 24.3
Q 8.1947265625 21.5587890625 8.2 17.65 8.2013671875 13.6916015625 11.05 10.85 13.8408203125 8.0521484375 17.75 8.05 21.765234375 8.051953125 24.45 10.8
M 23.05 12.25
L 23 12.25
Q 20.9162109375 10.0478515625 17.75 10.05 14.6591796875 10.0478515625 12.45 12.25 10.1986328125 14.5083984375 10.2 17.65 10.205078125 20.7236328125 12.45 22.85
L 12.45 22.9
Q 14.628515625 25.146875 17.75 25.15 20.9154296875 25.159375 23 22.9 23.0373046875 22.9013671875 23.05 22.85 25.2947265625 20.7236328125 25.3 17.65 25.3013671875 14.4767578125 23.05 12.25 Z"/>
</g>

<g id="icon_sourcecode_0_Layer1_0_FILL">
<path fill="#FFFFFF" fill-opacity="0" stroke="none" d="
M 25 25
L 25 0 0 0 0 25 25 25 Z"/>
</g>

<g id="icon_sourcecode_0_Layer0_0_FILL">
<path fill="#FFFFFF" stroke="none" d="
M 25 12.55
Q 25 7.35 21.35 3.7 17.7 0.05 12.5 0.05 7.3 0.05 3.65 3.7 0 7.35 0 12.55 0 17.75 3.65 21.4 7.3 25.05 12.5 25.05 17.7 25.05 21.35 21.4 25 17.75 25 12.55
M 23 11.85
L 23 13.15 15.55 16.35 15.55 15 21.45 12.5 15.55 10.05 15.55 8.7 23 11.85
M 13.6 6.55
L 14.7 6.55 11.4 18.25 10.3 18.25 13.6 6.55
M 9.45 8.7
L 9.45 10.05 3.55 12.5 9.45 15 9.45 16.35 2 13.15 2 11.85 9.45 8.7 Z"/>
</g>

<g id="iconUpload_0_Layer1_0_FILL">
<path fill="#FFFFFF" fill-opacity="0" stroke="none" d="
M 25 0
L 0 0 0 25 25 25 25 0 Z"/>
</g>

<g id="iconUpload_0_Layer0_0_FILL">
<path fill="#FFFFFF" stroke="none" d="
M 6.55 14.05
L 10.05 14.05 10.05 25 15.05 25 15.05 14.05 18.55 14.05 12.55 8.05 6.55 14.05
M 23.05 2.05
L 23.05 17.05 16.05 17.05 16.05 19.05 25 19.05 25 0 0 0 0 19.05 9.05 19.05 9.05 17.05 2.05 17.05 2.05 2.05 23.05 2.05 Z"/>
</g>
</defs><symbol id="icon-close" viewBox="0 0 32 32">


<g transform="matrix( 1, 0, 0, 1, 0,0) ">
<g transform="matrix( 1, 0, 0, 1, 0,0) ">
<use xlink:href="#icon_0_Layer1_0_FILL"/>
</g>

<g transform="matrix( 1, 0, 0, 1, 0,0) ">
<use xlink:href="#icon_0_Layer0_0_FILL"/>
</g>
</g>
</symbol><symbol id="icon-cycle" viewBox="0 0 25 25">


<g transform="matrix( 1, 0, 0, 1, 0,0) ">
<g transform="matrix( 1, 0, 0, 1, 0,0) ">
<use xlink:href="#icon_cycle_0_Layer1_0_FILL"/>
</g>

<g transform="matrix( 1, 0, 0, 1, 0,0) ">
<use xlink:href="#icon_cycle_0_Layer0_0_FILL"/>
</g>
</g>
</symbol><symbol id="icon-file-css" viewBox="0 0 64 64">


<g transform="matrix( 1, 0, 0, 1, 0,0) ">
<g transform="matrix( 1, 0, 0, 1, 0,0) ">
<use xlink:href="#filecss_0_Layer2_0_FILL"/>
</g>

<g transform="matrix( 1, 0, 0, 1, 0,0) ">
<use xlink:href="#filecss_0_Layer0_0_FILL"/>
</g>
</g>
</symbol><symbol id="icon-file-html" viewBox="0 0 64 64">


<g transform="matrix( 1, 0, 0, 1, 0,0) ">
<g transform="matrix( 1, 0, 0, 1, 0,0) ">
<use xlink:href="#filehtml_0_Layer2_0_FILL"/>
</g>

<g transform="matrix( 1, 0, 0, 1, 0,0) ">
<use xlink:href="#filehtml_0_Layer0_0_FILL"/>
</g>
</g>
</symbol><symbol id="icon-file-js" viewBox="0 0 64 64">


<g transform="matrix( 1, 0, 0, 1, 0,0) ">
<g transform="matrix( 1, 0, 0, 1, 0,0) ">
<use xlink:href="#filejs_0_Layer2_0_FILL"/>
</g>

<g transform="matrix( 1, 0, 0, 1, 0,0) ">
<use xlink:href="#filejs_0_Layer0_0_FILL"/>
</g>
</g>
</symbol><symbol id="icon-file-less" viewBox="0 0 64 64">


<g transform="matrix( 1, 0, 0, 1, 0,0) ">
<g transform="matrix( 1, 0, 0, 1, 0,0) ">
<use xlink:href="#fileless_0_Layer2_0_FILL"/>
</g>

<g transform="matrix( 1, 0, 0, 1, 0,0) ">
<use xlink:href="#fileless_0_Layer0_0_FILL"/>
</g>
</g>
</symbol><symbol id="icon-file" viewBox="0 0 64 64">


<g transform="matrix( 1, 0, 0, 1, 0,0) ">
<g transform="matrix( 1, 0, 0, 1, 0,0) ">
<use xlink:href="#file_0_Layer1_0_FILL"/>
</g>

<g transform="matrix( 1, 0, 0, 1, 0,0) ">
<use xlink:href="#file_0_Layer0_0_FILL"/>
</g>
</g>
</symbol><symbol id="icon-folder" viewBox="0 0 64 64">


<g transform="matrix( 1, 0, 0, 1, 0,0) ">
<g transform="matrix( 1, 0, 0, 1, 0,0) ">
<use xlink:href="#folder_0_Layer1_0_FILL"/>
</g>

<g transform="matrix( 1, 0, 0, 1, 0,0) ">
<use xlink:href="#folder_0_Layer0_0_FILL"/>
</g>
</g>
</symbol><symbol id="icon-logout" viewBox="0 0 15 15">


<g transform="matrix( 1, 0, 0, 1, 0,0) ">
<g transform="matrix( 1, 0, 0, 1, 0,0) ">
<use xlink:href="#icon_logout_0_Layer1_0_FILL"/>
</g>

<g transform="matrix( 1, 0, 0, 1, 0,0) ">
<use xlink:href="#icon_logout_0_Layer0_0_FILL"/>
</g>
</g>
</symbol><symbol id="icon-menu" viewBox="0 0 64 64">


<g transform="matrix( 1, 0, 0, 1, 0,0) ">
<g transform="matrix( 1, 0, 0, 1, 0,0) ">
<use xlink:href="#menu_0_Layer1_0_FILL"/>
</g>

<g transform="matrix( 1, 0, 0, 1, 0,0) ">
<use xlink:href="#menu_0_Layer0_0_FILL"/>
</g>
</g>
</symbol><symbol id="icon-photos" viewBox="0 0 36 36">


<g transform="matrix( 1, 0, 0, 1, 0,0) ">
<g transform="matrix( 1, 0, 0, 1, 0,0) ">
<use xlink:href="#icon_photos_0_Layer1_0_FILL"/>
</g>

<g transform="matrix( 1, 0, 0, 1, 0,0) ">
<use xlink:href="#icon_photos_0_Layer0_0_FILL"/>
</g>
</g>
</symbol><symbol id="icon-save" viewBox="0 0 25 25">


<g transform="matrix( 1, 0, 0, 1, 0,0) ">
<g transform="matrix( 1, 0, 0, 1, 0,0) ">
<use xlink:href="#iconSave_0_Layer0_0_FILL"/>
</g>
</g>
</symbol><symbol id="icon-settings" viewBox="0 0 36 36">


<g transform="matrix( 1, 0, 0, 1, 0.3,0.3) ">
<g transform="matrix( 1, 0, 0, 1, 0,0) ">
<use xlink:href="#icon_settings_0_Layer1_0_FILL"/>
</g>

<g transform="matrix( 1, 0, 0, 1, 0,0) ">
<use xlink:href="#icon_settings_0_Layer0_0_FILL"/>
</g>
</g>
</symbol><symbol id="icon-sourcecode" viewBox="0 0 25 25">


<g transform="matrix( 1, 0, 0, 1, 0,0) ">
<g transform="matrix( 1, 0, 0, 1, 0,0) ">
<use xlink:href="#icon_sourcecode_0_Layer1_0_FILL"/>
</g>

<g transform="matrix( 1, 0, 0, 1, 0,0) ">
<use xlink:href="#icon_sourcecode_0_Layer0_0_FILL"/>
</g>
</g>
</symbol><symbol id="icon-upload" viewBox="0 0 25 25">


<g transform="matrix( 1, 0, 0, 1, 0,0) ">
<g transform="matrix( 1, 0, 0, 1, 0,0) ">
<use xlink:href="#iconUpload_0_Layer1_0_FILL"/>
</g>

<g transform="matrix( 1, 0, 0, 1, 0,0) ">
<use xlink:href="#iconUpload_0_Layer0_0_FILL"/>
</g>
</g>
</symbol></svg>