<svg xmlns="http://www.w3.org/2000/svg">


<style type="text/css">
    .editor path:not(.svg-nocolor){fill:currentColor}
    .editor use:not(.svg-nocolor):visited{color:currentColor}
    .editor use:not(.svg-nocolor):hover{color:currentColor}
    .editor use:not(.svg-nocolor):active{color:currentColor}
    .for-popup path:not(.svg-nocolor){fill:currentColor}
    .for-popup use:not(.svg-nocolor):visited{color:currentColor}
    .for-popup use:not(.svg-nocolor):hover{color:currentColor}
    .for-popup use:not(.svg-nocolor):active{color:currentColor}
</style>


<defs>
<g id="iconAddSmall_0_Layer1_0_FILL">
<path fill-opacity="0" stroke="none" d="
M 22 0
L 0 0 0 22 22 22 22 0 Z"/>
</g>

<g id="iconAddSmall_0_Layer0_0_FILL">
<path stroke="none" d="
M 22 12
L 22 10 12 10 12 0 10 0 10 10 0 10 0 12 10 12 10 22 12 22 12 12 22 12 Z"/>
</g>

<g id="icon_add_0_Layer1_0_FILL">
<path fill-opacity="0" stroke="none" d="
M 0 0
L 0 15 15 15 15 0 0 0 Z"/>
</g>

<g id="icon_add_0_Layer0_0_FILL">
<path stroke="none" d="
M 15 8
L 15 7 8 7 8 0 7 0 7 7 0 7 0 8 7 8 7 15 8 15 8 8 15 8 Z"/>
</g>

<g id="Analytics1_0_FILL">
<path fill="#000222" stroke="none" d="
M 58.5 61.5
L 58.5 9.5 5.5 9.5 5.5 61.5 58.5 61.5 Z"/>
</g>

<g id="Analytics0_0_FILL">
<path stroke="none" d="
M 61 13
Q 61 7 55 7
L 9 7
Q 3 7 3 13
L 3 58
Q 3 64 9 64
L 55 64
Q 61 64 61 58
L 61 13
M 55 11
Q 57 11 57 13
L 57 58
Q 57 60 55 60
L 9 60
Q 7 60 7 58
L 7 13
Q 7 11 9 11
L 55 11
M 49.85 23.8
L 49.8 23.85
Q 49.01171875 24.7552734375 49 26 48.997265625 26.646484375 49.2 27.15
L 42.5 33.3 41.95 33.15
Q 41.5244140625 33.001953125 41 33 39.7552734375 33.01171875 38.85 33.8
L 38.45 34.2 34 32.85
Q 33.952734375 31.69609375 33.1 30.85 32.27890625 30.003515625 31 30 29.7552734375 30.01171875 28.85 30.8
L 28.8 30.85
Q 28.01171875 31.7552734375 28 33 28.002734375 33.97109375 28.5 34.65
L 22.9 42.1
Q 22.4802734375 42.005859375 22 42 20.7552734375 42.01171875 19.85 42.8
L 19.8 42.85 19.75 42.9 14.9 40.75
Q 14.9953125 40.4048828125 15 40 14.99609375 38.7390625 14.1 37.85 13.27890625 37.003515625 12 37 10.7552734375 37.01171875 9.85 37.8
L 9.8 37.85
Q 9.01171875 38.7552734375 9 40 9.003515625 41.27890625 9.85 42.1 10.4037109375 42.658203125 11.1 42.85 11.515234375 42.9978515625 12 43 12.987109375 42.9943359375 13.7 42.45
L 19 44.8
Q 18.999609375 44.8958984375 19 45 19.003515625 46.27890625 19.85 47.1 20.7390625 47.99609375 22 48 23.290234375 47.992578125 24.1 47.05
L 24.05 47.15
Q 24.520703125 46.77890625 24.75 46.3
L 24.75 46.25 24.75 46.2
Q 24.9927734375 45.63515625 25 45 24.9970703125 44.0630859375 24.5 43.3
L 30.1 35.85
Q 30.5197265625 35.9943359375 31 36 32.290234375 35.992578125 33.1 35.05
L 33.05 35.15
Q 33.2732421875 34.987109375 33.45 34.75
L 38 36.15
Q 38.054296875 37.328125 38.85 38.1 39.7390625 38.99609375 41 39 42.290234375 38.992578125 43.1 38.05
L 43.05 38.15
Q 43.520703125 37.77890625 43.75 37.3
L 43.75 37.25 43.75 37.2
Q 43.9927734375 36.63515625 44 36
L 43.95 35.55
Q 43.926953125 35.1939453125 43.8 34.85
L 43.8 34.85 49.95 29.2 50.55 28.65 50.55 28.65
Q 51.2146484375 28.99765625 52 29 52.511328125 28.9970703125 52.95 28.85 53.6208984375 28.6291015625 54.1 28.05
L 54.05 28.15
Q 54.520703125 27.77890625 54.75 27.3
L 54.75 27.25 54.75 27.2
Q 54.9927734375 26.63515625 55 26 54.99609375 24.7390625 54.1 23.85 53.27890625 23.003515625 52 23 50.7552734375 23.01171875 49.85 23.8
M 52 25
Q 52.42109375 24.996484375 52.7 25.25 53.00390625 25.5609375 53 26 53.0056640625 26.21015625 52.95 26.4 52.8791015625 26.5208984375 52.75 26.6
L 52.7 26.65 52.65 26.7
Q 52.409765625 27.007421875 52 27 51.5609375 27.00390625 51.25 26.7
L 51.2 26.65 51.25 26.65
Q 51.005078125 26.398046875 51 26 50.9890625 25.5826171875 51.2 25.25 51.2513671875 25.2513671875 51.25 25.2 51.5826171875 24.9890625 52 25
M 41 35
Q 41.175390625 34.9978515625 41.3 35.05
L 41.6 35.15 41.75 35.3
Q 41.994921875 35.601953125 42 36 42.0056640625 36.21015625 41.95 36.4 41.8791015625 36.5208984375 41.75 36.6
L 41.7 36.65 41.65 36.7
Q 41.409765625 37.007421875 41 37 40.5609375 37.00390625 40.25 36.7 39.996484375 36.42109375 40 36 39.9943359375 35.9041015625 40 35.8
L 40.25 35.25
Q 40.569921875 34.988671875 41 35
M 12.7 39.25
Q 13.00390625 39.5609375 13 40 13.0056640625 40.21015625 12.95 40.4 12.8791015625 40.5208984375 12.75 40.6
L 12.7 40.65 12.65 40.7
Q 12.409765625 41.007421875 12 41 11.5609375 41.00390625 11.25 40.7 10.996484375 40.42109375 11 40 10.9890625 39.5826171875 11.2 39.25 11.251171875 39.2515625 11.25 39.2 11.5826171875 38.9890625 12 39 12.42109375 38.996484375 12.7 39.25
M 30.4 33.8
L 30.4 33.8
Q 30.325 33.7455078125 30.25 33.7 29.996484375 33.42109375 30 33 29.9890625 32.5826171875 30.2 32.25 30.2513671875 32.2513671875 30.25 32.2 30.5826171875 31.9890625 31 32 31.42109375 31.996484375 31.7 32.25 32.00390625 32.5609375 32 33 32.003515625 33.134765625 32 33.25 31.9599609375 33.341015625 31.9 33.4 31.8654296875 33.53203125 31.75 33.6
L 31.7 33.65 31.65 33.7
Q 31.409765625 34.007421875 31 34 30.70546875 34.011328125 30.45 33.85 30.4521484375 33.8458984375 30.4 33.8
M 23 45
Q 23.0056640625 45.21015625 22.95 45.4 22.8791015625 45.5208984375 22.75 45.6
L 22.7 45.65 22.65 45.7
Q 22.409765625 46.007421875 22 46 21.5609375 46.00390625 21.25 45.7 20.996484375 45.42109375 21 45 21.0029296875 44.7751953125 21.05 44.6 21.1689453125 44.3845703125 21.3 44.2 21.6123046875 43.98984375 22 44 22.2798828125 43.9892578125 22.5 44.1 22.6013671875 44.225390625 22.75 44.3 23.003515625 44.5970703125 23 45 Z"/>

<path fill-opacity="0.2980392156862745" stroke="none" d="
M 52.95 28.85
Q 52.511328125 28.9970703125 52 29 51.2146484375 28.99765625 50.55 28.65
L 49.95 29.2 43.8 34.85
Q 43.9361328125 35.1951171875 43.95 35.55
L 44 36
Q 43.9927734375 36.63515625 43.75 37.2
L 43.75 37.25 43.75 37.3
Q 43.520703125 37.77890625 43.05 38.15
L 43.1 38.05
Q 42.290234375 38.992578125 41 39 39.7390625 38.99609375 38.85 38.1 38.054296875 37.328125 38 36.15
L 33.45 34.75
Q 33.2732421875 34.987109375 33.05 35.15
L 33.1 35.05
Q 32.290234375 35.992578125 31 36 30.5197265625 35.9943359375 30.1 35.85
L 24.5 43.3
Q 24.9970703125 44.0630859375 25 45 24.9927734375 45.63515625 24.75 46.2
L 24.75 46.25 24.75 46.3
Q 24.520703125 46.77890625 24.05 47.15
L 24.1 47.05
Q 23.290234375 47.992578125 22 48 20.7390625 47.99609375 19.85 47.1 19.003515625 46.27890625 19 45 18.999609375 44.8958984375 19 44.8
L 13.7 42.45
Q 12.987109375 42.9943359375 12 43 11.515234375 42.9978515625 11.1 42.85
L 11 56 53 56 52.95 28.85 Z"/>
</g>

<g id="arrow_right_0_Layer1_0_FILL">
<path stroke="none" d="
M 18 0
L 18 13 36 31 18 51 18 64 49 31 18 0 Z"/>
</g>

<g id="arrow_right_0_Layer0_0_FILL">
<path fill-opacity="0" stroke="none" d="
M 64 0
L 0 0 0 64 64 64 64 0 Z"/>
</g>

<g id="iconArrow_0_Layer1_0_FILL">
<path stroke="none" d="
M 62.55 27.95
Q 61.1 26.5 59.1 26.5
L 17.55 26.5 35.95 9.5 29.4 2.4 1.9 27.8
Q 1.35 28.25 1 28.95
L 0.8 29.3
Q 0.65 29.6 0.55 29.95
L 0.55 30.05 0.45 30.85
Q 0.35 31.35 0.45 31.95 0.5 32.85 1 33.65 1.4 34.175 1.8 34.7
L 29.25 62.55 36.1 55.8 16.75 36.15 59.1 36.15
Q 61.1 36.15 62.55 34.75 63.95 33.3 63.95 31.3 63.95 29.35 62.55 27.95 Z"/>
</g>

<g id="iconArrow_0_Layer0_0_FILL">
<path fill-opacity="0" stroke="none" d="
M 64 0
L 0 0 0 64 64 64 64 0 Z"/>
</g>

<g id="iconCheck_Fill">
<path stroke="none" d="
M 64 6
L 54 0 26 46 8 28 0 36 28 64 64 6 Z"/>
</g>

<g id="icon_0_Layer1_0_FILL">
<path fill-opacity="0.9882352941176471" stroke="none" d="
M 32 4.2
L 27.65 0 15.85 11.8 4.2 0.15 0 4.35 11.65 16 0 27.65 4.2 31.85 15.85 20.2 27.65 32 31.85 27.8 20.2 16.15 32 4.2 Z"/>
</g>

<g id="icon_0_Layer0_0_FILL">
<path fill-opacity="0" stroke="none" d="
M 32 0
L 0 0 0 32 32 32 32 0 Z"/>
</g>

<g id="icon_cycle_0_Layer1_0_FILL">
<path fill-opacity="0" stroke="none" d="
M 25 0
L 0 0 0 25 25 25 25 0 Z"/>
</g>

<g id="icon_cycle_0_Layer0_0_FILL">
<path stroke="none" d="
M 0.05 23
L 2.15 20.9 3.1 20 5 18.15 0 18 0.05 23 Z"/>

<path fill-opacity="0.9882352941176471" stroke="none" d="
M 10.55 2
Q 14.85 2 17.9 5.05 21 8.1 21 12.5 21 16.9 17.9 19.95 14.85 23.05 10.55 23.05 6.2 23.05 3.1 20
L 2.15 20.9 1.7 21.4
Q 5.4 25 10.55 25 15.65 25 19.3 21.35 23 17.7 23 12.5 23 7.3 19.3 3.65 15.65 0 10.55 0 5.35 0 1.7 3.65
L 3.1 5.05
Q 6.15 2 10.55 2 Z"/>
</g>

<g id="iconDataset_0_Layer1_0_FILL">
<path stroke="none" d="
M 54.6 31.9
Q 50.6 33.25 45.85 34 39.55 35 32 35 24.45 35 18.15 34 13.4 33.25 9.35 31.9 0.55 29.05 0.05 25
L 0 43.65
Q 0 44.35 0.3 45 1.65 48.4 9.35 50.9 18.15 53.8 30.35 54
L 33.65 54
Q 45.85 53.8 54.6 50.9 62.35 48.4 63.7 45 63.95 44.4 64 43.85
L 64 42.2
Q 64 42.05 64 41.95 64 41.35 64 40.8 64 32.9 64 25 63.45 29.05 54.6 31.9
M 63.7 23
Q 64 22.25 64 21.5 64 17.15 54.6 14.05 45.25 11 32 11 18.75 11 9.35 14.05 0 17.15 0 21.5 0 22.25 0.3 23 1.65 26.4 9.35 28.9 18.75 32 32 32 45.25 32 54.6 28.9 62.35 26.4 63.7 23 Z"/>
</g>

<g id="iconDataset_0_Layer0_0_FILL">
<path fill-opacity="0" stroke="none" d="
M 64 0
L 0 0 0 64 64 64 64 0 Z"/>
</g>

<g id="iconDatasets_0_Layer1_0_FILL">
<path stroke="none" d="
M 54.6 42.9
Q 51.7814453125 43.8345703125 48.6 44.45 41.2556640625 46 32 46 22.7443359375 46 15.35 44.45 12.18359375 43.8345703125 9.35 42.9 0.14609375 39.89765625 0 35.6
L 0 53.55
Q 0.0884765625 57.87890625 9.35 60.9 18.75 64 32 64 45.25 64 54.6 60.9 63.9111328125 57.87890625 64 53.55
L 63.95 35.9
Q 63.529296875 40.002734375 54.6 42.9
M 54.6 20.9
Q 50.5814453125 22.232421875 45.85 23 39.5552734375 24 32 24 24.4447265625 24 18.15 23 13.3900390625 22.232421875 9.35 20.9 0.5376953125 18.025390625 0 14
L 0 32.6
Q 0.0240234375 33.328515625 0.3 34 1.66171875 37.3919921875 9.35 39.9 18.1625 42.80625 30.35 43
L 33.65 43
Q 45.834375 42.80625 54.6 39.9 62.3494140625 37.385546875 63.7 34 63.928125 33.41953125 63.95 32.8
L 63.95 31.2
Q 63.976171875 31.065625 63.95 30.9 63.977734375 30.3625 63.95 29.8 63.9802734375 21.896875 63.95 14 63.4591796875 18.025390625 54.6 20.9
M 63.7 12
Q 64 11.269921875 64 10.5 64 6.15 54.6 3.05 45.25 0 32 0 18.75 0 9.35 3.05 0 6.15 0 10.5 0 11.269921875 0.3 12 1.6548828125 15.38984375 9.35 17.9 18.75 21 32 21 45.25 21 54.6 17.9 62.3361328125 15.38984375 63.7 12 Z"/>
</g>

<g id="iconDatasets_0_Layer0_0_FILL">
<path fill-opacity="0" stroke="none" d="
M 64 -0.05
L 0 -0.05 0 63.95 64 63.95 64 -0.05 Z"/>
</g>

<g id="iconDots_0_Layer1_0_FILL">
<path stroke="none" d="
M 36.9 36.25
Q 39 34.3 39 31.35 39 28.5 36.9 26.35 34.9 24.35 32 24.35 29.05 24.35 27 26.35 25 28.5 25 31.35 25 34.3 27 36.25 29.05 38.35 32 38.35 34.9 38.35 36.9 36.25
M 2.2 26.35
Q 0.2 28.5 0.2 31.35 0.2 34.3 2.2 36.25 4.25 38.35 7.2 38.35 10.1 38.35 12.1 36.25 14.2 34.3 14.2 31.35 14.2 28.5 12.1 26.35 10.1 24.35 7.2 24.35 4.25 24.35 2.2 26.35
M 61.8 36.25
Q 63.9 34.3 63.9 31.35 63.9 28.5 61.8 26.35 59.8 24.35 56.9 24.35 53.95 24.35 51.9 26.35 49.9 28.5 49.9 31.35 49.9 34.3 51.9 36.25 53.95 38.35 56.9 38.35 59.8 38.35 61.8 36.25 Z"/>
</g>

<g id="iconDots_0_Layer0_0_FILL">
<path fill-opacity="0" stroke="none" d="
M 64 0
L 0 0 0 64 64 64 64 0 Z"/>
</g>

<g id="iconEdit_0_Layer1_0_FILL">
<path stroke="none" d="
M 2.05 61.95
L 16.9 58.4 5.55 47.05 2.05 61.95
M 62.85 12.45
L 51.5 1.1 44.45 8.15 55.8 19.5 62.85 12.45
M 53.65 21.65
L 42.3 10.3 7.65 44.95 19 56.3 53.65 21.65 Z"/>
</g>

<g id="iconEdit_0_Layer0_0_FILL">
<path fill-opacity="0" stroke="none" d="
M 64 0
L 0 0 0 64 64 64 64 0 Z"/>
</g>

<g id="iconEmail_0_Layer0_0_FILL">
<path stroke="none" d="
M 0.3 2.55
Q 0 3.45 0 4.65
L 0 37.35
Q 0 38.9 0.5 39.95
L 23.9 21.25 0.3 2.55
M 61.35 0.2
Q 60.75 0 60 0
L 4 0
Q 3.25 0 2.65 0.2
L 31.55 23 61.35 0.2
M 64 37.35
L 64 4.65
Q 64 3.45 63.75 2.5
L 39.35 21.2 63.55 39.95
Q 64 38.9 64 37.35
M 60 42
Q 61.95 42 62.95 40.9
L 38.45 21.9 32.35 26.55
Q 31.95 26.85 31.5 26.85 31 26.85 30.65 26.55
L 24.75 21.9 1.05 40.9
Q 2.05 42 4 42
L 60 42 Z"/>
</g>

<g id="file_add_0_Layer1_0_FILL">
<path stroke="none" d="
M 56 18.95
L 41.85 18.95
Q 35.95 18.95 35.95 13.05
L 35.95 0 14 0
Q 9 0 9 5
L 9 59
Q 9 64 14 64
L 51 64
Q 56 64 56 59
L 56 18.95
M 43 47
L 52 47 52 50 43 50 43 59 40 59 40 50 31 50 31 47 40 47 40 38 43 38 43 47
M 44 16
L 56 16 39 0 39 11
Q 39 16 44 16 Z"/>
</g>

<g id="file_add_0_Layer0_0_FILL">
<path fill-opacity="0" stroke="none" d="
M 0 0
L 0 64 64 64 64 0 0 0 Z"/>
</g>

<g id="filecss_0_Layer2_0_FILL">
<path stroke="none" d="
M 44 16
L 56 16 39 0 39 11
Q 39 16 44 16
M 56 18.95
L 41.85 18.95
Q 35.95 18.95 35.95 13.05
L 35.95 0 14 0
Q 9 0 9 5
L 9 59
Q 9 64 14 64
L 51 64
Q 56 64 56 59
L 56 18.95
M 45.95 29.85
Q 48.25 29.85 49.25 30.4
L 49.25 32.4
Q 47.9 31.5 45.75 31.5 45.15 31.5 44.55 31.6 44 31.7 43.5 32 43.05 32.3 42.75 32.75 42.45 33.15 42.45 33.8 42.45 34.4 42.7 34.85 42.9 35.25 43.35 35.6 43.8 35.95 44.4 36.3 45 36.65 45.8 37.05 46.65 37.45 47.4 37.9 48.15 38.35 48.7 38.9 49.25 39.45 49.6 40.1 49.9 40.8 49.9 41.65 49.9 42.8 49.5 43.6 49 44.4 48.25 44.85 47.5 45.35 46.5 45.6 45.5 45.8 44.4 45.8 44.05 45.8 43.5 45.75 43 45.7 42.4 45.6 41.85 45.45 41.35 45.3 40.85 45.15 40.55 44.9
L 40.55 42.8
Q 40.9 43.1 41.45 43.35 41.95 43.65 42.5 43.8 43.1 44 43.65 44.1 44.2 44.2 44.7 44.2 46.35 44.2 47.2 43.55 48 42.95 48 41.8 48 41.15 47.75 40.7 47.45 40.25 47 39.85 46.5 39.45 45.85 39.1 45.2 38.75 44.4 38.35 43.6 37.95 42.9 37.55 42.2 37.1 41.7 36.6 41.15 36.1 40.9 35.45 40.6 34.85 40.6 33.95 40.6 32.9 41.05 32.15 41.5 31.35 42.25 30.85 43 30.35 44 30.1 44.95 29.85 45.95 29.85
M 16.75 38
Q 16.75 40.85 18.3 42.5 19.85 44.2 22.35 44.2 24.7 44.2 26.4 43.15
L 26.4 44.9
Q 24.7 45.8 22.15 45.8 18.85 45.8 16.85 43.7 14.85 41.55 14.85 38.1 14.85 34.4 17.1 32.1 19.3 29.85 22.75 29.85 24.95 29.85 26.4 30.45
L 26.4 32.4
Q 24.75 31.5 22.75 31.5 20.05 31.5 18.4 33.25 16.75 35.05 16.75 38
M 30.5 30.85
Q 31.25 30.35 32.25 30.1 33.2 29.85 34.2 29.85 36.5 29.85 37.5 30.4
L 37.5 32.4
Q 36.15 31.5 34 31.5 33.4 31.5 32.8 31.6 32.25 31.7 31.75 32 31.3 32.3 31 32.75 30.7 33.15 30.7 33.8 30.7 34.4 30.95 34.85 31.15 35.25 31.6 35.6 32.05 35.95 32.65 36.3 33.25 36.65 34.05 37.05 34.9 37.45 35.65 37.9 36.4 38.35 36.95 38.9 37.5 39.45 37.85 40.1 38.15 40.8 38.15 41.65 38.15 42.8 37.75 43.6 37.25 44.4 36.5 44.85 35.75 45.35 34.75 45.6 33.75 45.8 32.65 45.8 32.3 45.8 31.75 45.75 31.25 45.7 30.65 45.6 30.1 45.45 29.6 45.3 29.1 45.15 28.8 44.9
L 28.8 42.8
Q 29.15 43.1 29.7 43.35 30.2 43.65 30.75 43.8 31.35 44 31.9 44.1 32.45 44.2 32.95 44.2 34.6 44.2 35.45 43.55 36.25 42.95 36.25 41.8 36.25 41.15 36 40.7 35.7 40.25 35.25 39.85 34.75 39.45 34.1 39.1 33.45 38.75 32.65 38.35 31.85 37.95 31.15 37.55 30.45 37.1 29.95 36.6 29.4 36.1 29.15 35.45 28.85 34.85 28.85 33.95 28.85 32.9 29.3 32.15 29.75 31.35 30.5 30.85 Z"/>
</g>

<g id="filecss_0_Layer0_0_FILL">
<path fill-opacity="0" stroke="none" d="
M 0 0
L 0 64 64 64 64 0 0 0 Z"/>
</g>

<g id="file_doc_0_Layer1_0_FILL">
<path stroke="none" d="
M 56 18.95
L 41.85 18.95
Q 35.95 18.95 35.95 13.05
L 35.95 0 14 0
Q 9 0 9 5
L 9 59
Q 9 64 14 64
L 51 64
Q 56 64 56 59
L 56 18.95
M 51 24
L 51 27 14 27 14 24 51 24
M 51 45
L 51 48 14 48 14 45 51 45
M 51 38
L 51 41 14 41 14 38 51 38
M 51 31
L 51 34 14 34 14 31 51 31
M 14 55
L 14 52 37 52 37 55 14 55
M 44 16
L 56 16 39 0 39 11
Q 39 16 44 16 Z"/>
</g>

<g id="file_doc_0_Layer0_0_FILL">
<path fill-opacity="0" stroke="none" d="
M 0 0
L 0 64 64 64 64 0 0 0 Z"/>
</g>

<g id="file_exe_0_Layer1_0_FILL">
<path stroke="none" d="
M 56 18.95
L 41.85 18.95
Q 35.95 18.95 35.95 13.05
L 35.95 0 14 0
Q 9 0 9 5
L 9 59
Q 9 64 14 64
L 51 64
Q 56 64 56 59
L 56 18.95
M 41.15 33.5
Q 42.8 31.6 45.3 31.6 47.8 31.6 49.2 33.25 50.55 34.85 50.55 37.7
L 50.55 38.8 41.55 38.8
Q 41.6 40.9 42.7 42.1 43.8 43.25 45.7 43.25 47.85 43.25 49.65 41.8
L 49.65 43.75
Q 48 44.95 45.25 44.95 42.55 44.95 41 43.2 39.45 41.5 39.45 38.35 39.45 35.35 41.15 33.5
M 14.45 38.35
Q 14.45 35.35 16.15 33.5 17.8 31.6 20.3 31.6 22.8 31.6 24.2 33.25 25.55 34.85 25.55 37.7
L 25.55 38.8 16.55 38.8
Q 16.6 40.9 17.7 42.1 18.8 43.25 20.7 43.25 22.85 43.25 24.65 41.8
L 24.65 43.75
Q 23 44.95 20.25 44.95 17.55 44.95 16 43.2 14.45 41.5 14.45 38.35
M 35.65 31.9
L 37.9 31.9 33.65 38.35 37.85 44.65 35.45 44.65 32.95 40.5
Q 32.75 40.15 32.4 39.55
L 32.35 39.55
Q 32.3 39.65 31.75 40.5
L 29.2 44.65 26.85 44.65 31.2 38.4 27.05 31.9 29.45 31.9 31.9 36.25
Q 32.15 36.75 32.45 37.25
L 32.5 37.25 35.65 31.9
M 17.85 34.35
Q 16.8 35.4 16.6 37.05
L 23.45 37.05
Q 23.45 35.3 22.6 34.3 21.75 33.35 20.3 33.35 18.85 33.35 17.85 34.35
M 48.45 37.05
Q 48.45 35.3 47.6 34.3 46.75 33.35 45.3 33.35 43.85 33.35 42.85 34.35 41.8 35.4 41.6 37.05
L 48.45 37.05
M 44 16
L 56 16 39 0 39 11
Q 39 16 44 16 Z"/>
</g>

<g id="file_exe_0_Layer0_0_FILL">
<path fill-opacity="0" stroke="none" d="
M 0 0
L 0 64 64 64 64 0 0 0 Z"/>
</g>

<g id="filehtml_0_Layer2_0_FILL">
<path stroke="none" d="
M 56 18.95
L 41.85 18.95
Q 35.95 18.95 35.95 13.05
L 35.95 0 14 0
Q 9 0 9 5
L 9 59
Q 9 64 14 64
L 51 64
Q 56 64 56 59
L 56 18.95
M 50.65 40
L 50.65 40.95 37.15 47.75 37.15 45.4 47.25 40.5 47.25 40.4 37.15 34.8 37.15 32.45 50.65 40
M 17.5 40.4
L 17.5 40.45 27.6 45.4 27.6 47.75 14.1 40.95 14.1 40 27.6 32.45 27.6 34.8 17.5 40.4
M 44 16
L 56 16 39 0 39 11
Q 39 16 44 16 Z"/>
</g>

<g id="filehtml_0_Layer0_0_FILL">
<path fill-opacity="0" stroke="none" d="
M 0 0
L 0 64 64 64 64 0 0 0 Z"/>
</g>

<g id="Layer2_0_FILL">
<path stroke="none" d="
M 44 16
L 56 16 39 0 39 11
Q 39 16 44 16
M 56 18.95
L 41.85 18.95
Q 35.95 18.95 35.95 13.05
L 35.95 0 14 0
Q 9 0 9 5
L 9 59
Q 9 64 14 64
L 51 64
Q 56 64 56 59
L 56 18.95
M 45.1 34.25
L 46.8 34.25 46.8 43.95
Q 46.8 49.75 41.25 49.75 39.3 49.75 37.85 49
L 37.85 47.35
Q 39.6 48.3 41.2 48.3 45.1 48.3 45.1 44.2
L 45.1 43.05 45.05 43.05
Q 43.85 45.05 41.45 45.05 39.5 45.05 38.3 43.65 37.1 42.25 37.1 39.9 37.1 37.2 38.4 35.6 39.65 34.05 41.9 34.05 44.05 34.05 45.05 35.75
L 45.1 35.75 45.1 34.25
M 16.6 47.85
Q 17.4 48.3 18.05 48.3 20.35 48.3 20.35 44.65
L 20.35 34.25 22.05 34.25 22.05 44.35
Q 22.05 46.95 21 48.35 19.95 49.75 18 49.75 17.3 49.75 16.6 49.45
L 16.6 47.85
M 30.8 34.05
Q 32.85 34.05 34 35.45 35.15 36.85 35.15 39.25 35.15 41.85 33.85 43.45 32.55 45.05 30.35 45.05 28.3 45.05 27.2 43.3
L 27.15 43.3 27.15 49.65 25.45 49.65 25.45 34.25 27.15 34.25 27.15 36.1 27.2 36.1
Q 28.45 34.05 30.8 34.05
M 22 29.75
Q 22.35 30.05 22.35 30.5 22.35 30.95 22 31.3 21.7 31.6 21.2 31.6 20.75 31.6 20.45 31.3 20.15 31 20.15 30.5 20.15 30.05 20.45 29.75 20.75 29.4 21.2 29.4 21.7 29.4 22 29.75
M 32.6 36.45
Q 31.8 35.45 30.4 35.45 28.95 35.45 28.05 36.45 27.15 37.5 27.15 39.05
L 27.15 40.5
Q 27.15 41.8 28 42.7 28.85 43.65 30.15 43.65 31.7 43.65 32.55 42.45 33.4 41.3 33.4 39.2 33.4 37.45 32.6 36.45
M 44.25 36.35
Q 43.4 35.45 42.15 35.45 40.6 35.45 39.7 36.6 38.8 37.7 38.8 39.75 38.8 41.5 39.65 42.6 40.5 43.65 41.9 43.65 43.35 43.65 44.2 42.6 45.1 41.6 45.1 40.05
L 45.1 38.5
Q 45.1 37.25 44.25 36.35 Z"/>
</g>

<g id="Layer0_0_FILL">
<path fill-opacity="0" stroke="none" d="
M 0 0
L 0 64 64 64 64 0 0 0 Z"/>
</g>

<g id="filejs_0_Layer1_0_FILL">
<path stroke="none" d="
M 44 16
L 56 16 39 0 39 11
Q 39 16 44 16
M 56 18.95
L 41.85 18.95
Q 35.95 18.95 35.95 13.05
L 35.95 0 14 0
Q 9 0 9 5
L 9 59
Q 9 64 14 64
L 51 64
Q 56 64 56 59
L 56 18.95
M 44.35 46.4
Q 44.35 44.7 42.95 43.65 41.9 42.85 39 41.55 36 40.25 34.8 39.05 33.1 37.5 33.1 35.15 33.1 32.65 34.8 31.2 36.8 29.4 40.2 29.4 44.1 29.4 45.65 29.9
L 45.3 32.65
Q 42.65 31.75 39.9 31.75 35.6 31.75 35.6 34.6 35.6 36.05 36.8 37 37.55 37.5 40.3 38.7 43.45 40.1 44.75 41.3 46.85 43.15 46.85 45.75 46.85 51.9 38.35 51.9 35.2 51.9 32.85 51.25
L 33.4 48.6
Q 36.1 49.55 38.75 49.55 44.35 49.55 44.35 46.4
M 25.25 29.8
L 28.4 29.8
Q 28.3 32.25 28.3 35.3 28.15 38.4 28.15 42.1 28.15 44.85 27.75 46.55 27.25 48.25 26.3 49.4 25.4 50.7 23.85 51.25 22.4 51.75 20.3 51.75 18.75 51.75 17.4 51.5
L 17.7 49
Q 18.85 49.55 20.05 49.55 21.45 49.55 22.65 49.15 23.7 48.75 24.35 47.95 25 47.05 25.25 45.75 25.55 44.55 25.55 42.45 25.55 34.9 25.25 29.8 Z"/>
</g>

<g id="filejs_0_Layer0_0_FILL">
<path fill-opacity="0" stroke="none" d="
M 0 0
L 0 64 64 64 64 0 0 0 Z"/>
</g>

<g id="fileless_0_Layer2_0_FILL">
<path stroke="none" d="
M 44 16
L 56 16 39 0 39 11
Q 39 16 44 16
M 56 18.95
L 41.85 18.95
Q 35.95 18.95 35.95 13.05
L 35.95 0 14 0
Q 9 0 9 5
L 9 59
Q 9 64 14 64
L 51 64
Q 56 64 56 59
L 56 18.95
M 51.7 33.9
L 51.7 35.75
Q 50.45 34.9 48.5 34.9 48 34.9 47.45 35 46.9 35.15 46.5 35.4 46.05 35.65 45.8 36.05 45.55 36.45 45.55 37 45.55 37.55 45.75 37.95 45.95 38.35 46.3 38.65 46.7 39 47.3 39.3 47.85 39.6 48.6 39.95 49.35 40.35 50 40.75 50.7 41.15 51.2 41.65 51.7 42.15 52 42.75 52.3 43.35 52.3 44.15 52.3 45.2 51.9 45.9 51.5 46.65 50.8 47.1 50.1 47.55 49.2 47.75 48.3 47.95 47.3 47.95 46.95 47.95 46.5 47.9 46 47.85 45.5 47.75 44.95 47.6 44.5 47.45 44.05 47.3 43.8 47.15
L 43.8 45.2
Q 44.1 45.5 44.6 45.7 45.05 45.95 45.55 46.1 46.1 46.3 46.6 46.35 47.1 46.45 47.55 46.45 49.1 46.45 49.85 45.9 50.6 45.35 50.6 44.25 50.6 43.7 50.35 43.3 50.1 42.85 49.65 42.5 49.2 42.15 48.6 41.85 48 41.55 47.3 41.15 46.55 40.8 45.9 40.4 45.3 40.05 44.8 39.6 44.35 39.1 44.1 38.55 43.8 37.95 43.8 37.15 43.8 36.2 44.25 35.5 44.65 34.8 45.35 34.3 46 33.85 46.9 33.65 47.75 33.4 48.7 33.4 50.75 33.4 51.7 33.9
M 41.05 33.9
L 41.05 35.75
Q 39.8 34.9 37.85 34.9 37.35 34.9 36.8 35 36.25 35.15 35.85 35.4 35.4 35.65 35.15 36.05 34.9 36.45 34.9 37 34.9 37.55 35.1 37.95 35.3 38.35 35.65 38.65 36.05 39 36.65 39.3 37.2 39.6 37.95 39.95 38.7 40.35 39.35 40.75 40.05 41.15 40.55 41.65 41.05 42.15 41.35 42.75 41.65 43.35 41.65 44.15 41.65 45.2 41.25 45.9 40.85 46.65 40.15 47.1 39.45 47.55 38.55 47.75 37.65 47.95 36.65 47.95 36.3 47.95 35.85 47.9 35.35 47.85 34.85 47.75 34.3 47.6 33.85 47.45 33.4 47.3 33.15 47.15
L 33.15 45.2
Q 33.45 45.5 33.95 45.7 34.4 45.95 34.9 46.1 35.45 46.3 35.95 46.35 36.45 46.45 36.9 46.45 38.45 46.45 39.2 45.9 39.95 45.35 39.95 44.25 39.95 43.7 39.7 43.3 39.45 42.85 39 42.5 38.55 42.15 37.95 41.85 37.35 41.55 36.65 41.15 35.9 40.8 35.25 40.4 34.65 40.05 34.15 39.6 33.7 39.1 33.45 38.55 33.15 37.95 33.15 37.15 33.15 36.2 33.6 35.5 34 34.8 34.7 34.3 35.35 33.85 36.25 33.65 37.1 33.4 38.05 33.4 40.1 33.4 41.05 33.9
M 15.8 33.65
L 15.8 46.2 21.45 46.2 21.45 47.7 14.15 47.7 14.15 33.65 15.8 33.65
M 30.75 33.65
L 30.75 35.15 25.25 35.15 25.25 39.8 30.3 39.8 30.3 41.3 25.25 41.3 25.25 46.2 31.05 46.2 31.05 47.7 23.6 47.7 23.6 33.65 30.75 33.65 Z"/>
</g>

<g id="fileless_0_Layer0_0_FILL">
<path fill-opacity="0" stroke="none" d="
M 0 0
L 0 64 64 64 64 0 0 0 Z"/>
</g>

<g id="file_pdf_0_Layer1_0_FILL">
<path stroke="none" d="
M 56 18.95
L 41.85 18.95
Q 35.95 18.95 35.95 13.05
L 35.95 0 14 0
Q 9 0 9 5
L 9 59
Q 9 64 14 64
L 51 64
Q 56 64 56 59
L 56 18.95
M 18.4 36.2
L 18.45 36.2
Q 19.75 33.95 22.35 33.95 24.5 33.95 25.75 35.45 26.95 37 26.95 39.55 26.95 42.35 25.6 44.05 24.2 45.75 21.8 45.75 19.6 45.75 18.45 43.85
L 18.4 43.85 18.4 50.7 16.6 50.7 16.6 34.2 18.4 34.2 18.4 36.2
M 37.65 28.8
L 39.45 28.8 39.45 45.5 37.65 45.5 37.65 43.6 37.6 43.6
Q 36.35 45.75 33.75 45.75 31.6 45.75 30.35 44.25 29.05 42.75 29.05 40.1 29.05 37.3 30.45 35.65 31.9 33.95 34.25 33.95 36.55 33.95 37.6 35.8
L 37.65 35.8 37.65 28.8
M 48.65 30.4
Q 48.15 30.1 47.45 30.1 45.55 30.1 45.55 32.45
L 45.55 34.2 48.2 34.2 48.2 35.75 45.55 35.75 45.55 45.5 43.75 45.5 43.75 35.75 41.85 35.75 41.85 34.2 43.75 34.2 43.75 32.4
Q 43.75 30.6 44.8 29.6 45.8 28.55 47.35 28.55 48.15 28.55 48.65 28.75
L 48.65 30.4
M 34.45 35.45
Q 32.8 35.45 31.85 36.7 30.9 37.9 30.9 40.05 30.9 42 31.8 43.1 32.75 44.25 34.25 44.25 35.75 44.25 36.7 43.15 37.65 42.05 37.65 40.4
L 37.65 38.75
Q 37.65 37.35 36.75 36.4 35.85 35.45 34.45 35.45
M 18.4 39.3
L 18.4 40.9
Q 18.4 42.3 19.3 43.25 20.2 44.25 21.6 44.25 23.25 44.25 24.2 43 25.1 41.75 25.1 39.5 25.1 37.6 24.25 36.55 23.35 35.45 21.9 35.45 20.3 35.45 19.35 36.55 18.4 37.65 18.4 39.3
M 44 16
L 56 16 39 0 39 11
Q 39 16 44 16 Z"/>
</g>

<g id="file_pdf_0_Layer0_0_FILL">
<path fill-opacity="0" stroke="none" d="
M 0 0
L 0 64 64 64 64 0 0 0 Z"/>
</g>

<g id="Layer2_0_FILL">
<path stroke="none" d="
M 56 18.95
L 41.85 18.95
Q 35.95 18.95 35.95 13.05
L 35.95 0 14 0
Q 9 0 9 5
L 9 59
Q 9 64 14 64
L 51 64
Q 56 64 56 59
L 56 18.95
M 40.75 35.6
Q 42 34.05 44.25 34.05 46.4 34.05 47.4 35.75
L 47.45 35.75 47.45 34.25 49.15 34.25 49.15 43.95
Q 49.15 49.75 43.6 49.75 41.65 49.75 40.2 49
L 40.2 47.35
Q 41.95 48.3 43.55 48.3 47.45 48.3 47.45 44.2
L 47.45 43.05 47.4 43.05
Q 46.2 45.05 43.8 45.05 41.85 45.05 40.65 43.65 39.45 42.25 39.45 39.9 39.45 37.2 40.75 35.6
M 17.65 36.1
L 17.7 36.1
Q 18.95 34.05 21.3 34.05 23.35 34.05 24.5 35.45 25.65 36.85 25.65 39.25 25.65 41.85 24.35 43.45 23.05 45.05 20.85 45.05 18.8 45.05 17.7 43.3
L 17.65 43.3 17.65 49.65 15.95 49.65 15.95 34.25 17.65 34.25 17.65 36.1
M 33.45 34.05
Q 35.15 34.05 36.1 35.15 37 36.25 37 38.35
L 37 44.8 35.3 44.8 35.3 38.8
Q 35.3 35.45 32.85 35.45 31.6 35.45 30.8 36.4 29.95 37.35 29.95 38.8
L 29.95 44.8 28.25 44.8 28.25 34.25 29.95 34.25 29.95 36 30 36
Q 31.2 34.05 33.45 34.05
M 17.65 40.5
Q 17.65 41.8 18.5 42.7 19.35 43.65 20.65 43.65 22.2 43.65 23.05 42.45 23.9 41.3 23.9 39.2 23.9 37.45 23.1 36.45 22.3 35.45 20.9 35.45 19.45 35.45 18.55 36.45 17.65 37.5 17.65 39.05
L 17.65 40.5
M 46.6 36.35
Q 45.75 35.45 44.5 35.45 42.95 35.45 42.05 36.6 41.15 37.7 41.15 39.75 41.15 41.5 42 42.6 42.85 43.65 44.25 43.65 45.7 43.65 46.55 42.6 47.45 41.6 47.45 40.05
L 47.45 38.5
Q 47.45 37.25 46.6 36.35
M 44 16
L 56 16 39 0 39 11
Q 39 16 44 16 Z"/>
</g>

<g id="Layer0_0_FILL">
<path fill-opacity="0" stroke="none" d="
M 0 0
L 0 64 64 64 64 0 0 0 Z"/>
</g>

<g id="file_video_0_Layer1_0_FILL">
<path stroke="none" d="
M 56 18.95
L 41.85 18.95
Q 35.95 18.95 35.95 13.05
L 35.95 0 14 0
Q 9 0 9 5
L 9 59
Q 9 64 14 64
L 51 64
Q 56 64 56 59
L 56 18.95
M 47 24
L 50 24 50 21 51 21 51 60 50 60 50 57 47 57 47 60 18 60 18 57 15 57 15 60 14 60 14 21 15 21 15 24 18 24 18 21 47 21 47 24
M 46 51
L 46 49 19 49 19 51 46 51
M 50 54
L 50 51 47 51 47 54 50 54
M 18 54
L 18 51 15 51 15 54 18 54
M 15 45
L 15 48 18 48 18 45 15 45
M 18 42
L 18 39 15 39 15 42 18 42
M 15 33
L 15 36 18 36 18 33 15 33
M 18 30
L 18 27 15 27 15 30 18 30
M 47 45
L 47 48 50 48 50 45 47 45
M 47 39
L 47 42 50 42 50 39 47 39
M 46 32
L 46 30 19 30 19 32 46 32
M 50 36
L 50 33 47 33 47 36 50 36
M 50 30
L 50 27 47 27 47 30 50 30
M 44 16
L 56 16 39 0 39 11
Q 39 16 44 16 Z"/>
</g>

<g id="file_video_0_Layer0_0_FILL">
<path fill-opacity="0" stroke="none" d="
M 0 0
L 0 64 64 64 64 0 0 0 Z"/>
</g>

<g id="file_zip_0_Layer1_0_FILL">
<path stroke="none" d="
M 56 18.95
L 41.85 18.95
Q 35.95 18.95 35.95 13.05
L 35.95 0 14 0
Q 9 0 9 5
L 9 59
Q 9 64 14 64
L 51 64
Q 56 64 56 59
L 56 18.95
M 22 10
L 22 6 18 6 18 2 22 2 22 6 26 6 26 10 22 10 22 14 26 14 26 18 22 18 22 22 26 22 26 26 22 26 22 30 26 30 26 34 22 34 22 38 18 38 18 34 22 34 22 30 18 30 18 26 22 26 22 22 18 22 18 18 22 18 22 14 18 14 18 10 22 10
M 18 40
L 26 40 29 54 15 54 18 40
M 24 48
Q 24 47.2 23.4 46.6 22.8 46 22 46 21.2 46 20.6 46.6 20 47.2 20 48 20 48.8 20.6 49.4 21.2 50 22 50 22.8 50 23.4 49.4 24 48.8 24 48
M 44 16
L 56 16 39 0 39 11
Q 39 16 44 16 Z"/>
</g>

<g id="file_zip_0_Layer0_0_FILL">
<path fill-opacity="0" stroke="none" d="
M 64 0
L 0 0 0 64 64 64 64 0 Z"/>
</g>

<g id="file_0_Layer1_0_FILL">
<path stroke="none" d="
M 44 16
L 56 16 39 0 39 11
Q 39 16 44 16
M 56 18.95
L 41.85 18.95
Q 35.95 18.95 35.95 13.05
L 35.95 0 14 0
Q 9 0 9 5
L 9 59
Q 9 64 14 64
L 51 64
Q 56 64 56 59
L 56 18.95 Z"/>
</g>

<g id="file_0_Layer0_0_FILL">
<path fill-opacity="0" stroke="none" d="
M 64 0
L 0 0 0 64 64 64 64 0 Z"/>
</g>

<g id="Layer1_0_FILL">
<path stroke="none" d="
M 64 49
L 64 21
Q 64 16 59 16
L 29 16 24 8 5 8 0 16 0 49
Q 0 54 5 54
L 59 54
Q 64 54 64 49
M 47 36
L 47 27 50 27 50 36 59 36 59 39 50 39 50 48 47 48 47 39 38 39 38 36 47 36 Z"/>
</g>

<g id="Layer0_0_FILL">
<path fill-opacity="0" stroke="none" d="
M 0 0
L 0 64 64 64 64 0 0 0 Z"/>
</g>

<g id="folder_back_0_Layer1_0_FILL">
<path stroke="none" d="
M 64 49
L 64 21
Q 64 16 59 16
L 29 16 24 8 5 8 0 16 0 49
Q 0 54 5 54
L 59 54
Q 64 54 64 49
M 8.5 35
L 18.5 25 21 27.5 13.5 35 21 42.5 18.5 45 8.5 35 Z"/>
</g>

<g id="folder_back_0_Layer0_0_FILL">
<path fill-opacity="0" stroke="none" d="
M 0 0
L 0 64 64 64 64 0 0 0 Z"/>
</g>

<g id="folder_0_Layer1_0_FILL">
<path stroke="none" d="
M 64 49
L 64 21
Q 64 16 59 16
L 29 16 24 8 5 8 0 16 0 49
Q 0 54 5 54
L 59 54
Q 64 54 64 49 Z"/>
</g>

<g id="folder_0_Layer0_0_FILL">
<path fill-opacity="0" stroke="none" d="
M 64 0
L 0 0 0 64 64 64 64 0 Z"/>
</g>

<g id="form_fields_0_Layer1_0_FILL">
<path stroke="none" d="
M 64 48
L 64 12
Q 47.958984375 2.084375 31 12 15.9541015625 1.9193359375 0 12
L 0 48
Q 15.95 37.9 31 48 47.95 38.1 64 48
M 0 56
Q 15.95 45.9 31 56 47.95 46.1 64 56
L 64 51
Q 47.95 41.1 31 51 15.95 40.9 0 51
L 0 56 Z"/>
</g>

<g id="form_fields_0_Layer0_0_FILL">
<path fill-opacity="0" stroke="none" d="
M 0 0
L 0 64 64 64 64 0 0 0 Z"/>
</g>

<g id="fullscreen_0_Layer1_0_FILL">
<path stroke="none" d="
M 4 39
L 0 39 0 64 25 64 25 60 6 60 12 54 10 52 4 58 4 39
M 25 4
L 25 0 0 0 0 25 4 25 4 6 10 12 12 10 6 4 25 4
M 64 39
L 60 39 60 58 54 52 52 54 58 60 39 60 39 64 64 64 64 39
M 64 25
L 64 0 39 0 39 4 58 4 52 10 54 12 60 6 60 25 64 25 Z"/>
</g>

<g id="fullscreen_0_Layer0_0_FILL">
<path fill-opacity="0" stroke="none" d="
M 64 0
L 0 0 0 64 64 64 64 0 Z"/>
</g>

<g id="iconGlobe_0_Layer0_0_FILL">
<path fill-opacity="0" stroke="none" d="
M 0 0
L 0 5 5 5 5 0 0 0 Z"/>
</g>

<path id="iconGlobe_0_Layer0_0_1_STROKES" stroke="#FFFFFF" stroke-width="2" stroke-linejoin="round" stroke-linecap="round" d="
M 51.05 10.8
Q 51.05 10.6 51.05 10.4 50.9 10.3 50.8 10.2
M 51.95 10.85
Q 51.95 11.05 51.95 11.25 51.9 11.4 51.9 11.6 51.35 14.2 47.35 16.25 47.4 16.3 47.45 16.4 51.55 22.35 52.15 30.15 57.85 26.45 58.6 21.75 58.65 21.25 58.65 20.85 58.55 20.65 58.5 20.5
M 47.35 16.25
Q 47.15 16.3 47 16.4 46.5 16.6 46 16.8 43 18.1 39.3 18.7 39.1 18.75 38.9 18.8 41.5 26.6 41.35 34.35 46.35 33.25 50.5 30.95 51.15 30.65 51.9 30.3 52 30.2 52.15 30.15 52.25 31.3 52.25 32.5 52.3 39.85 48.9 45.85 50.55 44.9 52.15 43.7 52.9 43.2 53.6 42.7 59.8 37.45 60.6 30.65 60.65 29.7 60.65 28.9
M 41.35 34.35
L 41.3 34.35
Q 37.05 35.35 32.35 35.4 32.1 35.4 31.9 35.4
L 31.9 49.95
Q 32.6 49.95 33.3 49.95 35.85 49.9 38.25 49.5 41.15 41.95 41.35 34.35 Z
M 35.95 58.1
Q 44.8 52.9 48.9 45.85 45.9 47.5 42.6 48.5 40.5 49.15 38.25 49.5 36.6 53.8 34.05 58.1
M 32.5 5.3
Q 36.6 12.1 38.85 18.7 38.85 18.75 38.9 18.8 36 19.25 32.8 19.3 32.35 19.3 31.9 19.3
L 31.9 35.4
Q 31.35 35.4 30.8 35.4 26.5 35.4 22.75 34.8 22.65 34.8 22.55 34.75 22.75 42.15 25.6 49.55 28.5 49.95 31.7 49.95 31.8 49.95 31.9 49.95
L 31.9 60.1
M 31.3 4.75
Q 21.45 9.35 16.65 16.5 17 16.65 17.35 16.8 20.75 18.2 25 18.85 27.25 12.1 31.6 5.3 31.7 5.15 31.85 5
M 16.65 16.5
Q 16.55 16.65 16.45 16.8 12.3 23.15 11.95 31.4 16.7 33.75 22.55 34.75 22.3 26.9 24.95 18.95 24.95 18.9 25 18.85 25.4 18.9 25.85 18.95 28.6 19.3 31.7 19.3 31.8 19.3 31.9 19.3
L 31.9 5.45
M 10.9 12.5
Q 10.8 12.3 10.75 12.1 10.55 11.45 10.55 10.85
M 16.65 16.5
Q 13 14.85 11.95 12.75
M 11.05 12.75
Q 10.95 12.6 10.9 12.5
M 11.95 31.4
Q 11.9 31.95 11.9 32.5 11.85 40.15 15.6 46.4 19.2 48.2 23.35 49.1 24.45 49.35 25.6 49.55 27.55 54.5 30.65 59.45 20.25 54 15.6 46.4 13.3 45.2 11.2 43.7 5.1 39.3 3.3 33.55
M 31.9 60.1
L 31.9 60.5
M 11.95 31.4
Q 11.5 31.2 11.05 30.95 5.9 28.3 4.1 24.8 3.85 24.3 3.65 23.75
M 34.15 5.3
Q 42.8 9.7 47.35 16.25"/>

<path id="iconGlobe_0_Layer0_0_2_STROKES" stroke="#FFFFFF" stroke-width="5" stroke-linejoin="round" stroke-linecap="round" d="
M 51.05 10.4
Q 51.15 10.5 51.25 10.6 51.6 10.95 51.95 11.25
M 58.5 20.5
Q 56.35 15.65 52.35 11.65 52.2 11.5 52.1 11.4 52 11.35 51.95 11.25
M 58.65 20.85
Q 60.25 24.65 60.65 28.9 60.8 30.4 60.8 32 60.8 43.9 52.35 52.35 44.55 60.2 33.8 60.75 33.25 60.8 32.8 60.8 32.75 60.8 32.7 60.8
M 10.9 12.5
Q 11.15 12.2 11.45 11.9 11.55 11.75 11.65 11.65 20.1 3.25 32 3.25 32.25 3.25 32.5 3.25 33 3.25 33.5 3.3 43.4 3.75 50.8 10.2
M 32.7 60.8
Q 32.6 60.8 32.5 60.8 32.45 60.8 32.4 60.8 32.25 60.8 32.1 60.8
M 4.1 24.8
Q 5.8 17.95 10.85 12.55 10.85 12.5 10.9 12.5
M 3.3 33.55
Q 3.8 44.45 11.65 52.35 20.05 60.75 31.9 60.8 31.95 60.8 32 60.8 32.05 60.8 32.1 60.8
M 4.1 24.8
Q 3.25 28.2 3.25 32 3.25 32.8 3.3 33.55"/>

<path id="iconGlobe_0_Layer0_0_3_STROKES" stroke="#FFFFFF" stroke-width="3" stroke-linejoin="round" stroke-linecap="round" d="
M 33.5 61.5
Q 33.1 61.15 32.7 60.8
M 32.5 3.5
L 32.5 4.4
Q 33 3.95 33.5 3.55 33 4.2 32.5 4.85
L 32.5 4.9
Q 32.6 4.9 32.75 5 33.05 5.15 33.4 5.3 33.25 5.1 33.1 4.85
M 32 4.65
Q 32.05 4.65 32.2 4.75 32.3 4.8 32.5 4.85
L 32.5 4.4
Q 32.25 4.5 32 4.65 31.75 4.5 31.5 4.4
M 32.5 4.9
L 32.5 5.3
M 31.9 60.1
Q 32.15 60.3 32.4 60.5 32.55 60.65 32.7 60.8
M 32.5 61.5
Q 32.3 61.15 32.1 60.8 32 60.65 31.9 60.5 31.55 60 31.25 59.45 31.55 59.75 31.9 60.1
M 32.8 59.45
Q 34.05 58.8 35.2 58.1 34.5 59.3 33.75 60.45"/>

<g id="iconHide_0_Layer1_0_FILL">
<path stroke="none" d="
M 54.4 53.4
Q 55.016015625 53.3947265625 55.45 52.95 55.8947265625 52.516015625 55.9 51.9 55.8947265625 51.283984375 55.45 50.85 55.016015625 50.4052734375 54.4 50.4
L 48.4 50.4
Q 47.783984375 50.4052734375 47.35 50.85 46.9052734375 51.283984375 46.9 51.9 46.9052734375 52.516015625 47.35 52.95 47.783984375 53.3947265625 48.4 53.4
L 54.4 53.4
M 18.4 53.4
Q 19.016015625 53.3947265625 19.45 52.95 19.8947265625 52.516015625 19.9 51.9 19.8947265625 51.283984375 19.45 50.85 19.016015625 50.4052734375 18.4 50.4
L 12.4 50.4
Q 11.783984375 50.4052734375 11.35 50.85 10.9052734375 51.283984375 10.9 51.9 10.9052734375 52.516015625 11.35 52.95 11.783984375 53.3947265625 12.4 53.4
L 18.4 53.4
M 36.4 50.4
L 30.4 50.4
Q 29.783984375 50.4052734375 29.35 50.85 28.9052734375 51.283984375 28.9 51.9 28.9052734375 52.516015625 29.35 52.95 29.783984375 53.3947265625 30.4 53.4
L 36.4 53.4
Q 37.016015625 53.3947265625 37.45 52.95 37.8947265625 52.516015625 37.9 51.9 37.8947265625 51.283984375 37.45 50.85 37.016015625 50.4052734375 36.4 50.4
M 3.3 44.5
Q 3.2947265625 43.883984375 2.85 43.45 2.416015625 43.0052734375 1.8 43 1.183984375 43.0052734375 0.75 43.45 0.3052734375 43.883984375 0.3 44.5
L 0.3 50.5
Q 0.3052734375 51.116015625 0.75 51.55 1.183984375 51.9947265625 1.8 52 2.416015625 51.9947265625 2.85 51.55 3.2947265625 51.116015625 3.3 50.5
L 3.3 44.5
M 3.3 26.5
Q 3.2947265625 25.883984375 2.85 25.45 2.416015625 25.0052734375 1.8 25 1.183984375 25.0052734375 0.75 25.45 0.3052734375 25.883984375 0.3 26.5
L 0.3 32.5
Q 0.3052734375 33.116015625 0.75 33.55 1.183984375 33.9947265625 1.8 34 2.416015625 33.9947265625 2.85 33.55 3.2947265625 33.116015625 3.3 32.5
L 3.3 26.5
M 8.85 11.15
Q 8.416015625 10.7052734375 7.8 10.7
L 1.8 10.7
Q 1.183984375 10.7052734375 0.75 11.15 0.3052734375 11.583984375 0.3 12.2
L 0.3 14.5
Q 0.3052734375 15.116015625 0.75 15.55 1.183984375 15.9947265625 1.8 16 2.416015625 15.9947265625 2.85 15.55 3.2947265625 15.116015625 3.3 14.5
L 3.3 13.7 7.8 13.7
Q 8.416015625 13.6947265625 8.85 13.25 9.2947265625 12.816015625 9.3 12.2 9.2947265625 11.583984375 8.85 11.15
M 26.85 11.15
Q 26.416015625 10.7052734375 25.8 10.7
L 19.8 10.7
Q 19.183984375 10.7052734375 18.75 11.15 18.3052734375 11.583984375 18.3 12.2 18.3052734375 12.816015625 18.75 13.25 19.183984375 13.6947265625 19.8 13.7
L 25.8 13.7
Q 26.416015625 13.6947265625 26.85 13.25 27.2947265625 12.816015625 27.3 12.2 27.2947265625 11.583984375 26.85 11.15
M 63.75 41.8
Q 63.7447265625 41.183984375 63.3 40.75 62.866015625 40.3052734375 62.25 40.3 61.633984375 40.3052734375 61.2 40.75 60.7552734375 41.183984375 60.75 41.8
L 60.75 47.8
Q 60.7552734375 48.416015625 61.2 48.85 61.633984375 49.2947265625 62.25 49.3 62.866015625 49.2947265625 63.3 48.85 63.7447265625 48.416015625 63.75 47.8
L 63.75 41.8
M 43.8 13.7
Q 44.416015625 13.6947265625 44.85 13.25 45.2947265625 12.816015625 45.3 12.2 45.2947265625 11.583984375 44.85 11.15 44.416015625 10.7052734375 43.8 10.7
L 37.8 10.7
Q 37.183984375 10.7052734375 36.75 11.15 36.3052734375 11.583984375 36.3 12.2 36.3052734375 12.816015625 36.75 13.25 37.183984375 13.6947265625 37.8 13.7
L 43.8 13.7
M 63.75 23.8
Q 63.7447265625 23.183984375 63.3 22.75 62.866015625 22.3052734375 62.25 22.3 61.633984375 22.3052734375 61.2 22.75 60.7552734375 23.183984375 60.75 23.8
L 60.75 29.8
Q 60.7552734375 30.416015625 61.2 30.85 61.633984375 31.2947265625 62.25 31.3 62.866015625 31.2947265625 63.3 30.85 63.7447265625 30.416015625 63.75 29.8
L 63.75 23.8
M 62.85 11.15
Q 62.416015625 10.7052734375 61.8 10.7
L 55.8 10.7
Q 55.183984375 10.7052734375 54.75 11.15 54.3052734375 11.583984375 54.3 12.2 54.3052734375 12.816015625 54.75 13.25 55.183984375 13.6947265625 55.8 13.7
L 61.8 13.7
Q 62.416015625 13.6947265625 62.85 13.25 63.2947265625 12.816015625 63.3 12.2 63.2947265625 11.583984375 62.85 11.15 Z"/>
</g>

<g id="iconHide_0_Layer0_0_FILL">
<path fill-opacity="0" stroke="none" d="
M 64 0
L 0 0 0 64 64 64 64 0 Z"/>
</g>

<g id="circle_0_Layer0_0_FILL">
<path stroke="none" d="
M 41.8 41.8
Q 49 34.65 49 24.5 49 14.35 41.8 7.15 34.65 0 24.5 0 14.35 0 7.15 7.15 0 14.35 0 24.5 0 34.65 7.15 41.8 14.35 49 24.5 49 34.65 49 41.8 41.8 Z"/>
</g>

<g id="IconKey_0_Layer1_0_FILL">
<path stroke="none" d="
M 49.25 38.55
Q 49.32421875 38.5470703125 49.35 38.5 50.65390625 37.86796875 51.9 38.15 51.944140625 38.162109375 51.95 38.15 52.9953125 38.4451171875 54 39.25
L 54 41
Q 53.9982421875 42.24453125 54.85 43.1 55.75546875 44.0017578125 57 44 58.24453125 44.0017578125 59.1 43.1 60.0017578125 42.24453125 60 41
L 60 35 61 35
Q 62.24453125 35.0017578125 63.1 34.1 64.0017578125 33.24453125 64 32 64.0017578125 30.75546875 63.1 29.85 62.24453125 28.9982421875 61 29
L 26.4 29
Q 25.8873046875 23.4052734375 23.05 19.2
L 23.05 19.25
Q 19.1609375 13.3453125 13.5 13.5 7.85 13.341796875 3.9 19.2
L 3.9 19.25
Q 0.50234375 24.3283203125 0.5 31.5 0.50234375 38.671484375 3.9 43.75
L 3.9 43.75
Q 7.85 49.658203125 13.5 49.5 19.1609375 49.6544921875 23.05 43.75
L 23 43.75
Q 25.633984375 39.988671875 26.25 35
L 42 35 42 43
Q 41.9982421875 44.24453125 42.85 45.1 43.75546875 46.0017578125 45 46 46.24453125 46.0017578125 47.1 45.1 48.0017578125 44.24453125 48 43
L 48 39.35
Q 48.639453125 38.8775390625 49.25 38.55
M 8.9 22.55
L 8.9 22.55
Q 10.8515625 19.655859375 13.5 19.5 16.137109375 19.651953125 18.05 22.55
L 18.05 22.55
Q 20.4958984375 26.2859375 20.5 31.5 20.5 31.696875 20.5 31.9
L 20.5 32.05
Q 20.3990234375 36.9255859375 18.05 40.4
L 18.05 40.45
Q 16.137109375 43.3478515625 13.5 43.5 10.8515625 43.344140625 8.9 40.4
L 8.9 40.45
Q 6.4974609375 36.7283203125 6.5 31.5 6.4974609375 26.271484375 8.9 22.55 Z"/>
</g>

<g id="IconKey_0_Layer0_0_FILL">
<path fill-opacity="0" stroke="none" d="
M 64 0
L 0 0 0 64 64 64 64 0 Z"/>
</g>

<g id="icon_logout_0_Layer1_0_FILL">
<path fill-opacity="0" stroke="none" d="
M 15 15
L 15 0 0 0 0 15 15 15 Z"/>
</g>

<g id="icon_logout_0_Layer0_0_FILL">
<path stroke="none" d="
M 8 0
L 7 0
Q 3.78203125 2.49765625 0 4 2.6984375 13.0283203125 7 15
L 8 15
Q 12.2927734375 13.3693359375 15 4 11.1759765625 2.434375 8 0
M 7 3
L 8 3 8 9 7.5 12.3 7 9 7 3 Z"/>
</g>

<g id="menu_0_Layer1_0_FILL">
<path stroke="none" d="
M 62.8 48.15
Q 61.65 47 60 47
L 4 47
Q 2.35 47 1.15 48.15 0 49.35 0 51
L 0 53
Q 0 54.65 1.15 55.8 2.35 57 4 57
L 60 57
Q 61.65 57 62.8 55.8 64 54.65 64 53
L 64 51
Q 64 49.35 62.8 48.15
M 64 31
Q 64 29.35 62.8 28.15 61.65 27 60 27
L 4 27
Q 2.35 27 1.15 28.15 0 29.35 0 31
L 0 33
Q 0 34.65 1.15 35.8 2.35 37 4 37
L 60 37
Q 61.65 37 62.8 35.8 64 34.65 64 33
L 64 31
M 64 11
Q 64 9.35 62.8 8.15 61.65 7 60 7
L 4 7
Q 2.35 7 1.15 8.15 0 9.35 0 11
L 0 13
Q 0 14.65 1.15 15.8 2.35 17 4 17
L 60 17
Q 61.65 17 62.8 15.8 64 14.65 64 13
L 64 11 Z"/>
</g>

<g id="menu_0_Layer0_0_FILL">
<path fill-opacity="0" stroke="none" d="
M 64 64
L 64 0 0 0 0 64 64 64 Z"/>
</g>

<g id="newtab_0_Layer1_0_FILL">
<path stroke="none" d="
M 49.75 33.2
Q 48 30.55 45.75 30.25
L 12.8 30.25
Q 10.5 30.55 8.8 33.2
L 5.35 40.2
Q 4.15 42.6 1.8 43
L 0 43 0 47 64 47 64 43 56.7 43
Q 54.4 42.6 53.2 40.2
L 49.75 33.2
M 44.15 34.3
L 46.1 32.35 47.5 33.8 45.6 35.75 47.5 37.65 46.1 39.05 44.2 37.15 42.2 39.1 40.8 37.65 42.75 35.7 40.8 33.75 42.2 32.35 44.15 34.3 Z"/>
</g>

<g id="newtab_0_Layer0_0_FILL">
<path fill-opacity="0" stroke="none" d="
M 64 0
L 0 0 0 64 64 64 64 0 Z"/>
</g>

<g id="new_window_0_Layer1_0_FILL">
<path stroke="none" d="
M 64 5
Q 64 0 59 0
L 5 0
Q 0 0 0 5
L 0 59
Q 0 64 5 64
L 59 64
Q 64 64 64 59
L 64 5
M 56.6 2.6
Q 57.2 2 58 2 58.8 2 59.4 2.6 60 3.2 60 4 60 4.137109375 59.95 4.25 59.8970703125 4.9029296875 59.4 5.4 58.9029296875 5.8970703125 58.25 5.95 58.137109375 6 58 6 57.2 6 56.6 5.4 56 4.8 56 4 56 3.2 56.6 2.6
M 54 4
Q 54 4.15 54 4.3 53.9 4.9 53.4 5.4 52.9 5.9 52.3 6 52.15 6 52 6 51.2 6 50.6 5.4 50 4.8 50 4 50 3.2 50.6 2.6 51.2 2 52 2 52.8 2 53.4 2.6 54 3.2 54 4
M 47.4 2.6
Q 48 3.2 48 4 48 4.15 48 4.3 47.9 4.9 47.4 5.4 46.9 5.9 46.3 6 46.15 6 46 6 45.2 6 44.6 5.4 44 4.8 44 4 44 3.2 44.6 2.6 45.2 2 46 2 46.8 2 47.4 2.6
M 3 61
L 3 8 61 8 61 61 3 61
M 46 36
L 46 32 33 32 33 19 29 19 29 32 16 32 16 36 29 36 29 49 33 49 33 36 46 36 Z"/>
</g>

<g id="new_window_0_Layer0_0_FILL">
<path fill-opacity="0" stroke="none" d="
M 64 0
L 0 0 0 64 64 64 64 0 Z"/>
</g>

<g id="passchars_0_Layer0_0_FILL">
<path stroke="none" d="
M 13.1 0
Q 12.3 0 11.75 0.85
L 9.2 5.8 6.6 0.85
Q 6.15 0 5.35 0 4.8 0 4.3 0.4 3.85 0.85 3.85 1.35 3.85 1.85 4.1 2.25
L 7.2 6.95 1.5 6.8
Q 0.75 6.75 0.4 7.15 0 7.6 0 8.15 0 8.75 0.45 9.2 0.85 9.65 1.5 9.6
L 7.2 9.4 4.1 14.1
Q 3.85 14.5 3.85 14.95 3.85 15.55 4.3 15.95 4.8 16.4 5.35 16.4 6.15 16.4 6.6 15.55
L 9.2 10.55 11.75 15.45
Q 12.3 16.3 13.1 16.3 13.6 16.3 14.05 15.95 14.5 15.55 14.5 14.95 14.5 14.5 14.2 14.05
L 11.25 9.4 16.8 9.6
Q 17.55 9.65 18 9.2 18.45 8.75 18.45 8.15 18.45 7.6 18 7.15 17.55 6.75 16.8 6.8
L 11.25 6.95 14.2 2.25
Q 14.5 1.75 14.5 1.3 14.5 0.8 14.1 0.4 13.65 0 13.1 0
M 35.1 2.25
Q 35.4 1.75 35.4 1.3 35.4 0.8 35 0.4 34.55 0 34 0 33.2 0 32.7 0.85
L 30.15 5.8 27.55 0.85
Q 27.1 0 26.3 0 25.7 0 25.2 0.4 24.75 0.85 24.75 1.35 24.75 1.85 25.05 2.25
L 28.1 6.95 22.45 6.8
Q 21.7 6.75 21.3 7.15 20.9 7.6 20.9 8.15 20.9 8.75 21.35 9.2 21.75 9.65 22.45 9.6
L 28.1 9.4 25.05 14.1
Q 24.75 14.5 24.75 14.95 24.75 15.55 25.2 15.95 25.7 16.4 26.3 16.4 27.1 16.4 27.55 15.55
L 30.15 10.55 32.7 15.45
Q 33.2 16.3 34 16.3 34.5 16.3 34.95 15.95 35.4 15.55 35.4 14.95 35.4 14.5 35.1 14.05
L 32.2 9.4 37.75 9.6
Q 38.45 9.65 38.9 9.2 39.4 8.75 39.4 8.15 39.4 7.6 38.9 7.15 38.45 6.75 37.75 6.8
L 32.2 6.95 35.1 2.25
M 56.3 1.3
Q 56.3 0.8 55.95 0.4 55.45 0 54.9 0 54.1 0 53.6 0.85
L 51.05 5.8 48.45 0.85
Q 48 0 47.2 0 46.65 0 46.1 0.4 45.65 0.85 45.65 1.35 45.65 1.85 45.95 2.25
L 49 6.95 43.35 6.8
Q 42.6 6.75 42.2 7.15 41.8 7.6 41.8 8.15 41.8 8.75 42.25 9.2 42.65 9.65 43.35 9.6
L 49 9.4 45.95 14.1
Q 45.65 14.5 45.65 14.95 45.65 15.55 46.1 15.95 46.65 16.4 47.2 16.4 48 16.4 48.45 15.55
L 51.05 10.55 53.6 15.45
Q 54.1 16.3 54.9 16.3 55.4 16.3 55.85 15.95 56.3 15.55 56.3 14.95 56.3 14.5 56.05 14.05
L 53.1 9.4 58.65 9.6
Q 59.4 9.65 59.85 9.2 60.3 8.75 60.3 8.15 60.3 7.6 59.85 7.15 59.4 6.75 58.65 6.8
L 53.1 6.95 56.05 2.25
Q 56.3 1.75 56.3 1.3 Z"/>
</g>

<g id="icon_photos_0_Layer1_0_FILL">
<path fill-opacity="0" stroke="none" d="
M 36 0
L 0 0 0 36 36 36 36 0 Z"/>
</g>

<g id="icon_photos_0_Layer0_0_FILL">
<path stroke="none" d="
M 25.05 1.15
Q 23.9 0 22.25 0
L 13.85 0
Q 12.2 0 11 1.15 9.85 2.35 9.85 4 9.85 4.1 9.85 4.2
L 7 4.2
Q 0 4.2 0 11.1
L 0 24.3
Q 0 31.2 7 31.2
L 29 31.2
Q 36 31.2 36 24.3
L 36 11.1
Q 36 4.2 29 4.2
L 26.25 4.2
Q 26.25 4.1 26.25 4 26.25 2.35 25.05 1.15
M 31.5 10.5
Q 30.9 10.5 30.45 10.05 30.05 9.65 30.05 9.05 30.05 8.45 30.45 8 30.9 7.6 31.5 7.6 32.1 7.6 32.5 8 32.95 8.45 32.95 9.05 32.95 9.65 32.5 10.05 32.1 10.5 31.5 10.5
M 27.1 17.25
Q 27.1 21 24.4 23.65 21.75 26.35 18 26.35 14.25 26.35 11.55 23.65 8.9 21 8.9 17.25 8.9 13.5 11.55 10.8 14.25 8.15 18 8.15 21.75 8.15 24.4 10.8 27.1 13.5 27.1 17.25
M 23.15 22.4
Q 25.35 20.3 25.35 17.25 25.35 14.2 23.15 12.05 21.05 9.9 18 9.9 14.95 9.9 12.8 12.05 10.65 14.2 10.65 17.25 10.65 20.3 12.8 22.4 14.95 24.6 18 24.6 21.05 24.6 23.15 22.4
M 22.45 12.75
Q 24.35 14.65 24.35 17.25 24.35 19.85 22.45 21.7 20.6 23.6 18 23.6 15.4 23.6 13.5 21.7 11.65 19.85 11.65 17.25 11.65 14.65 13.5 12.75 15.4 10.9 18 10.9 20.6 10.9 22.45 12.75 Z"/>
</g>

<g id="pin_0_Layer1_0_FILL">
<path stroke="none" d="
M 35 47
L 27 47 27 59 31 64 35 59 35 47
M 44 5
L 48 5 48 0 14 0 14 5 18 5 14 38 4 38 4 43 58 43 58 38 48 38 44 5
M 23 5
L 32 5 32 38 20 38 23 5 Z"/>
</g>

<g id="pin_0_Layer0_0_FILL">
<path fill-opacity="0" stroke="none" d="
M 64 0
L 0 0 0 64 64 64 64 0 Z"/>
</g>

<g id="iconPlugin_0_Layer1_0_FILL">
<path stroke="none" d="
M 57.8 8.95
L 57.75 8.85
Q 57.05 7.8 56.05 6.9 54.6 5.55 52.9 4.75 50.95 3.85 49.3 4 47.65 4.6 47.35 5.4 47.05 6 47.5 7 48.2 8.6 48.25 8.75 48.5 9.8 47.95 10.7 46.8 12.4 44.95 11.8 44.35 11.6 43.8 11.25
L 43.35 10.9 32.85 0.4
Q 31.9 -0.4 31 0.4
L 20.7 10.85
Q 20.05 11.55 19.75 12.45 19.2 14.3 20.9 15.45 21.75 16.05 22.85 15.8 23 15.75 24.6 15.05 25.6 14.6 26.15 14.85 26.95 15.2 27.55 16.85 27.75 18.5 26.85 20.4 26.05 22.1 24.7 23.6 23.8 24.55 22.75 25.25
L 22.65 25.3
Q 21.3 26.4 19.85 26.95 18.25 27.55 16.85 27.4 15.2 26.8 14.85 26 14.6 25.45 15.05 24.45 15.7 22.85 15.75 22.7 16.05 21.6 15.45 20.75 14.3 19.05 12.5 19.6 11.95 19.75 11.35 20.15 10.9 20.5 10.85 20.5
L 0.6 30.75
Q -0.6 31.9 0.6 33.05
L 10.8 43.2 11.25 43.55
Q 11.85 43.95 12.4 44.15 14.25 44.7 15.35 43.05 15.9 42.3 15.75 41.45 15.7 40.85 15.25 39.95 14.8 39 14.7 38.6 14.55 37.9 15 37.35 15.5 36.8 16.75 36.35 18.4 36.2 20.3 37.1 22.05 37.85 23.5 39.25 24.55 40.2 25.2 41.2
L 25.25 41.3
Q 26.3 42.65 26.85 44.1 27.5 45.7 27.35 47.1 26.75 48.75 25.95 49.1 25.35 49.35 24.4 48.95 22.8 48.25 22.65 48.2 21.55 47.9 20.7 48.5 19.4 49.4 19.45 50.7 19.45 51.6 20.1 52.55
L 31.15 63.6
Q 32.1 64.4 33 63.6
L 33.05 63.6 43.4 53.05
Q 44.05 52.4 44.3 51.45 44.9 49.65 43.2 48.5 42.3 47.9 41.25 48.15 41.1 48.2 39.5 48.9 38.5 49.3 37.9 49.05 37.1 48.7 36.55 47.05 36.35 45.4 37.25 43.5 38 41.8 39.4 40.35 40.3 39.35 41.35 38.65
L 41.4 38.6
Q 42.8 37.55 44.25 37 45.85 36.4 47.25 36.5 48.9 37.1 49.25 37.9 49.5 38.5 49.1 39.5 48.4 41.1 48.35 41.25 48.05 42.3 48.65 43.2 49.8 44.9 51.65 44.3 52.55 44 53.25 43.4
L 63.6 33.05
Q 64.4 32.1 63.6 31.2 63.55 31.1 63.5 31.05
L 52.65 20.2
Q 52 19.25 52 18.35 51.95 17.05 53.25 16.15 54.1 15.6 55.2 15.85 55.35 15.9 56.95 16.6 57.95 17.05 58.5 16.8 59.3 16.4 59.9 14.8 60.05 13.4 59.4 11.75 58.85 10.35 57.8 8.95 Z"/>
</g>

<g id="iconPlugin_0_Layer0_0_FILL">
<path fill-opacity="0" stroke="none" d="
M 64 0
L 0 0 0 64 64 64 64 0 Z"/>
</g>

<g id="preview_0_Layer1_0_FILL">
<path stroke="none" d="
M 31.1 15
Q 31.05 15 31 15 11.15 14.9 0 31 11.15 47.1 31 47 31.05 47 31.1 47 32.05 47 33 47 52.85 46.95 64 31 52.85 15.05 33 15 32.05 15 31.1 15
M 51.05 23.7
L 54.05 25.7
Q 54.1 36.75 40.05 42.7 52.4 35.15 51.05 23.7
M 32 21
Q 35.75 21 38.35 23.6 41 26.25 41 30 41 33.75 38.35 36.35 35.75 39 32 39 28.25 39 25.6 36.35 23 33.75 23 30 23 26.25 25.6 23.6 28.25 21 32 21
M 12 24
Q 10.65 35.45 23 43 8.95 37.05 9 26
L 12 24 Z"/>
</g>

<g id="preview_0_Layer0_0_FILL">
<path fill-opacity="0" stroke="none" d="
M 64 0
L 0 0 0 64 64 64 64 0 Z"/>
</g>

<g id="iconPublicApi_0_Layer1_0_FILL">
<path stroke="none" d="
M 63.85 45
L 63.85 29 0 29 0 45 30.5 45 30.5 52.7
Q 29.170703125 53.066796875 28.1 54.05
L 28.1 54.05 28.05 54.1
Q 27.05078125 55.1697265625 26.7 56.5
L 6.5 56.5 6.5 59.5 26.7 59.5
Q 27.0640625 60.82109375 28.1 61.85 29.7400390625 63.50078125 32 63.5 34.266796875 63.5078125 35.85 61.85
L 35.85 61.85
Q 36.9375 60.819921875 37.3 59.5
L 57.5 59.5 57.5 56.5 37.3 56.5
Q 36.9255859375 55.1685546875 35.85 54.1 34.82109375 53.0640625 33.5 52.7
L 33.5 45 63.85 45
M 32 55.5
L 32 55.5
Q 33.0375 55.498046875 33.75 56.2 34.4990234375 56.959765625 34.5 58 34.4921875 59.0154296875 33.75 59.7
L 33.75 59.75 33.7 59.75
Q 33.0154296875 60.4921875 32 60.5 30.959765625 60.4990234375 30.2 59.75 29.49140625 59.0306640625 29.5 58 29.4974609375 56.9923828125 30.15 56.25 30.200390625 56.2255859375 30.2 56.2 30.8498046875 55.6447265625 31.65 55.55
L 31.75 55.5 31.8 55.5
Q 31.9 55.50234375 32 55.5
M 11 35
L 15 35 15 39 11 39 11 35
M 18 39
L 18 35 22 35 22 39 18 39
M 4 35
L 8 35 8 39 4 39 4 35
M 63.85 24
L 63.85 8 0 8 0 24 63.85 24
M 22 14
L 22 18 18 18 18 14 22 14
M 15 14
L 15 18 11 18 11 14 15 14
M 4 18
L 4 14 8 14 8 18 4 18 Z"/>
</g>

<g id="iconPublicApi_0_Layer0_0_FILL">
<path fill-opacity="0" stroke="none" d="
M 64 0
L 0 0 0 64 64 64 64 0 Z"/>
</g>

<g id="sword_0_Layer0_0_FILL">
<path fill="#0099FF" stroke="none" d="
M 44.7 103.75
Q 42.45 85.25 35.3 81.7 34.8810546875 227.778515625 92.2 273.9 50.99296875 210.8341796875 53.6 81.75 46.5373046875 85.3240234375 44.7 103.75
M 33.45 0
L 22.2 0
Q 19 0 16.7 2.25 14.45 4.6 14.45 7.8 14.45 10.95 16.7 13.25 19 15.55 22.2 15.55 23.4 15.55 24.55 15.2 25.1 15 25.7 14.75
L 25.8 14.7
Q 31.15 11.9 34.35 13.1 38.8 14.6 37.85 23.05
L 35.8 60.3
Q 43.0236328125 54.766796875 44.5 44.25 46.028515625 54.7662109375 53.15 60.3
L 51.15 23.05
Q 50.05 1.4 33.45 0
M 83.25 65.7
Q 82.75 65.75 82.25 65.95 81.35 66.3 80.6 67.1 80.3 67.35 80.1 67.55 65.1 71.55 53.4 64.3 46.05 58.65 44.6 53 43 58.65 35.6 64.3 23.95 71.55 8.9 67.55 8.7 67.35 8.45 67.1 7.65 66.3 6.8 65.95 6.25 65.75 5.8 65.7 5.4 65.65 4.95 65.65 4.55 65.65 4.2 65.7 2.6 65.9 1.5 67.1 0 68.5 0 70.6 0 72.65 1.5 74.05 2.9 75.5 4.95 75.5 6.75 75.5 8.05 74.45 22.6 69.7 35.35 77.7 42.45 81.25 44.6 92.65 46.55 81.25 53.7 77.7 66.45 69.7 80.95 74.45 82.3 75.5 84.1 75.5 86.15 75.5 87.55 74.05 89 72.65 89 70.6 89 68.5 87.55 67.1 86.4 65.9 84.85 65.7 84.5 65.65 84.1 65.65 83.65 65.65 83.25 65.7 Z"/>
</g>

<g id="iconSave_0_Layer0_0_FILL">
<path stroke="none" d="
M 8 16
L 8 21 17 21 17 16 8 16
M 9 20
L 9 17 11 17 11 20 9 20
M 18 12
L 18 4 7 4 7 12 18 12
M 21 21
L 21 4 19 4 19 13 6 13 6 4 4 4 4 21 7 21 7 15 18 15 18 21 21 21 Z"/>
</g>

<g id="iconSecurity_0_Layer1_0_FILL">
<path fill-opacity="0.9882352941176471" stroke="none" d="
M 30.05 1.5
Q 21.85 8.6 8.15 15.25 6 56.7 32.1 63.45 58.3 56.7 56.15 15.25 42.45 8.6 34.25 1.5 32.05 -0.3 30.05 1.5
M 45 20.85
L 48.85 24.7 28.2 45.35 16.55 33.7 20.35 29.95 28.15 37.75 45 20.85 Z"/>
</g>

<g id="iconSecurity_0_Layer0_0_FILL">
<path fill-opacity="0" stroke="none" d="
M 64 0
L 0 0 0 64 64 64 64 0 Z"/>
</g>

<g id="icon_settings_0_Layer1_0_FILL">
<path fill-opacity="0" stroke="none" d="
M 0 0
L 0 36 36 36 36 0 0 0 Z"/>
</g>

<g id="icon_settings_0_Layer0_0_FILL">
<path stroke="none" d="
M 33.4 11.85
Q 34.5 11.45 34.05 10.25
L 33.5 8.85
Q 33.05 7.4 31.85 7.8
L 28.6 9.3
Q 28.05 8.6 27.4 7.95 25.7 6.25 23.7 5.3
L 24.8 2.5
Q 25.2 1.4 24.05 0.85
L 22.65 0.25
Q 21.3 -0.45 20.8 0.65
L 19.45 4.1
Q 18.6 4 17.75 4 15.3 4 13.15 4.75
L 11.95 2
Q 11.55 0.9 10.35 1.35
L 8.95 1.9
Q 7.5 2.35 7.9 3.55
L 9.4 6.85
Q 8.7 7.35 8.1 7.95 6.35 9.75 5.35 11.85
L 2.5 10.65
Q 1.4 10.25 0.85 11.4
L 0.25 12.8
Q -0.45 14.15 0.65 14.65
L 4.2 16.05
Q 4.1 16.8 4.1 17.65 4.1 20.1 4.85 22.2
L 2 23.45
Q 0.9 23.85 1.35 25.05
L 1.9 26.45
Q 2.35 27.9 3.55 27.5
L 7 26
Q 7.5 26.6 8.1 27.2 9.85 29 11.95 30
L 10.75 32.9
Q 10.35 34 11.5 34.55
L 12.9 35.15
Q 14.25 35.85 14.75 34.75
L 16.15 31.2
Q 16.95 31.3 17.75 31.3 20.2 31.3 22.4 30.55
L 23.6 33.4
Q 24 34.5 25.2 34.05
L 26.6 33.5
Q 28.05 33.05 27.65 31.85
L 26.15 28.45
Q 26.8 27.9 27.4 27.3
L 27.45 27.2
Q 29.1 25.55 30.1 23.6
L 32.9 24.75
Q 34 25.15 34.55 24
L 35.15 22.6
Q 35.85 21.25 34.75 20.75
L 31.3 19.4
Q 31.4 18.55 31.4 17.65 31.4 15.2 30.65 13.05
L 33.4 11.85
M 25.35 9.95
Q 28.6 13.15 28.6 17.65 28.6 22.1 25.35 25.2 22.3 28.45 17.75 28.45 13.3 28.45 10.15 25.2 6.95 22.1 6.95 17.65 6.95 13.2 10.15 10.05
L 10.2 9.95
Q 13.35 6.8 17.75 6.8 22.3 6.8 25.35 9.95
M 24.45 10.85
L 24.45 10.8
Q 21.765234375 8.051953125 17.75 8.05 13.8408203125 8.0521484375 11.05 10.85 8.2013671875 13.6916015625 8.2 17.65 8.1947265625 21.5587890625 11 24.3
L 11.05 24.3
Q 13.7892578125 27.1529296875 17.75 27.15 21.7845703125 27.140234375 24.45 24.25
L 24.45 24.3
Q 27.305078125 21.5763671875 27.3 17.65 27.298828125 13.64140625 24.45 10.85
M 23 12.25
L 23.05 12.25
Q 25.3013671875 14.4767578125 25.3 17.65 25.2947265625 20.7236328125 23.05 22.85 23.0373046875 22.9013671875 23 22.9 20.9154296875 25.159375 17.75 25.15 14.628515625 25.146875 12.45 22.9
L 12.45 22.85
Q 10.205078125 20.7236328125 10.2 17.65 10.1986328125 14.5083984375 12.45 12.25 14.6591796875 10.0478515625 17.75 10.05 20.9162109375 10.0478515625 23 12.25 Z"/>

<path fill-opacity="0" stroke="none" d="
M 28.6 17.65
Q 28.6 13.15 25.35 9.95 22.3 6.8 17.75 6.8 13.35 6.8 10.2 9.95
L 10.15 10.05
Q 6.95 13.2 6.95 17.65 6.95 22.1 10.15 25.2 13.3 28.45 17.75 28.45 22.3 28.45 25.35 25.2 28.6 22.1 28.6 17.65
M 24.45 10.8
L 24.45 10.85
Q 27.298828125 13.64140625 27.3 17.65 27.305078125 21.5763671875 24.45 24.3
L 24.45 24.25
Q 21.7845703125 27.140234375 17.75 27.15 13.7892578125 27.1529296875 11.05 24.3
L 11 24.3
Q 8.1947265625 21.5587890625 8.2 17.65 8.2013671875 13.6916015625 11.05 10.85 13.8408203125 8.0521484375 17.75 8.05 21.765234375 8.051953125 24.45 10.8
M 23.05 12.25
L 23 12.25
Q 20.9162109375 10.0478515625 17.75 10.05 14.6591796875 10.0478515625 12.45 12.25 10.1986328125 14.5083984375 10.2 17.65 10.205078125 20.7236328125 12.45 22.85
L 12.45 22.9
Q 14.628515625 25.146875 17.75 25.15 20.9154296875 25.159375 23 22.9 23.0373046875 22.9013671875 23.05 22.85 25.2947265625 20.7236328125 25.3 17.65 25.3013671875 14.4767578125 23.05 12.25 Z"/>
</g>

<g id="icon_sourcecode_0_Layer1_0_FILL">
<path stroke="none" d="
M 9.95 5.1
Q 9.85 4.9 9.7 5.1
L 2.25 11.25
Q 2.2 11.25 2.15 11.4 2.1 11.45 2.1 11.6 2.05 11.75 2.05 11.9 2 12.15 2 12.4 2 12.95 2.1 13.25 2.15 13.6 2.25 13.7
L 9.7 19.85
Q 9.8 19.9 9.85 20 9.9 20 9.95 19.9 10 19.75 10 19.5 10 19.25 10 18.9 10 18.5 10 18.15 10 17.9 9.95 17.75 9.9 17.6 9.85 17.5 9.8 17.4 9.7 17.3
L 3.65 12.5 9.75 7.55
Q 9.85 7.45 9.85 7.35 9.95 7.3 9.95 7.1 10 6.95 10 6.7 10 6.45 10 5.95 10 5.25 9.95 5.1
M 23 12.5
Q 23 11.9 23 11.65 22.9 11.4 22.8 11.3
L 15.4 5.1
Q 15.25 5 15.2 5 15.1 5 15.05 5.1 15.05 5.15 15 5.4 15 5.6 15 6 15 6.5 15 6.75 15 6.95 15.05 7.1 15.1 7.35 15.15 7.45 15.25 7.55 15.35 7.6
L 21.4 12.4 15.3 17.4
Q 15.2 17.4 15.15 17.5 15.05 17.65 15.05 17.8 15 18 15 18.25 15 18.5 15 18.95 15 19.25 15 19.5 15.05 19.75 15.05 19.85 15.1 20 15.2 20 15.25 19.9 15.4 19.85
L 22.8 13.7
Q 22.85 13.7 22.9 13.6 22.95 13.45 23 13.25 23 13.1 23 12.95 23 12.75 23 12.5 Z"/>
</g>

<g id="icon_sourcecode_0_Layer0_0_FILL">
<path fill-opacity="0" stroke="none" d="
M 0 17.15
L 25 17.15 25 0 0 0 0 17.15
M 25 17.15
L 0 17.15 0 25 25 25 25 17.15 Z"/>
</g>

<g id="iconUploadArrow_0_Layer1_0_FILL">
<path fill-opacity="0" stroke="none" d="
M 0 0
L 0 25 25 25 25 0 0 0 Z"/>
</g>

<g id="iconUploadArrow_0_Layer0_0_FILL">
<path stroke="none" d="
M 16 9
L 23 9 12.55 0 2 9 9 9 9 25 16 25 16 9 Z"/>
</g>

<g id="iconUpload_0_Layer1_0_FILL">
<path fill-opacity="0" stroke="none" d="
M 25 0
L 0 0 0 25 25 25 25 0 Z"/>
</g>

<g id="iconUpload_0_Layer0_0_FILL">
<path stroke="none" d="
M 6.55 14.05
L 10.05 14.05 10.05 25 15.05 25 15.05 14.05 18.55 14.05 12.55 8.05 6.55 14.05
M 23.05 2.05
L 23.05 17.05 16.05 17.05 16.05 19.05 25 19.05 25 0 0 0 0 19.05 9.05 19.05 9.05 17.05 2.05 17.05 2.05 2.05 23.05 2.05 Z"/>
</g>

<g id="iconUsers_0_Layer1_0_FILL">
<path stroke="none" d="
M 15 32.2
Q 11.5 33.35 8.5 35.6 4.25 38.9 2.3 43.5 0.25 48.1 0.05 53.1 -0.15 58.15 0.75 59.35
L 45.45 59.35
Q 46.4 58.15 46.1 53.1 45.9 48.1 43.95 43.5 42 38.9 37.65 35.6 34.9 33.5 31.65 32.35 29.15 31.45 26.35 31.1 25.5 31 24.65 30.95 23.9 30.9 23.1 30.9 21.85 30.9 20.65 31.05 17.7 31.3 15 32.2
M 31.45 10.35
Q 31.2 10.05 30.95 9.8 28.15 7 24.45 6.55 23.7 6.45 22.9 6.45 18.2 6.45 14.85 9.8 11.5 13.2 11.5 17.9 11.5 22.6 14.85 25.95 18.2 29.3 22.9 29.3 23 29.3 23.1 29.3 23.8 29.3 24.45 29.2 28.15 28.7 30.95 25.95 31.2 25.7 31.45 25.45 34.3 22.25 34.3 17.9 34.3 13.55 31.45 10.35
M 48.05 25.95
Q 51.4 22.6 51.4 17.9 51.4 13.2 48.05 9.8 44.7 6.45 40 6.45 36.25 6.45 33.4 8.55 37.2 12.5 37.2 17.95 37.2 23.3 33.45 27.2 36.3 29.3 40 29.3 40.1 29.3 40.2 29.3 44.75 29.2 48.05 25.95
M 40.75 34.3
Q 45.1 37.6 47.05 42.2 49 46.8 49.2 51.8 49.45 55.65 49 59.35
L 62.55 59.35
Q 63.5 58.15 63.2 53.1 63 48.1 61.05 43.5 59.1 38.9 54.75 35.6 48.6 30.95 40.2 30.9 37.75 30.9 35.5 31.35 38.3 32.45 40.75 34.3 Z"/>
</g>

<g id="iconUsers_0_Layer0_0_FILL">
<path fill-opacity="0.00784313725490196" stroke="none" d="
M 64 0
L 0 0 0 64 64 64 64 0 Z"/>
</g>
</defs><symbol id="icon-add-sm" viewBox="0 0 22 22">


<g transform="matrix( 1, 0, 0, 1, 0,0) ">
<g transform="matrix( 1, 0, 0, 1, 0,0) ">
<use xlink:href="#iconAddSmall_0_Layer1_0_FILL"/>
</g>

<g transform="matrix( 1, 0, 0, 1, 0,0) ">
<use xlink:href="#iconAddSmall_0_Layer0_0_FILL"/>
</g>
</g>
</symbol><symbol id="icon-add" viewBox="0 0 15 15">


<g transform="matrix( 1, 0, 0, 1, 0,0) ">
<g transform="matrix( 1, 0, 0, 1, 0,0) ">
<use xlink:href="#icon_add_0_Layer1_0_FILL"/>
</g>

<g transform="matrix( 1, 0, 0, 1, 0,0) ">
<use xlink:href="#icon_add_0_Layer0_0_FILL"/>
</g>
</g>
</symbol><symbol id="icon-analytics" viewBox="0 0 64 64">


<g transform="matrix( 1, 0, 0, 1, 0,0) ">
<use xlink:href="#Analytics1_0_FILL"/>
</g>

<g transform="matrix( 1, 0, 0, 1, 0,0) ">
<use xlink:href="#Analytics0_0_FILL"/>
</g>
</symbol><symbol id="icon-arrow-right" viewBox="0 0 64 64">


<g transform="matrix( 1, 0, 0, 1, 0,0) ">
<g transform="matrix( 1, 0, 0, 1, 0,0) ">
<use xlink:href="#arrow_right_0_Layer1_0_FILL"/>
</g>

<g transform="matrix( 1, 0, 0, 1, 0,0) ">
<use xlink:href="#arrow_right_0_Layer0_0_FILL"/>
</g>
</g>
</symbol><symbol id="icon-back" viewBox="0 0 64 64">


<g transform="matrix( 1, 0, 0, 1, 0,0) ">
<g transform="matrix( 1, 0, 0, 1, 0,0) ">
<use xlink:href="#iconArrow_0_Layer1_0_FILL"/>
</g>

<g transform="matrix( 1, 0, 0, 1, 0,0) ">
<use xlink:href="#iconArrow_0_Layer0_0_FILL"/>
</g>
</g>
</symbol><symbol id="icon-check" viewBox="0 0 64 64">


<g transform="matrix( 1, 0, 0, 1, 0,0) ">
<g transform="matrix( 1, 0, 0, 1, 0,0) ">
<use xlink:href="#iconCheck_Fill"/>
</g>
</g>
</symbol><symbol id="icon-close" viewBox="0 0 32 32">


<g transform="matrix( 1, 0, 0, 1, 0,0) ">
<g transform="matrix( 1, 0, 0, 1, 0,0) ">
<use xlink:href="#icon_0_Layer1_0_FILL"/>
</g>

<g transform="matrix( 1, 0, 0, 1, 0,0) ">
<use xlink:href="#icon_0_Layer0_0_FILL"/>
</g>
</g>
</symbol><symbol id="icon-cycle" viewBox="0 0 25 25">


<g transform="matrix( 1, 0, 0, 1, 0,0) ">
<g transform="matrix( 1, 0, 0, 1, 0,0) ">
<use xlink:href="#icon_cycle_0_Layer1_0_FILL"/>
</g>

<g transform="matrix( 1, 0, 0, 1, 0,0) ">
<use xlink:href="#icon_cycle_0_Layer0_0_FILL"/>
</g>
</g>
</symbol><symbol id="icon-datasource" viewBox="0 0 64 64">


<g transform="matrix( 1, 0, 0, 1, 0,0) ">
<g transform="matrix( 1, 0, 0, 1, 0,0) ">
<use xlink:href="#iconDataset_0_Layer1_0_FILL"/>
</g>

<g transform="matrix( 1, 0, 0, 1, 0,0) ">
<use xlink:href="#iconDataset_0_Layer0_0_FILL"/>
</g>
</g>
</symbol><symbol id="icon-datasources" viewBox="0 0 64 64">


<g transform="matrix( 1, 0, 0, 1, 0,0) ">
<g transform="matrix( 1, 0, 0, 1, 0,0) ">
<use xlink:href="#iconDatasets_0_Layer1_0_FILL"/>
</g>

<g transform="matrix( 1, 0, 0, 1, 0,0) ">
<use xlink:href="#iconDatasets_0_Layer0_0_FILL"/>
</g>
</g>
</symbol><symbol id="icon-dots" viewBox="0 0 64 64">


<g transform="matrix( 1, 0, 0, 1, 0,0) ">
<g transform="matrix( 1, 0, 0, 1, 0,0) ">
<use xlink:href="#iconDots_0_Layer1_0_FILL"/>
</g>

<g transform="matrix( 1, 0, 0, 1, 0,0) ">
<use xlink:href="#iconDots_0_Layer0_0_FILL"/>
</g>
</g>
</symbol><symbol id="icon-edit" viewBox="0 0 64 64">


<g transform="matrix( 1, 0, 0, 1, 0,0) ">
<g transform="matrix( 1, 0, 0, 1, 0,0) ">
<use xlink:href="#iconEdit_0_Layer1_0_FILL"/>
</g>

<g transform="matrix( 1, 0, 0, 1, 0,0) ">
<use xlink:href="#iconEdit_0_Layer0_0_FILL"/>
</g>
</g>
</symbol><symbol id="icon-email" viewBox="0 0 64 64">


<g transform="matrix( 1, 0, 0, 1, 0,9) ">
<g transform="matrix( 1, 0, 0, 1, 0,0) ">
<use xlink:href="#iconEmail_0_Layer0_0_FILL"/>
</g>
</g>
</symbol><symbol id="icon-file-add" viewBox="0 0 64 64">


<g transform="matrix( 1, 0, 0, 1, 0,0) ">
<g transform="matrix( 1, 0, 0, 1, 0,0) ">
<use xlink:href="#file_add_0_Layer1_0_FILL"/>
</g>

<g transform="matrix( 1, 0, 0, 1, 0,0) ">
<use xlink:href="#file_add_0_Layer0_0_FILL"/>
</g>
</g>
</symbol><symbol id="icon-file-css" viewBox="0 0 64 64">


<g transform="matrix( 1, 0, 0, 1, 0,0) ">
<g transform="matrix( 1, 0, 0, 1, 0,0) ">
<use xlink:href="#filecss_0_Layer2_0_FILL"/>
</g>

<g transform="matrix( 1, 0, 0, 1, 0,0) ">
<use xlink:href="#filecss_0_Layer0_0_FILL"/>
</g>
</g>
</symbol><symbol id="icon-file-doc" viewBox="0 0 64 64">


<g transform="matrix( 1, 0, 0, 1, 0,0) ">
<g transform="matrix( 1, 0, 0, 1, 0,0) ">
<use xlink:href="#file_doc_0_Layer1_0_FILL"/>
</g>

<g transform="matrix( 1, 0, 0, 1, 0,0) ">
<use xlink:href="#file_doc_0_Layer0_0_FILL"/>
</g>
</g>
</symbol><symbol id="icon-file-exe" viewBox="0 0 64 64">


<g transform="matrix( 1, 0, 0, 1, 0,0) ">
<g transform="matrix( 1, 0, 0, 1, 0,0) ">
<use xlink:href="#file_exe_0_Layer1_0_FILL"/>
</g>

<g transform="matrix( 1, 0, 0, 1, 0,0) ">
<use xlink:href="#file_exe_0_Layer0_0_FILL"/>
</g>
</g>
</symbol><symbol id="icon-file-html" viewBox="0 0 64 64">


<g transform="matrix( 1, 0, 0, 1, 0,0) ">
<g transform="matrix( 1, 0, 0, 1, 0,0) ">
<use xlink:href="#filehtml_0_Layer2_0_FILL"/>
</g>

<g transform="matrix( 1, 0, 0, 1, 0,0) ">
<use xlink:href="#filehtml_0_Layer0_0_FILL"/>
</g>
</g>
</symbol><symbol id="icon-file-jpg" viewBox="0 0 64 64">


<g transform="matrix( 1, 0, 0, 1, 0,0) ">
<use xlink:href="#Layer2_0_FILL"/>
</g>

<g transform="matrix( 1, 0, 0, 1, 0,0) ">
<use xlink:href="#Layer0_0_FILL"/>
</g>
</symbol><symbol id="icon-file-js" viewBox="0 0 64 64">


<g transform="matrix( 1, 0, 0, 1, 0,0) ">
<g transform="matrix( 1, 0, 0, 1, 0,0) ">
<use xlink:href="#filejs_0_Layer1_0_FILL"/>
</g>

<g transform="matrix( 1, 0, 0, 1, 0,0) ">
<use xlink:href="#filejs_0_Layer0_0_FILL"/>
</g>
</g>
</symbol><symbol id="icon-file-less" viewBox="0 0 64 64">


<g transform="matrix( 1, 0, 0, 1, 0,0) ">
<g transform="matrix( 1, 0, 0, 1, 0,0) ">
<use xlink:href="#fileless_0_Layer2_0_FILL"/>
</g>

<g transform="matrix( 1, 0, 0, 1, 0,0) ">
<use xlink:href="#fileless_0_Layer0_0_FILL"/>
</g>
</g>
</symbol><symbol id="icon-file-pdf" viewBox="0 0 64 64">


<g transform="matrix( 1, 0, 0, 1, 0,0) ">
<g transform="matrix( 1, 0, 0, 1, 0,0) ">
<use xlink:href="#file_pdf_0_Layer1_0_FILL"/>
</g>

<g transform="matrix( 1, 0, 0, 1, 0,0) ">
<use xlink:href="#file_pdf_0_Layer0_0_FILL"/>
</g>
</g>
</symbol><symbol id="icon-file-png" viewBox="0 0 64 64">


<g transform="matrix( 1, 0, 0, 1, 0,0) ">
<use xlink:href="#Layer2_0_FILL"/>
</g>

<g transform="matrix( 1, 0, 0, 1, 0,0) ">
<use xlink:href="#Layer0_0_FILL"/>
</g>
</symbol><symbol id="icon-file-video" viewBox="0 0 64 64">


<g transform="matrix( 1, 0, 0, 1, 0,0) ">
<g transform="matrix( 1, 0, 0, 1, 0,0) ">
<use xlink:href="#file_video_0_Layer1_0_FILL"/>
</g>

<g transform="matrix( 1, 0, 0, 1, 0,0) ">
<use xlink:href="#file_video_0_Layer0_0_FILL"/>
</g>
</g>
</symbol><symbol id="icon-file-zip" viewBox="0 0 64 64">


<g transform="matrix( 1, 0, 0, 1, 0,0) ">
<g transform="matrix( 1, 0, 0, 1, 0,0) ">
<use xlink:href="#file_zip_0_Layer1_0_FILL"/>
</g>

<g transform="matrix( 1, 0, 0, 1, 0,0) ">
<use xlink:href="#file_zip_0_Layer0_0_FILL"/>
</g>
</g>
</symbol><symbol id="icon-file" viewBox="0 0 64 64">


<g transform="matrix( 1, 0, 0, 1, 0,0) ">
<g transform="matrix( 1, 0, 0, 1, 0,0) ">
<use xlink:href="#file_0_Layer1_0_FILL"/>
</g>

<g transform="matrix( 1, 0, 0, 1, 0,0) ">
<use xlink:href="#file_0_Layer0_0_FILL"/>
</g>
</g>
</symbol><symbol id="icon-filter" viewBox="0 0 96 96"><path d="M92.164 12.076c-.31-.752-1.044-1.244-1.852-1.244H5.684c-.812 0-1.544.492-1.848 1.244-.308.752-.132 1.608.444 2.176L38 47.524v35.64c0 .712.38 1.372.996 1.736.312.18.656.264 1.004.264.34 0 .684-.084.992-.256l16-9.12c.624-.356 1.008-1.02 1.008-1.74V47.524l33.72-33.268c.572-.572.748-1.432.444-2.18z"/></symbol><symbol id="icon-folder-add" viewBox="0 0 64 64">


<g transform="matrix( 1, 0, 0, 1, 0,0) ">
<use xlink:href="#Layer1_0_FILL"/>
</g>

<g transform="matrix( 1, 0, 0, 1, 0,0) ">
<use xlink:href="#Layer0_0_FILL"/>
</g>
</symbol><symbol id="icon-folder-back" viewBox="0 0 64 64">


<g transform="matrix( 1, 0, 0, 1, 0,0) ">
<g transform="matrix( 1, 0, 0, 1, 0,0) ">
<use xlink:href="#folder_back_0_Layer1_0_FILL"/>
</g>

<g transform="matrix( 1, 0, 0, 1, 0,0) ">
<use xlink:href="#folder_back_0_Layer0_0_FILL"/>
</g>
</g>
</symbol><symbol id="icon-folder" viewBox="0 0 64 64">


<g transform="matrix( 1, 0, 0, 1, 0,0) ">
<g transform="matrix( 1, 0, 0, 1, 0,0) ">
<use xlink:href="#folder_0_Layer1_0_FILL"/>
</g>

<g transform="matrix( 1, 0, 0, 1, 0,0) ">
<use xlink:href="#folder_0_Layer0_0_FILL"/>
</g>
</g>
</symbol><symbol id="icon-form-fields" viewBox="0 0 64 64">


<g transform="matrix( 1, 0, 0, 1, 0,0) ">
<g transform="matrix( 1, 0, 0, 1, 0,0) ">
<use xlink:href="#form_fields_0_Layer1_0_FILL"/>
</g>

<g transform="matrix( 1, 0, 0, 1, 0,0) ">
<use xlink:href="#form_fields_0_Layer0_0_FILL"/>
</g>
</g>
</symbol><symbol id="icon-fullscreen" viewBox="0 0 64 64">


<g transform="matrix( 1, 0, 0, 1, 0,0) ">
<g transform="matrix( 1, 0, 0, 1, 0,0) ">
<use xlink:href="#fullscreen_0_Layer1_0_FILL"/>
</g>

<g transform="matrix( 1, 0, 0, 1, 0,0) ">
<use xlink:href="#fullscreen_0_Layer0_0_FILL"/>
</g>
</g>
</symbol><symbol id="icon-globe" viewBox="0 0 64 64">


<g transform="matrix( 1, 0, 0, 1, 0,0) ">
<g transform="matrix( 1, 0, 0, 1, 0,0) ">
<use xlink:href="#iconGlobe_0_Layer0_0_FILL"/>

<use xlink:href="#iconGlobe_0_Layer0_0_1_STROKES"/>

<use xlink:href="#iconGlobe_0_Layer0_0_2_STROKES"/>

<use xlink:href="#iconGlobe_0_Layer0_0_3_STROKES"/>
</g>
</g>
</symbol><symbol id="icon-hide" viewBox="0 0 64 64">


<g transform="matrix( 1, 0, 0, 1, 0,0) ">
<g transform="matrix( 1, 0, 0, 1, 0,0) ">
<use xlink:href="#iconHide_0_Layer1_0_FILL"/>
</g>

<g transform="matrix( 1, 0, 0, 1, 0,0) ">
<use xlink:href="#iconHide_0_Layer0_0_FILL"/>
</g>
</g>
</symbol><symbol id="icon-icons" viewBox="0 0 64 64">


<g transform="matrix( 1, 0, 0, 1, 7,8) ">
<g transform="matrix( 1, 0, 0, 1, 0,0) ">
<use xlink:href="#circle_0_Layer0_0_FILL"/>
</g>
</g>
</symbol><symbol id="icon-key" viewBox="0 0 64 64">


<g transform="matrix( 1, 0, 0, 1, 0,0) ">
<g transform="matrix( 1, 0, 0, 1, 0,0) ">
<use xlink:href="#IconKey_0_Layer1_0_FILL"/>
</g>

<g transform="matrix( 1, 0, 0, 1, 0,0) ">
<use xlink:href="#IconKey_0_Layer0_0_FILL"/>
</g>
</g>
</symbol><symbol id="icon-link" viewBox="0 0 512 512">
<path d="M459.654,233.373l-90.531,90.5c-49.969,50-131.031,50-181,0c-7.875-7.844-14.031-16.688-19.438-25.813
	l42.063-42.063c2-2.016,4.469-3.172,6.828-4.531c2.906,9.938,7.984,19.344,15.797,27.156c24.953,24.969,65.563,24.938,90.5,0
	l90.5-90.5c24.969-24.969,24.969-65.563,0-90.516c-24.938-24.953-65.531-24.953-90.5,0l-32.188,32.219
	c-26.109-10.172-54.25-12.906-81.641-8.891l68.578-68.578c50-49.984,131.031-49.984,181.031,0
	C509.623,102.342,509.623,183.389,459.654,233.373z M220.326,382.186l-32.203,32.219c-24.953,24.938-65.563,24.938-90.516,0
	c-24.953-24.969-24.953-65.563,0-90.531l90.516-90.5c24.969-24.969,65.547-24.969,90.5,0c7.797,7.797,12.875,17.203,15.813,27.125
	c2.375-1.375,4.813-2.5,6.813-4.5l42.063-42.047c-5.375-9.156-11.563-17.969-19.438-25.828c-49.969-49.984-131.031-49.984-181.016,0
	l-90.5,90.5c-49.984,50-49.984,131.031,0,181.031c49.984,49.969,131.031,49.969,181.016,0l68.594-68.594
	C274.561,395.092,246.42,392.342,220.326,382.186z"/>
</symbol><symbol id="icon-loader" viewBox="0 0 100 100"><g transform="rotate(0 50 50)">
  <rect x="47.5" y="22.5" rx="4.75" ry="2.25" width="5" height="15" fill="#cecece">
    <animate attributeName="opacity" values="1;0" times="0;1" dur="1s" begin="-0.9s" repeatCount="indefinite"/>
  </rect>
</g><g transform="rotate(36 50 50)">
  <rect x="47.5" y="22.5" rx="4.75" ry="2.25" width="5" height="15" fill="#cecece">
    <animate attributeName="opacity" values="1;0" times="0;1" dur="1s" begin="-0.8s" repeatCount="indefinite"/>
  </rect>
</g><g transform="rotate(72 50 50)">
  <rect x="47.5" y="22.5" rx="4.75" ry="2.25" width="5" height="15" fill="#cecece">
    <animate attributeName="opacity" values="1;0" times="0;1" dur="1s" begin="-0.7s" repeatCount="indefinite"/>
  </rect>
</g><g transform="rotate(108 50 50)">
  <rect x="47.5" y="22.5" rx="4.75" ry="2.25" width="5" height="15" fill="#cecece">
    <animate attributeName="opacity" values="1;0" times="0;1" dur="1s" begin="-0.6s" repeatCount="indefinite"/>
  </rect>
</g><g transform="rotate(144 50 50)">
  <rect x="47.5" y="22.5" rx="4.75" ry="2.25" width="5" height="15" fill="#cecece">
    <animate attributeName="opacity" values="1;0" times="0;1" dur="1s" begin="-0.5s" repeatCount="indefinite"/>
  </rect>
</g><g transform="rotate(180 50 50)">
  <rect x="47.5" y="22.5" rx="4.75" ry="2.25" width="5" height="15" fill="#cecece">
    <animate attributeName="opacity" values="1;0" times="0;1" dur="1s" begin="-0.4s" repeatCount="indefinite"/>
  </rect>
</g><g transform="rotate(216 50 50)">
  <rect x="47.5" y="22.5" rx="4.75" ry="2.25" width="5" height="15" fill="#cecece">
    <animate attributeName="opacity" values="1;0" times="0;1" dur="1s" begin="-0.3s" repeatCount="indefinite"/>
  </rect>
</g><g transform="rotate(252 50 50)">
  <rect x="47.5" y="22.5" rx="4.75" ry="2.25" width="5" height="15" fill="#cecece">
    <animate attributeName="opacity" values="1;0" times="0;1" dur="1s" begin="-0.2s" repeatCount="indefinite"/>
  </rect>
</g><g transform="rotate(288 50 50)">
  <rect x="47.5" y="22.5" rx="4.75" ry="2.25" width="5" height="15" fill="#cecece">
    <animate attributeName="opacity" values="1;0" times="0;1" dur="1s" begin="-0.1s" repeatCount="indefinite"/>
  </rect>
</g><g transform="rotate(324 50 50)">
  <rect x="47.5" y="22.5" rx="4.75" ry="2.25" width="5" height="15" fill="#cecece">
    <animate attributeName="opacity" values="1;0" times="0;1" dur="1s" begin="0s" repeatCount="indefinite"/>
  </rect>
</g></symbol><symbol id="icon-logout" viewBox="0 0 15 15">


<g transform="matrix( 1, 0, 0, 1, 0,0) ">
<g transform="matrix( 1, 0, 0, 1, 0,0) ">
<use xlink:href="#icon_logout_0_Layer1_0_FILL"/>
</g>

<g transform="matrix( 1, 0, 0, 1, 0,0) ">
<use xlink:href="#icon_logout_0_Layer0_0_FILL"/>
</g>
</g>
</symbol><symbol id="icon-menu" viewBox="0 0 64 64">


<g transform="matrix( 1, 0, 0, 1, 0,0) ">
<g transform="matrix( 1, 0, 0, 1, 0,0) ">
<use xlink:href="#menu_0_Layer1_0_FILL"/>
</g>

<g transform="matrix( 1, 0, 0, 1, 0,0) ">
<use xlink:href="#menu_0_Layer0_0_FILL"/>
</g>
</g>
</symbol><symbol id="icon-new-tab" viewBox="0 0 64 64">


<g transform="matrix( 1, 0, 0, 1, 0,0) ">
<g transform="matrix( 1, 0, 0, 1, 0,0) ">
<use xlink:href="#newtab_0_Layer1_0_FILL"/>
</g>

<g transform="matrix( 1, 0, 0, 1, 0,0) ">
<use xlink:href="#newtab_0_Layer0_0_FILL"/>
</g>
</g>
</symbol><symbol id="icon-new-window" viewBox="0 0 64 64">


<g transform="matrix( 1, 0, 0, 1, 0,0) ">
<g transform="matrix( 1, 0, 0, 1, 0,0) ">
<use xlink:href="#new_window_0_Layer1_0_FILL"/>
</g>

<g transform="matrix( 1, 0, 0, 1, 0,0) ">
<use xlink:href="#new_window_0_Layer0_0_FILL"/>
</g>
</g>
</symbol><symbol id="icon-pass" viewBox="0 0 64 64">


<g transform="matrix( 1, 0, 0, 1, 1.9,22.65) ">
<g transform="matrix( 1, 0, 0, 1, 0,0) ">
<use xlink:href="#passchars_0_Layer0_0_FILL"/>
</g>
</g>
</symbol><symbol id="icon-photos" viewBox="0 0 36 36">


<g transform="matrix( 1, 0, 0, 1, 0,0) ">
<g transform="matrix( 1, 0, 0, 1, 0,0) ">
<use xlink:href="#icon_photos_0_Layer1_0_FILL"/>
</g>

<g transform="matrix( 1, 0, 0, 1, 0,0) ">
<use xlink:href="#icon_photos_0_Layer0_0_FILL"/>
</g>
</g>
</symbol><symbol id="icon-pin" viewBox="0 0 64 64">


<g transform="matrix( 1, 0, 0, 1, 0,0) ">
<g transform="matrix( 1, 0, 0, 1, 0,0) ">
<use xlink:href="#pin_0_Layer1_0_FILL"/>
</g>

<g transform="matrix( 1, 0, 0, 1, 0,0) ">
<use xlink:href="#pin_0_Layer0_0_FILL"/>
</g>
</g>
</symbol><symbol id="icon-plugin" viewBox="0 0 64 64">


<g transform="matrix( 1, 0, 0, 1, 0,0) ">
<g transform="matrix( 1, 0, 0, 1, 0,0) ">
<use xlink:href="#iconPlugin_0_Layer1_0_FILL"/>
</g>

<g transform="matrix( 1, 0, 0, 1, 0,0) ">
<use xlink:href="#iconPlugin_0_Layer0_0_FILL"/>
</g>
</g>
</symbol><symbol id="icon-preview" viewBox="0 0 64 64">


<g transform="matrix( 1, 0, 0, 1, 0,0) ">
<g transform="matrix( 1, 0, 0, 1, 0,0) ">
<use xlink:href="#preview_0_Layer1_0_FILL"/>
</g>

<g transform="matrix( 1, 0, 0, 1, 0,0) ">
<use xlink:href="#preview_0_Layer0_0_FILL"/>
</g>
</g>
</symbol><symbol id="icon-public-api" viewBox="0 0 64 64">


<g transform="matrix( 1, 0, 0, 1, 0,0) ">
<g transform="matrix( 1, 0, 0, 1, 0,0) ">
<use xlink:href="#iconPublicApi_0_Layer1_0_FILL"/>
</g>

<g transform="matrix( 1, 0, 0, 1, 0,0) ">
<use xlink:href="#iconPublicApi_0_Layer0_0_FILL"/>
</g>
</g>
</symbol><symbol id="icon-saber" viewBox="0 0 64 128">


<g transform="matrix( 0.3900909423828125, 0.2862548828125, -0.2862548828125, 0.3900909423828125, 47.6,-5.2) ">
<g transform="matrix( 1, 0, 0, 1, 0,0) ">
<use xlink:href="#sword_0_Layer0_0_FILL"/>
</g>
</g>
</symbol><symbol id="icon-save" viewBox="0 0 25 25">


<g transform="matrix( 1, 0, 0, 1, 0,0) ">
<g transform="matrix( 1, 0, 0, 1, 0,0) ">
<use xlink:href="#iconSave_0_Layer0_0_FILL"/>
</g>
</g>
</symbol><symbol id="icon-security" viewBox="0 0 64 64">


<g transform="matrix( 1, 0, 0, 1, 0,0) ">
<g transform="matrix( 1, 0, 0, 1, 0,0) ">
<use xlink:href="#iconSecurity_0_Layer1_0_FILL"/>
</g>

<g transform="matrix( 1, 0, 0, 1, 0,0) ">
<use xlink:href="#iconSecurity_0_Layer0_0_FILL"/>
</g>
</g>
</symbol><symbol id="icon-settings" viewBox="0 0 36 36">


<g transform="matrix( 1, 0, 0, 1, 0.3,0.3) ">
<g transform="matrix( 1, 0, 0, 1, 0,0) ">
<use xlink:href="#icon_settings_0_Layer1_0_FILL"/>
</g>

<g transform="matrix( 1, 0, 0, 1, 0,0) ">
<use xlink:href="#icon_settings_0_Layer0_0_FILL"/>
</g>
</g>
</symbol><symbol id="icon-sort" viewBox="0 0 460.088 460.088">
<g>
	<path d="M25.555,139.872h257.526V88.761H25.555C11.442,88.761,0,100.203,0,114.316C0,128.429,11.442,139.872,25.555,139.872z"/>
	<path d="M25.555,242.429h257.526v-51.111H25.555C11.442,191.318,0,202.76,0,216.874C0,230.988,11.442,242.429,25.555,242.429z"/>
	<path d="M25.555,293.874v0.001C11.442,293.875,0,305.316,0,319.43s11.442,25.555,25.555,25.555h178.91
		c-2.021-6.224-3.088-12.789-3.088-19.523c0-11.277,2.957-22.094,8.48-31.588H25.555z"/>
	<path d="M450.623,302.611c-12.62-12.621-33.083-12.621-45.704,0l-26.535,26.535V52.926c0-17.849-14.469-32.317-32.318-32.317
		s-32.318,14.469-32.318,32.317v276.22l-26.535-26.535c-12.621-12.62-33.083-12.621-45.704,0
		c-12.621,12.621-12.621,33.083,0,45.704l81.7,81.699c12.596,12.6,33.084,12.643,45.714,0l81.7-81.699
		C463.243,335.694,463.244,315.232,450.623,302.611z"/>
</g>
</symbol><symbol id="icon-sourcecode" viewBox="0 0 25 25">


<g transform="matrix( 1, 0, 0, 1, 0,0) ">
<g transform="matrix( 1, 0, 0, 1, 0,0) ">
<use xlink:href="#icon_sourcecode_0_Layer1_0_FILL"/>
</g>

<g transform="matrix( 1, 0, 0, 1, 0,0) ">
<use xlink:href="#icon_sourcecode_0_Layer0_0_FILL"/>
</g>
</g>
</symbol><symbol id="icon-upload-arrow" viewBox="0 0 25 25">


<g transform="matrix( 1, 0, 0, 1, 0,0) ">
<g transform="matrix( 1, 0, 0, 1, 0,0) ">
<use xlink:href="#iconUploadArrow_0_Layer1_0_FILL"/>
</g>

<g transform="matrix( 1, 0, 0, 1, 0,0) ">
<use xlink:href="#iconUploadArrow_0_Layer0_0_FILL"/>
</g>
</g>
</symbol><symbol id="icon-upload" viewBox="0 0 25 25">


<g transform="matrix( 1, 0, 0, 1, 0,0) ">
<g transform="matrix( 1, 0, 0, 1, 0,0) ">
<use xlink:href="#iconUpload_0_Layer1_0_FILL"/>
</g>

<g transform="matrix( 1, 0, 0, 1, 0,0) ">
<use xlink:href="#iconUpload_0_Layer0_0_FILL"/>
</g>
</g>
</symbol><symbol id="icon-users" viewBox="0 0 64 64">


<g transform="matrix( 1, 0, 0, 1, 0,0) ">
<g transform="matrix( 1, 0, 0, 1, 0,0) ">
<use xlink:href="#iconUsers_0_Layer1_0_FILL"/>
</g>

<g transform="matrix( 1, 0, 0, 1, 0,0) ">
<use xlink:href="#iconUsers_0_Layer0_0_FILL"/>
</g>
</g>
</symbol></svg>