
<svg xmlns="http://www.w3.org/2000/svg" version="1.1" xmlns:xlink="http://www.w3.org/1999/xlink" preserveAspectRatio="none" x="0px" y="0px" width="64px" height="64px" viewBox="0 0 64 64">
<defs>
<g id="iconSpecialVars_0_Layer1_0_FILL">
<path fill="#FFFFFF" stroke="none" d="
M 38.45 16.85
L 34.55 16.85 25.05 49.2 28.9 49.2 38.45 16.85 Z"/>
</g>

<g id="bracket_0_Layer0_0_FILL">
<path fill="#FFFFFF" stroke="none" d="
M 9.55 3.6
L 9.55 0
Q 8.39453125 0 7.4 0 4.669921875 0.094921875 3.4 1.6 2.1 3.25 2.1 7.2
L 2.1 11.55
Q 2.1 14.7359375 0.5 15.15
L 0.5 15.15
Q -0.15 15.2 -0.8 15.2
L -0.8 18.75
Q -0.15 18.75 0.5 18.75
L 0.5 18.8
Q 2.1 19.2078125 2.1 22.35
L 2.1 26.95
Q 2.1 30.95 3.45 32.5 4.694921875 33.929296875 7.3 34.05 7.35 34.0482421875 7.4 34.05 8.3888671875 34.05 9.55 34.05
L 9.55 30.45
Q 8.3888671875 30.45 7.4 30.45
L 7.4 30.4
Q 6.5203125 30.3224609375 6.1 29.65 5.6 28.9 5.6 26.95
L 5.6 23
Q 5.6 18.25 3.45 17.05
L 3.45 17
Q 5.6 15.7 5.6 11.1
L 5.6 7
Q 5.6 3.8890625 7.4 3.6
L 7.4 3.65
Q 8.39453125 3.6251953125 9.55 3.6 Z"/>
</g>

<g id="iconSpecialVars_0_Layer0_0_FILL">
<path fill="#FFFFFF" fill-opacity="0" stroke="none" d="
M 0 0
L 0 64 64 64 64 0 0 0 Z"/>
</g>
</defs>

<g transform="matrix( 1, 0, 0, 1, 0,0) ">
<g transform="matrix( 1, 0, 0, 1, 0,0) ">
<use xlink:href="#iconSpecialVars_0_Layer1_0_FILL"/>
</g>

<g transform="matrix( 1, 0, 0, 1, 12.8,16.85) ">
<g transform="matrix( 1, 0, 0, 1, 0,0) ">
<use xlink:href="#bracket_0_Layer0_0_FILL"/>
</g>
</g>

<g transform="matrix( 1, 0, 0, 1, 1.45,16.85) ">
<g transform="matrix( 1, 0, 0, 1, 0,0) ">
<use xlink:href="#bracket_0_Layer0_0_FILL"/>
</g>
</g>

<g transform="matrix( -1, 0, 0, 1, 50.95,16.85) ">
<g transform="matrix( 1, 0, 0, 1, 0,0) ">
<use xlink:href="#bracket_0_Layer0_0_FILL"/>
</g>
</g>

<g transform="matrix( -1, 0, 0, 1, 62.3,16.85) ">
<g transform="matrix( 1, 0, 0, 1, 0,0) ">
<use xlink:href="#bracket_0_Layer0_0_FILL"/>
</g>
</g>

<g transform="matrix( 1, 0, 0, 1, 0,0) ">
<use xlink:href="#iconSpecialVars_0_Layer0_0_FILL"/>
</g>
</g>
</svg>
