
<svg xmlns="http://www.w3.org/2000/svg" version="1.1" xmlns:xlink="http://www.w3.org/1999/xlink" preserveAspectRatio="none" x="0px" y="0px" width="355px" height="280px" viewBox="0 0 355 280">
<defs>
<g id="Layer0_0_FILL">
<path fill="#FFFFFF" stroke="none" d="
M 387.9 118.65
Q 387.3515625 111.1748046875 380 110.5
L 290.55 111.2
Q 284.9 111.45 279.7 114.15 269.3 119.6 271.65 131.8 272.9 138.1 278.65 141.5 279.5 142 289.4 145.9 295.45 148.3 296.9 151.9 298.85 156.8 294.35 166.45 287.9 174.2 275.95 178.65 265.3 182.6 253 183.05 244.95 183.35 237.5 181.8
L 236.9 181.7
Q 226.35 180.35 217.8 176.55 208.25 172.3 202.8 165.7 198.25 156.05 200.2 151.15 201.65 147.55 207.75 145.15 217.6 141.25 218.45 140.75 224.25 137.35 225.45 131.05 227.75 119 217.75 113.55 214.6 111.85 210.5 111 206.95 110.45 206.8 110.45
L 118.45 110.45
Q 108.3921875 110.2421875 108.6 120.3
L 108.7 207.4 109.2 210.9
Q 110 215.05 111.7 218.3 117.1 228.7 129.3 226.3 134.6 225.3 137.8 221.1 139.85 218.4 141.95 212.6 144.15 206.45 145.45 204.5 147.9 200.8 152 200.45 156.5 200.15 164 203.6 171.75 210.05 176.15 222 180.1 232.65 180.55 244.95 180.85 253.35 179.3 260.45
L 179.2 261.1
Q 177.9 271.55 174.05 280.2 169.85 289.7 163.25 295.2 153.6 299.7 148.7 297.75 145.05 296.3 142.65 290.25 138.75 280.4 138.25 279.5 134.85 273.75 128.55 272.5 119.2 270.7 113.75 276.5 110.05 280.45 108.6 287.3
L 108.65 381.95
Q 109.2 389.45 116.55 390.1 116.7712890625 390.1201171875 117 390.1
L 206.7 389.45
Q 212.35 389.2 217.55 386.45 227.95 381.05 225.6 368.85 224.4 362.55 218.6 359.15 217.75 358.7 207.9 354.75 201.8 352.35 200.35 348.75 198.4 343.8 202.95 334.15 209.4 326.4 221.3 322 231.95 318.05 244.25 317.6 252.3 317.3 259.75 318.85
L 260.4 318.95
Q 270.9 320.3 279.5 324.1 289 328.35 294.5 334.9 299.05 344.55 297.1 349.5 295.65 353.1 289.55 355.5 279.65 359.45 278.8 359.9 273.05 363.3 271.8 369.6 269.45 381.8 279.85 387.2 285.05 389.95 290.7 390.2
L 379.7 390.15
Q 387.2 389.6 387.85 382.25 387.88125 381.6875 387.9 381.05
L 387.9 288.15
Q 389.4 281.3 393.1 277.35 398.5 271.6 407.85 273.4 414.15 274.65 417.55 280.4 418 281.25 421.95 291.15 424.35 297.25 427.95 298.7 432.9 300.65 442.55 296.1 449.1 290.6 453.35 281.05 457.15 272.5 458.5 261.95
L 458.6 261.4
Q 460.15 253.9 459.85 245.9 459.4 233.6 455.45 222.95 451.05 211 443.3 204.55 433.65 200 428.7 201.95 425.1 203.4 422.7 209.5 418.8 219.4 418.3 220.2 414.9 226 408.6 227.2 396.4 229.6 391 219.2 389.3 215.95 388.5 211.8
L 388 208.3 387.9 118.65 Z"/>
</g>
</defs>

<g transform="matrix( 1, 0, 0, 1, -108.6,-110.45) ">
<use xlink:href="#Layer0_0_FILL"/>
</g>
</svg>
