
<svg xmlns="http://www.w3.org/2000/svg" version="1.1" xmlns:xlink="http://www.w3.org/1999/xlink" preserveAspectRatio="none" x="0px" y="0px" width="355px" height="280px" viewBox="0 0 355 280">
<defs>
<path id="PuzzlePiece_Outline_0_Layer0_0_1_STROKES" stroke="#FFFFFF" stroke-width="2" stroke-linejoin="round" stroke-linecap="round" fill="none" d="
M 0.1 97.05
L 0.6 100.55
Q 1.4 104.7 3.1 107.95 8.45 118.35 20.6 115.95 25.9 114.95 29.1 110.75 31.15 108.05 33.25 102.25 35.4 96.1 36.7 94.15 39.15 90.45 43.25 90.1 47.7 89.8 55.2 93.25 62.9 99.7 67.3 111.65 71.25 122.3 71.7 134.6 72 143.05 70.45 150.15
L 70.35 150.8
Q 69.05 161.25 65.2 169.9 61 179.4 54.45 184.9 44.85 189.4 39.95 187.45 36.3 186 33.9 179.95 30.05 170.1 29.55 169.2 26.15 163.45 19.9 162.2 10.55 160.4 5.15 166.2 1.45 170.15 0 177
L 0.05 271.75
Q 0.6 279.25 7.9 279.9 8.1 279.9 8.35 279.95
L 97.75 279.25
Q 103.35 279 108.55 276.25 118.9 270.85 116.55 258.65 115.35 252.35 109.6 248.9 108.75 248.45 98.95 244.5 92.85 242.1 91.4 238.5 89.45 233.55 94 223.9 100.45 216.15 112.3 211.75 122.9 207.8 135.15 207.35 143.15 207.05 150.6 208.6
L 151.25 208.7
Q 161.7 210.05 170.25 213.85 179.75 218.1 185.2 224.65 189.75 234.3 187.8 239.25 186.35 242.85 180.3 245.25 170.4 249.2 169.55 249.65 163.85 253.1 162.6 259.4 160.25 271.6 170.6 277 175.8 279.75 181.4 280
L 270.1 279.95
Q 277.55 279.4 278.2 272.05 278.25 271.5 278.25 270.9
L 278.25 177.85
Q 279.75 171 283.45 167.05 288.85 161.3 298.15 163.1 304.4 164.35 307.8 170.1 308.25 170.95 312.2 180.85 314.6 186.95 318.15 188.4 323.1 190.35 332.7 185.8 339.25 180.3 343.45 170.75 347.25 162.2 348.6 151.65
L 348.7 151.1
Q 350.25 143.6 349.95 135.55 349.5 123.25 345.55 112.6 341.2 100.65 333.45 94.2 323.85 89.65 318.9 91.6 315.35 93.05 312.95 99.15 309.05 109.05 308.55 109.85 305.15 115.65 298.9 116.85 286.75 119.25 281.35 108.85 279.65 105.6 278.85 101.45
L 278.35 97.95 278.25 8.2
Q 277.7 0.7 270.4 0.05
L 181.3 0.75
Q 175.65 1 170.45 3.7 160.1 9.15 162.45 21.35 163.7 27.65 169.4 31.1 170.25 31.6 180.15 35.5 186.15 37.9 187.6 41.5 189.55 46.4 185.05 56.05 178.65 63.8 166.75 68.25 156.1 72.2 143.85 72.65 135.85 72.95 128.4 71.4
L 127.8 71.3
Q 117.3 69.95 108.8 66.15 99.3 61.9 93.85 55.3 89.3 45.65 91.25 40.75 92.7 37.15 98.8 34.75 108.6 30.85 109.45 30.35 115.2 26.9 116.4 20.6 118.7 8.55 108.75 3.1 105.6 1.4 101.5 0.55 98 0 97.85 0
L 9.8 0
Q -0.2 -0.2 0 9.85
L 0.1 97.05 Z"/>
</defs>

<g transform="matrix( 1, 0, 0, 1, 0,0) ">
<g transform="matrix( 1, 0, 0, 1, 0,0) ">
<use xlink:href="#PuzzlePiece_Outline_0_Layer0_0_1_STROKES"/>
</g>
</g>
</svg>
